<svg xmlns="http://www.w3.org/2000/svg" xmlns:xlink="http://www.w3.org/1999/xlink" class="httpgd" width="2048.00" height="1457.00" viewBox="0 0 1638.40 1165.60">
<defs>
  <style type='text/css'><![CDATA[
    .httpgd line, .httpgd polyline, .httpgd polygon, .httpgd path, .httpgd rect, .httpgd circle {
      fill: none;
      stroke: #000000;
      stroke-linecap: round;
      stroke-linejoin: round;
      stroke-miterlimit: 10.00;
    }
  ]]></style>
<clipPath id="c0"><rect x="0.00" y="0.00" width="1638.40" height="1165.60"/></clipPath>
<clipPath id="c1"><rect x="59.04" y="59.04" width="1549.12" height="1033.12"/></clipPath>
<clipPath id="c2"><rect x="0.00" y="0.00" width="1638.40" height="1165.60"/></clipPath>
<clipPath id="c3"><rect x="59.04" y="59.04" width="1549.12" height="1033.12"/></clipPath>
</defs>
<rect width="100%" height="100%" style="stroke: none;fill: #FFFFFF;"/>
<g clip-path="url(#c0)">
</g><g clip-path="url(#c1)">
<polyline points="116.41,509.76 118.16,1053.90 119.90,1053.90 121.64,1053.90 123.39,1053.90 125.13,1053.90 126.87,1053.90 128.61,1053.90 130.36,1053.90 132.10,1053.90 133.84,1053.90 135.59,1053.90 137.33,1053.90 139.07,1053.90 140.81,1053.90 142.56,1053.90 144.30,1053.90 146.04,1053.90 147.79,1053.90 149.53,1053.90 151.27,1053.90 153.01,1053.90 154.76,1053.90 156.50,1053.90 158.24,1053.90 159.99,1053.90 161.73,1053.90 163.47,1053.90 165.21,1053.90 166.96,1053.90 168.70,509.76 170.44,509.76 172.19,509.76 173.93,509.76 175.67,1053.90 177.41,509.76 179.16,1053.90 180.90,509.76 182.64,509.76 184.39,509.76 186.13,509.76 187.87,509.76 189.61,509.76 191.36,509.76 193.10,509.76 194.84,1053.90 196.59,1053.90 198.33,1053.90 200.07,509.76 201.81,509.76 203.56,509.76 205.30,509.76 207.04,509.76 208.79,1053.90 210.53,509.76 212.27,509.76 214.01,1053.90 215.76,1053.90 217.50,1053.90 219.24,1053.90 220.99,1053.90 222.73,509.76 224.47,509.76 226.21,509.76 227.96,509.76 229.70,509.76 231.44,509.76 233.19,509.76 234.93,1053.90 236.67,1053.90 238.41,1053.90 240.16,1053.90 241.90,1053.90 243.64,1053.90 245.39,1053.90 247.13,1053.90 248.87,1053.90 250.61,509.76 252.36,509.76 254.10,509.76 255.84,509.76 257.59,1053.90 259.33,509.76 261.07,509.76 262.81,1053.90 264.56,1053.90 266.30,1053.90 268.04,1053.90 269.79,509.76 271.53,509.76 273.27,509.76 275.01,509.76 276.76,509.76 278.50,509.76 280.24,509.76 281.99,509.76 283.73,509.76 285.47,509.76 287.21,509.76 288.96,509.76 290.70,509.76 292.44,509.76 294.19,509.76 295.93,509.76 297.67,509.76 299.41,509.76 301.16,509.76 302.90,1053.90 304.64,509.76 306.39,1053.90 308.13,1053.90 309.87,1053.90 311.61,509.76 313.36,509.76 315.10,509.76 316.84,509.76 318.59,509.76 320.33,509.76 322.07,509.76 323.81,509.76 325.56,509.76 327.30,509.76 329.04,509.76 330.79,509.76 332.53,509.76 334.27,509.76 336.01,1053.90 337.76,1053.90 339.50,1053.90 341.24,1053.90 342.99,1053.90 344.73,1053.90 346.47,1053.90 348.21,1053.90 349.96,1053.90 351.70,1053.90 353.44,1053.90 355.19,1053.90 356.93,1053.90 358.67,1053.90 360.41,1053.90 362.16,1053.90 363.90,1053.90 365.64,1053.90 367.39,509.76 369.13,509.76 370.87,509.76 372.61,509.76 374.36,509.76 376.10,1053.90 377.84,509.76 379.59,509.76 381.33,509.76 383.07,1053.90 384.81,1053.90 386.56,1053.90 388.30,509.76 390.04,509.76 391.79,509.76 393.53,509.76 395.27,1053.90 397.01,1053.90 398.76,1053.90 400.50,1053.90 402.24,1053.90 403.99,1053.90 405.73,1053.90 407.47,509.76 409.21,509.76 410.96,509.76 412.70,509.76 414.44,1053.90 416.19,509.76 417.93,509.76 419.67,1053.90 421.41,509.76 423.16,509.76 424.90,509.76 426.64,509.76 428.39,509.76 430.13,509.76 431.87,509.76 433.61,1053.90 435.36,509.76 437.10,1053.90 438.84,1053.90 440.59,1053.90 442.33,1053.90 444.07,1053.90 445.81,1053.90 447.56,509.76 449.30,509.76 451.04,509.76 452.79,509.76 454.53,509.76 456.27,509.76 458.01,509.76 459.76,509.76 461.50,509.76 463.24,509.76 464.99,509.76 466.73,509.76 468.47,509.76 470.21,1053.90 471.96,1053.90 473.70,509.76 475.44,1053.90 477.19,1053.90 478.93,1053.90 480.67,1053.90 482.41,1053.90 484.16,1053.90 485.90,1053.90 487.64,509.76 489.39,509.76 491.13,509.76 492.87,509.76 494.61,509.76 496.36,509.76 498.10,509.76 499.84,509.76 501.59,509.76 503.33,509.76 505.07,509.76 506.81,509.76 508.56,509.76 510.30,509.76 512.04,509.76 513.79,509.76 515.53,1053.90 517.27,509.76 519.01,1053.90 520.76,1053.90 522.50,1053.90 524.24,1053.90 525.99,1053.90 527.73,1053.90 529.47,1053.90 531.21,509.76 532.96,509.76 534.70,509.76 536.44,509.76 538.19,509.76 539.93,509.76 541.67,509.76 543.41,509.76 545.16,509.76 546.90,509.76 548.64,509.76 550.39,509.76 552.13,1053.90 553.87,509.76 555.61,509.76 557.36,509.76 559.10,1053.90 560.84,509.76 562.59,1053.90 564.33,1053.90 566.07,1053.90 567.81,1053.90 569.56,1053.90 571.30,509.76 573.04,509.76 574.79,509.76 576.53,1053.90 578.27,1053.90 580.01,1053.90 581.76,1053.90 583.50,1053.90 585.24,1053.90 586.99,1053.90 588.73,1053.90 590.47,1053.90 592.21,1053.90 593.96,1053.90 595.70,1053.90 597.44,1053.90 599.19,1053.90 600.93,1053.90 602.67,1053.90 604.41,1053.90 606.16,1053.90 607.90,1053.90 609.64,1053.90 611.39,1053.90 613.13,1053.90 614.87,1053.90 616.61,1053.90 618.36,1053.90 620.10,1053.90 621.84,1053.90 623.59,1053.90 625.33,1053.90 627.07,1053.90 628.81,1053.90 630.56,1053.90 632.30,1053.90 634.04,1053.90 635.79,1053.90 637.53,1053.90 639.27,1053.90 641.01,1053.90 642.76,1053.90 644.50,1053.90 646.24,1053.90 647.99,1053.90 649.73,1053.90 651.47,1053.90 653.21,1053.90 654.96,1053.90 656.70,1053.90 658.44,1053.90 660.19,1053.90 661.93,1053.90 663.67,1053.90 665.41,1053.90 667.16,1053.90 668.90,1053.90 670.64,1053.90 672.39,1053.90 674.13,1053.90 675.87,1053.90 677.61,1053.90 679.36,1053.90 681.10,1053.90 682.84,1053.90 684.59,1053.90 686.33,1053.90 688.07,1053.90 689.81,1053.90 691.56,1053.90 693.30,1053.90 695.04,1053.90 696.79,1053.90 698.53,1053.90 700.27,1053.90 702.01,1053.90 703.76,1053.90 705.50,1053.90 707.24,1053.90 708.99,1053.90 710.73,1053.90 712.47,1053.90 714.21,1053.90 715.96,1053.90 717.70,1053.90 719.44,1053.90 721.19,1053.90 722.93,1053.90 724.67,1053.90 726.41,1053.90 728.16,1053.90 729.90,1053.90 731.64,1053.90 733.39,1053.90 735.13,1053.90 736.87,1053.90 738.61,1053.90 740.36,1053.90 742.10,1053.90 743.84,1053.90 745.59,1053.90 747.33,1053.90 749.07,1053.90 750.81,1053.90 752.56,1053.90 754.30,1053.90 756.04,1053.90 757.79,1053.90 759.53,1053.90 761.27,1053.90 763.01,1053.90 764.76,1053.90 766.50,1053.90 768.24,1053.90 769.99,1053.90 771.73,1053.90 773.47,1053.90 775.21,1053.90 776.96,1053.90 778.70,1053.90 780.44,1053.90 782.19,1053.90 783.93,1053.90 785.67,1053.90 787.41,1053.90 789.16,1053.90 790.90,1053.90 792.64,1053.90 794.39,1053.90 796.13,1053.90 797.87,1053.90 799.61,1053.90 801.36,1053.90 803.10,1053.90 804.84,1053.90 806.59,1053.90 808.33,1053.90 810.07,1053.90 811.81,1053.90 813.56,1053.90 815.30,1053.90 817.04,509.76 818.79,509.76 820.53,509.76 822.27,509.76 824.01,509.76 825.76,509.76 827.50,509.76 829.24,509.76 830.99,509.76 832.73,509.76 834.47,509.76 836.21,509.76 837.96,509.76 839.70,509.76 841.44,509.76 843.19,509.76 844.93,509.76 846.67,1053.90 848.41,509.76 850.16,1053.90 851.90,509.76 853.64,509.76 855.39,509.76 857.13,509.76 858.87,509.76 860.61,509.76 862.36,509.76 864.10,509.76 865.84,509.76 867.59,1053.90 869.33,1053.90 871.07,1053.90 872.81,1053.90 874.56,1053.90 876.30,1053.90 878.04,1053.90 879.79,1053.90 881.53,1053.90 883.27,1053.90 885.01,1053.90 886.76,1053.90 888.50,1053.90 890.24,1053.90 891.99,1053.90 893.73,1053.90 895.47,1053.90 897.21,1053.90 898.96,1053.90 900.70,1053.90 902.44,1053.90 904.19,1053.90 905.93,1053.90 907.67,1053.90 909.41,1053.90 911.16,1053.90 912.90,1053.90 914.64,1053.90 916.39,1053.90 918.13,1053.90 919.87,1053.90 921.61,1053.90 923.36,1053.90 925.10,1053.90 926.84,1053.90 928.59,1053.90 930.33,1053.90 932.07,1053.90 933.81,1053.90 935.56,1053.90 937.30,1053.90 939.04,1053.90 940.79,1053.90 942.53,1053.90 944.27,1053.90 946.01,1053.90 947.76,1053.90 949.50,1053.90 951.24,1053.90 952.99,1053.90 954.73,1053.90 956.47,1053.90 958.21,1053.90 959.96,1053.90 961.70,1053.90 963.44,1053.90 965.19,1053.90 966.93,1053.90 968.67,1053.90 970.41,1053.90 972.16,1053.90 973.90,1053.90 975.64,1053.90 977.39,1053.90 979.13,1053.90 980.87,1053.90 982.61,1053.90 984.36,1053.90 986.10,1053.90 987.84,1053.90 989.59,1053.90 991.33,1053.90 993.07,1053.90 994.81,1053.90 996.56,1053.90 998.30,1053.90 1000.04,1053.90 1001.79,1053.90 1003.53,1053.90 1005.27,1053.90 1007.01,1053.90 1008.76,1053.90 1010.50,1053.90 1012.24,1053.90 1013.99,1053.90 1015.73,1053.90 1017.47,1053.90 1019.21,1053.90 1020.96,1053.90 1022.70,1053.90 1024.44,1053.90 1026.19,1053.90 1027.93,1053.90 1029.67,1053.90 1031.41,1053.90 1033.16,1053.90 1034.90,1053.90 1036.64,1053.90 1038.39,1053.90 1040.13,1053.90 1041.87,1053.90 1043.61,1053.90 1045.36,509.76 1047.10,509.76 1048.84,509.76 1050.59,509.76 1052.33,509.76 1054.07,509.76 1055.81,509.76 1057.56,509.76 1059.30,509.76 1061.04,509.76 1062.79,1053.90 1064.53,509.76 1066.27,1053.90 1068.01,509.76 1069.76,1053.90 1071.50,1053.90 1073.24,1053.90 1074.99,1053.90 1076.73,509.76 1078.47,1053.90 1080.21,509.76 1081.96,509.76 1083.70,1053.90 1085.44,1053.90 1087.19,509.76 1088.93,1053.90 1090.67,509.76 1092.41,1053.90 1094.16,509.76 1095.90,1053.90 1097.64,509.76 1099.39,509.76 1101.13,1053.90 1102.87,509.76 1104.61,1053.90 1106.36,509.76 1108.10,1053.90 1109.84,509.76 1111.59,509.76 1113.33,1053.90 1115.07,1053.90 1116.81,1053.90 1118.56,1053.90 1120.30,1053.90 1122.04,1053.90 1123.79,509.76 1125.53,509.76 1127.27,509.76 1129.01,509.76 1130.76,509.76 1132.50,509.76 1134.24,509.76 1135.99,509.76 1137.73,509.76 1139.47,509.76 1141.21,509.76 1142.96,509.76 1144.70,509.76 1146.44,509.76 1148.19,1053.90 1149.93,1053.90 1151.67,509.76 1153.41,1053.90 1155.16,1053.90 1156.90,509.76 1158.64,509.76 1160.39,509.76 1162.13,509.76 1163.87,509.76 1165.61,509.76 1167.36,509.76 1169.10,509.76 1170.84,509.76 1172.59,509.76 1174.33,509.76 1176.07,509.76 1177.81,509.76 1179.56,509.76 1181.30,509.76 1183.04,509.76 1184.79,509.76 1186.53,509.76 1188.27,509.76 1190.01,1053.90 1191.76,509.76 1193.50,509.76 1195.24,1053.90 1196.99,1053.90 1198.73,509.76 1200.47,1053.90 1202.21,509.76 1203.96,509.76 1205.70,509.76 1207.44,509.76 1209.19,509.76 1210.93,509.76 1212.67,509.76 1214.41,509.76 1216.16,509.76 1217.90,509.76 1219.64,509.76 1221.39,509.76 1223.13,1053.90 1224.87,1053.90 1226.61,1053.90 1228.36,1053.90 1230.10,1053.90 1231.84,1053.90 1233.59,1053.90 1235.33,1053.90 1237.07,1053.90 1238.81,1053.90 1240.56,1053.90 1242.30,1053.90 1244.04,1053.90 1245.79,1053.90 1247.53,1053.90 1249.27,1053.90 1251.01,1053.90 1252.76,1053.90 1254.50,1053.90 1256.24,1053.90 1257.99,1053.90 1259.73,1053.90 1261.47,1053.90 1263.21,1053.90 1264.96,1053.90 1266.70,1053.90 1268.44,1053.90 1270.19,1053.90 1271.93,1053.90 1273.67,1053.90 1275.41,1053.90 1277.16,1053.90 1278.90,1053.90 1280.64,1053.90 1282.39,1053.90 1284.13,1053.90 1285.87,1053.90 1287.61,1053.90 1289.36,1053.90 1291.10,1053.90 1292.84,509.76 1294.59,509.76 1296.33,509.76 1298.07,509.76 1299.81,509.76 1301.56,509.76 1303.30,509.76 1305.04,509.76 1306.79,509.76 1308.53,509.76 1310.27,509.76 1312.01,509.76 1313.76,509.76 1315.50,509.76 1317.24,509.76 1318.99,1053.90 1320.73,1053.90 1322.47,1053.90 1324.21,1053.90 1325.96,1053.90 1327.70,509.76 1329.44,509.76 1331.19,509.76 1332.93,509.76 1334.67,509.76 1336.41,509.76 1338.16,509.76 1339.90,509.76 1341.64,509.76 1343.39,509.76 1345.13,509.76 1346.87,509.76 1348.61,509.76 1350.36,509.76 1352.10,509.76 1353.84,509.76 1355.59,1053.90 1357.33,509.76 1359.07,509.76 1360.81,509.76 1362.56,509.76 1364.30,509.76 1366.04,509.76 1367.79,509.76 1369.53,509.76 1371.27,509.76 1373.01,509.76 1374.76,509.76 1376.50,1053.90 1378.24,1053.90 1379.99,509.76 1381.73,1053.90 1383.47,1053.90 1385.21,1053.90 1386.96,1053.90 1388.70,509.76 1390.44,509.76 1392.19,509.76 1393.93,509.76 1395.67,509.76 1397.41,509.76 1399.16,509.76 1400.90,509.76 1402.64,509.76 1404.39,509.76 1406.13,509.76 1407.87,509.76 1409.61,509.76 1411.36,509.76 1413.10,509.76 1414.84,509.76 1416.59,509.76 1418.33,509.76 1420.07,1053.90 1421.81,1053.90 1423.56,1053.90 1425.30,1053.90 1427.04,1053.90 1428.79,1053.90 1430.53,509.76 1432.27,509.76 1434.01,509.76 1435.76,509.76 1437.50,509.76 1439.24,509.76 1440.99,509.76 1442.73,509.76 1444.47,509.76 1446.21,509.76 1447.96,509.76 1449.70,509.76 1451.44,509.76 1453.19,509.76 1454.93,509.76 1456.67,509.76 1458.41,1053.90 1460.16,509.76 1461.90,509.76 1463.64,1053.90 1465.39,509.76 1467.13,509.76 1468.87,509.76 1470.61,509.76 1472.36,509.76 1474.10,509.76 1475.84,509.76 1477.59,509.76 1479.33,509.76 1481.07,509.76 1482.81,1053.90 1484.56,1053.90 1486.30,509.76 1488.04,509.76 1489.79,509.76 1491.53,509.76 1493.27,509.76 1495.01,509.76 1496.76,509.76 1498.50,509.76 1500.24,509.76 1501.99,509.76 1503.73,509.76 1505.47,509.76 1507.21,1053.90 1508.96,1053.90 1510.70,509.76 1512.44,509.76 1514.19,509.76 1515.93,509.76 1517.67,509.76 1519.41,1053.90 1521.16,1053.90 1522.90,509.76 1524.64,1053.90 1526.39,1053.90 1528.13,509.76 1529.87,509.76 1531.61,509.76 1533.36,509.76 1535.10,509.76 1536.84,509.76 1538.59,509.76 1540.33,509.76 1542.07,509.76 1543.81,509.76 1545.56,509.76 1547.30,509.76" style="stroke-width: 0.75;"/>
</g><g clip-path="url(#c2)">
<g><text x="833.60" y="34.67" text-anchor="middle" style="font-family: Arial;font-size: 14.40px;font-weight: bold;" textLength="184.74px" lengthAdjust="spacingAndGlyphs">Forecasts from ETS(A,N,N)</text></g>
<line x1="148.66" y1="1092.16" x2="1576.06" y2="1092.16" style="stroke-width: 0.75;"/>
<line x1="148.66" y1="1092.16" x2="148.66" y2="1099.36" style="stroke-width: 0.75;"/>
<line x1="386.56" y1="1092.16" x2="386.56" y2="1099.36" style="stroke-width: 0.75;"/>
<line x1="624.46" y1="1092.16" x2="624.46" y2="1099.36" style="stroke-width: 0.75;"/>
<line x1="862.36" y1="1092.16" x2="862.36" y2="1099.36" style="stroke-width: 0.75;"/>
<line x1="1100.26" y1="1092.16" x2="1100.26" y2="1099.36" style="stroke-width: 0.75;"/>
<line x1="1338.16" y1="1092.16" x2="1338.16" y2="1099.36" style="stroke-width: 0.75;"/>
<line x1="1576.06" y1="1092.16" x2="1576.06" y2="1099.36" style="stroke-width: 0.75;"/>
<g><text x="148.66" y="1118.08" text-anchor="middle" style="font-family: Arial;font-size: 12.00px;" textLength="36.71px" lengthAdjust="spacingAndGlyphs">2020.5</text></g>
<g><text x="386.56" y="1118.08" text-anchor="middle" style="font-family: Arial;font-size: 12.00px;" textLength="36.71px" lengthAdjust="spacingAndGlyphs">2021.0</text></g>
<g><text x="624.46" y="1118.08" text-anchor="middle" style="font-family: Arial;font-size: 12.00px;" textLength="36.71px" lengthAdjust="spacingAndGlyphs">2021.5</text></g>
<g><text x="862.36" y="1118.08" text-anchor="middle" style="font-family: Arial;font-size: 12.00px;" textLength="36.71px" lengthAdjust="spacingAndGlyphs">2022.0</text></g>
<g><text x="1100.26" y="1118.08" text-anchor="middle" style="font-family: Arial;font-size: 12.00px;" textLength="36.71px" lengthAdjust="spacingAndGlyphs">2022.5</text></g>
<g><text x="1338.16" y="1118.08" text-anchor="middle" style="font-family: Arial;font-size: 12.00px;" textLength="36.71px" lengthAdjust="spacingAndGlyphs">2023.0</text></g>
<g><text x="1576.06" y="1118.08" text-anchor="middle" style="font-family: Arial;font-size: 12.00px;" textLength="36.71px" lengthAdjust="spacingAndGlyphs">2023.5</text></g>
<line x1="59.04" y1="1053.90" x2="59.04" y2="237.70" style="stroke-width: 0.75;"/>
<line x1="59.04" y1="1053.90" x2="51.84" y2="1053.90" style="stroke-width: 0.75;"/>
<line x1="59.04" y1="781.83" x2="51.84" y2="781.83" style="stroke-width: 0.75;"/>
<line x1="59.04" y1="509.76" x2="51.84" y2="509.76" style="stroke-width: 0.75;"/>
<line x1="59.04" y1="237.70" x2="51.84" y2="237.70" style="stroke-width: 0.75;"/>
<g><text transform="translate(41.76,1053.90) rotate(-90.00)" text-anchor="middle" style="font-family: Arial;font-size: 12.00px;" textLength="16.68px" lengthAdjust="spacingAndGlyphs">0.0</text></g>
<g><text transform="translate(41.76,781.83) rotate(-90.00)" text-anchor="middle" style="font-family: Arial;font-size: 12.00px;" textLength="16.68px" lengthAdjust="spacingAndGlyphs">0.5</text></g>
<g><text transform="translate(41.76,509.76) rotate(-90.00)" text-anchor="middle" style="font-family: Arial;font-size: 12.00px;" textLength="16.68px" lengthAdjust="spacingAndGlyphs">1.0</text></g>
<g><text transform="translate(41.76,237.70) rotate(-90.00)" text-anchor="middle" style="font-family: Arial;font-size: 12.00px;" textLength="16.68px" lengthAdjust="spacingAndGlyphs">1.5</text></g>
<polygon points="59.04,1092.16 1608.16,1092.16 1608.16,59.04 59.04,59.04" style="stroke-width: 0.75;" />
</g><g clip-path="url(#c3)">
<polygon points="1548.17,875.39 1549.91,875.39 1549.91,144.27 1548.17,144.27" style="stroke-width: 0.75;stroke: none;fill: #DBDBDF;" />
<polygon points="1549.91,922.35 1551.66,922.35 1551.66,97.30 1549.91,97.30" style="stroke-width: 0.75;stroke: none;fill: #DBDBDF;" />
<polygon points="1548.17,748.86 1549.91,748.86 1549.91,270.80 1548.17,270.80" style="stroke-width: 0.75;stroke: none;fill: #B1B5CE;" />
<polygon points="1549.91,779.56 1551.66,779.56 1551.66,240.09 1549.91,240.09" style="stroke-width: 0.75;stroke: none;fill: #B1B5CE;" />
<circle cx="1549.04" cy="509.83" r="2.70" style="stroke-width: 0.75;stroke: #2297E6;fill: #2297E6;"/>
<circle cx="1550.79" cy="509.83" r="2.70" style="stroke-width: 0.75;stroke: #2297E6;fill: #2297E6;"/>
</g>
</svg>