<svg xmlns="http://www.w3.org/2000/svg" xmlns:xlink="http://www.w3.org/1999/xlink" class="httpgd" width="2048.00" height="1457.00" viewBox="0 0 1638.40 1165.60">
<defs>
  <style type='text/css'><![CDATA[
    .httpgd line, .httpgd polyline, .httpgd polygon, .httpgd path, .httpgd rect, .httpgd circle {
      fill: none;
      stroke: #000000;
      stroke-linecap: round;
      stroke-linejoin: round;
      stroke-miterlimit: 10.00;
    }
  ]]></style>
<clipPath id="c0"><rect x="0.00" y="0.00" width="1638.40" height="1165.60"/></clipPath>
<clipPath id="c1"><rect x="59.04" y="59.04" width="1549.12" height="1033.12"/></clipPath>
<clipPath id="c2"><rect x="0.00" y="0.00" width="1638.40" height="1165.60"/></clipPath>
<clipPath id="c3"><rect x="59.04" y="59.04" width="1549.12" height="1033.12"/></clipPath>
</defs>
<rect width="100%" height="100%" style="stroke: none;fill: #FFFFFF;"/>
<g clip-path="url(#c0)">
</g><g clip-path="url(#c1)">
<polyline points="116.41,1053.90 118.16,1053.90 119.90,1053.90 121.64,1053.90 123.39,1053.90 125.13,1053.90 126.87,1053.90 128.61,1053.90 130.36,1053.90 132.10,1053.90 133.84,1053.90 135.59,1053.90 137.33,1053.90 139.07,1053.90 140.81,1053.90 142.56,1053.90 144.30,1053.90 146.04,1053.90 147.79,1053.90 149.53,1053.90 151.27,1053.90 153.01,1053.90 154.76,1053.90 156.50,1053.90 158.24,1053.90 159.99,1053.90 161.73,1053.90 163.47,1053.90 165.21,1053.90 166.96,1053.90 168.70,1053.90 170.44,1053.90 172.19,1053.90 173.93,1053.90 175.67,1053.90 177.41,1053.90 179.16,1053.90 180.90,1053.90 182.64,1053.90 184.39,1053.90 186.13,1053.90 187.87,1053.90 189.61,1053.90 191.36,1053.90 193.10,1053.90 194.84,1053.90 196.59,1053.90 198.33,1053.90 200.07,1053.90 201.81,1053.90 203.56,1053.90 205.30,1053.90 207.04,1053.90 208.79,1053.90 210.53,1053.90 212.27,1053.90 214.01,1053.90 215.76,1053.90 217.50,1053.90 219.24,1053.90 220.99,1053.90 222.73,1053.90 224.47,1053.90 226.21,1053.90 227.96,1053.90 229.70,1053.90 231.44,1053.90 233.19,1053.90 234.93,1053.90 236.67,1053.90 238.41,1053.90 240.16,1053.90 241.90,1053.90 243.64,1053.90 245.39,1053.90 247.13,1053.90 248.87,1053.90 250.61,1053.90 252.36,1053.90 254.10,1053.90 255.84,1053.90 257.59,1053.90 259.33,1053.90 261.07,1053.90 262.81,1053.90 264.56,1053.90 266.30,1053.90 268.04,1053.90 269.79,1053.90 271.53,1053.90 273.27,1053.90 275.01,1053.90 276.76,1053.90 278.50,353.08 280.24,353.08 281.99,353.08 283.73,353.08 285.47,353.08 287.21,353.08 288.96,353.08 290.70,353.08 292.44,353.08 294.19,353.08 295.93,353.08 297.67,353.08 299.41,353.08 301.16,353.08 302.90,353.08 304.64,353.08 306.39,353.08 308.13,353.08 309.87,353.08 311.61,353.08 313.36,353.08 315.10,353.08 316.84,353.08 318.59,353.08 320.33,353.08 322.07,353.08 323.81,353.08 325.56,353.08 327.30,353.08 329.04,353.08 330.79,353.08 332.53,353.08 334.27,353.08 336.01,1053.90 337.76,1053.90 339.50,1053.90 341.24,1053.90 342.99,1053.90 344.73,1053.90 346.47,1053.90 348.21,1053.90 349.96,1053.90 351.70,1053.90 353.44,1053.90 355.19,1053.90 356.93,1053.90 358.67,1053.90 360.41,1053.90 362.16,1053.90 363.90,1053.90 365.64,1053.90 367.39,353.08 369.13,353.08 370.87,353.08 372.61,353.08 374.36,353.08 376.10,353.08 377.84,353.08 379.59,353.08 381.33,353.08 383.07,353.08 384.81,353.08 386.56,353.08 388.30,353.08 390.04,353.08 391.79,353.08 393.53,353.08 395.27,353.08 397.01,353.08 398.76,353.08 400.50,353.08 402.24,353.08 403.99,353.08 405.73,353.08 407.47,353.08 409.21,353.08 410.96,353.08 412.70,353.08 414.44,1053.90 416.19,353.08 417.93,353.08 419.67,353.08 421.41,353.08 423.16,353.08 424.90,353.08 426.64,353.08 428.39,353.08 430.13,353.08 431.87,353.08 433.61,353.08 435.36,353.08 437.10,353.08 438.84,353.08 440.59,353.08 442.33,353.08 444.07,353.08 445.81,353.08 447.56,353.08 449.30,353.08 451.04,353.08 452.79,353.08 454.53,353.08 456.27,353.08 458.01,353.08 459.76,353.08 461.50,353.08 463.24,353.08 464.99,353.08 466.73,353.08 468.47,353.08 470.21,1053.90 471.96,353.08 473.70,353.08 475.44,353.08 477.19,353.08 478.93,353.08 480.67,353.08 482.41,353.08 484.16,353.08 485.90,353.08 487.64,353.08 489.39,353.08 491.13,353.08 492.87,353.08 494.61,353.08 496.36,353.08 498.10,353.08 499.84,353.08 501.59,353.08 503.33,353.08 505.07,353.08 506.81,353.08 508.56,353.08 510.30,353.08 512.04,353.08 513.79,353.08 515.53,353.08 517.27,353.08 519.01,353.08 520.76,353.08 522.50,353.08 524.24,353.08 525.99,353.08 527.73,353.08 529.47,353.08 531.21,353.08 532.96,353.08 534.70,353.08 536.44,353.08 538.19,353.08 539.93,353.08 541.67,353.08 543.41,353.08 545.16,353.08 546.90,353.08 548.64,353.08 550.39,353.08 552.13,353.08 553.87,353.08 555.61,353.08 557.36,353.08 559.10,353.08 560.84,353.08 562.59,353.08 564.33,353.08 566.07,1053.90 567.81,1053.90 569.56,353.08 571.30,1053.90 573.04,353.08 574.79,353.08 576.53,353.08 578.27,353.08 580.01,353.08 581.76,353.08 583.50,353.08 585.24,353.08 586.99,353.08 588.73,353.08 590.47,353.08 592.21,353.08 593.96,353.08 595.70,353.08 597.44,353.08 599.19,353.08 600.93,353.08 602.67,353.08 604.41,353.08 606.16,353.08 607.90,353.08 609.64,353.08 611.39,353.08 613.13,353.08 614.87,353.08 616.61,353.08 618.36,353.08 620.10,353.08 621.84,353.08 623.59,353.08 625.33,353.08 627.07,353.08 628.81,353.08 630.56,353.08 632.30,353.08 634.04,353.08 635.79,353.08 637.53,353.08 639.27,353.08 641.01,353.08 642.76,353.08 644.50,353.08 646.24,353.08 647.99,353.08 649.73,353.08 651.47,353.08 653.21,353.08 654.96,353.08 656.70,353.08 658.44,353.08 660.19,353.08 661.93,353.08 663.67,353.08 665.41,353.08 667.16,353.08 668.90,353.08 670.64,353.08 672.39,353.08 674.13,353.08 675.87,353.08 677.61,353.08 679.36,353.08 681.10,1053.90 682.84,1053.90 684.59,1053.90 686.33,1053.90 688.07,1053.90 689.81,1053.90 691.56,1053.90 693.30,1053.90 695.04,1053.90 696.79,1053.90 698.53,1053.90 700.27,1053.90 702.01,1053.90 703.76,1053.90 705.50,1053.90 707.24,1053.90 708.99,1053.90 710.73,1053.90 712.47,1053.90 714.21,1053.90 715.96,1053.90 717.70,1053.90 719.44,1053.90 721.19,1053.90 722.93,1053.90 724.67,1053.90 726.41,1053.90 728.16,1053.90 729.90,1053.90 731.64,1053.90 733.39,353.08 735.13,353.08 736.87,353.08 738.61,353.08 740.36,353.08 742.10,353.08 743.84,353.08 745.59,353.08 747.33,353.08 749.07,353.08 750.81,353.08 752.56,353.08 754.30,353.08 756.04,353.08 757.79,353.08 759.53,353.08 761.27,353.08 763.01,353.08 764.76,353.08 766.50,353.08 768.24,353.08 769.99,353.08 771.73,353.08 773.47,353.08 775.21,353.08 776.96,353.08 778.70,353.08 780.44,353.08 782.19,353.08 783.93,353.08 785.67,353.08 787.41,353.08 789.16,353.08 790.90,353.08 792.64,353.08 794.39,353.08 796.13,353.08 797.87,353.08 799.61,353.08 801.36,353.08 803.10,353.08 804.84,353.08 806.59,353.08 808.33,353.08 810.07,353.08 811.81,353.08 813.56,353.08 815.30,353.08 817.04,353.08 818.79,353.08 820.53,353.08 822.27,353.08 824.01,353.08 825.76,353.08 827.50,353.08 829.24,353.08 830.99,353.08 832.73,353.08 834.47,353.08 836.21,353.08 837.96,353.08 839.70,353.08 841.44,353.08 843.19,353.08 844.93,353.08 846.67,353.08 848.41,353.08 850.16,353.08 851.90,353.08 853.64,353.08 855.39,353.08 857.13,353.08 858.87,353.08 860.61,353.08 862.36,353.08 864.10,353.08 865.84,353.08 867.59,1053.90 869.33,1053.90 871.07,1053.90 872.81,1053.90 874.56,1053.90 876.30,1053.90 878.04,1053.90 879.79,1053.90 881.53,1053.90 883.27,1053.90 885.01,1053.90 886.76,1053.90 888.50,1053.90 890.24,1053.90 891.99,1053.90 893.73,1053.90 895.47,1053.90 897.21,1053.90 898.96,1053.90 900.70,1053.90 902.44,1053.90 904.19,1053.90 905.93,1053.90 907.67,1053.90 909.41,1053.90 911.16,1053.90 912.90,1053.90 914.64,1053.90 916.39,1053.90 918.13,1053.90 919.87,1053.90 921.61,1053.90 923.36,1053.90 925.10,1053.90 926.84,1053.90 928.59,1053.90 930.33,1053.90 932.07,1053.90 933.81,1053.90 935.56,1053.90 937.30,1053.90 939.04,1053.90 940.79,1053.90 942.53,1053.90 944.27,1053.90 946.01,1053.90 947.76,1053.90 949.50,1053.90 951.24,1053.90 952.99,1053.90 954.73,1053.90 956.47,1053.90 958.21,1053.90 959.96,1053.90 961.70,1053.90 963.44,1053.90 965.19,1053.90 966.93,1053.90 968.67,1053.90 970.41,1053.90 972.16,1053.90 973.90,1053.90 975.64,1053.90 977.39,1053.90 979.13,1053.90 980.87,1053.90 982.61,1053.90 984.36,1053.90 986.10,1053.90 987.84,1053.90 989.59,1053.90 991.33,1053.90 993.07,1053.90 994.81,1053.90 996.56,1053.90 998.30,1053.90 1000.04,1053.90 1001.79,1053.90 1003.53,1053.90 1005.27,1053.90 1007.01,1053.90 1008.76,1053.90 1010.50,1053.90 1012.24,1053.90 1013.99,1053.90 1015.73,1053.90 1017.47,1053.90 1019.21,1053.90 1020.96,1053.90 1022.70,1053.90 1024.44,1053.90 1026.19,1053.90 1027.93,1053.90 1029.67,1053.90 1031.41,1053.90 1033.16,1053.90 1034.90,1053.90 1036.64,1053.90 1038.39,1053.90 1040.13,1053.90 1041.87,1053.90 1043.61,353.08 1045.36,353.08 1047.10,353.08 1048.84,353.08 1050.59,353.08 1052.33,353.08 1054.07,353.08 1055.81,353.08 1057.56,353.08 1059.30,353.08 1061.04,353.08 1062.79,353.08 1064.53,353.08 1066.27,353.08 1068.01,353.08 1069.76,353.08 1071.50,353.08 1073.24,353.08 1074.99,353.08 1076.73,353.08 1078.47,353.08 1080.21,353.08 1081.96,353.08 1083.70,353.08 1085.44,353.08 1087.19,353.08 1088.93,353.08 1090.67,353.08 1092.41,353.08 1094.16,353.08 1095.90,353.08 1097.64,353.08 1099.39,353.08 1101.13,353.08 1102.87,353.08 1104.61,353.08 1106.36,353.08 1108.10,353.08 1109.84,353.08 1111.59,353.08 1113.33,353.08 1115.07,353.08 1116.81,353.08 1118.56,353.08 1120.30,353.08 1122.04,353.08 1123.79,353.08 1125.53,353.08 1127.27,353.08 1129.01,353.08 1130.76,353.08 1132.50,353.08 1134.24,353.08 1135.99,353.08 1137.73,353.08 1139.47,353.08 1141.21,353.08 1142.96,353.08 1144.70,353.08 1146.44,353.08 1148.19,353.08 1149.93,353.08 1151.67,353.08 1153.41,353.08 1155.16,353.08 1156.90,353.08 1158.64,353.08 1160.39,353.08 1162.13,353.08 1163.87,353.08 1165.61,353.08 1167.36,353.08 1169.10,353.08 1170.84,353.08 1172.59,353.08 1174.33,353.08 1176.07,353.08 1177.81,353.08 1179.56,353.08 1181.30,353.08 1183.04,353.08 1184.79,353.08 1186.53,353.08 1188.27,353.08 1190.01,353.08 1191.76,353.08 1193.50,353.08 1195.24,353.08 1196.99,353.08 1198.73,353.08 1200.47,353.08 1202.21,353.08 1203.96,353.08 1205.70,353.08 1207.44,353.08 1209.19,353.08 1210.93,353.08 1212.67,353.08 1214.41,353.08 1216.16,353.08 1217.90,353.08 1219.64,353.08 1221.39,353.08 1223.13,1053.90 1224.87,1053.90 1226.61,1053.90 1228.36,1053.90 1230.10,1053.90 1231.84,1053.90 1233.59,1053.90 1235.33,1053.90 1237.07,1053.90 1238.81,1053.90 1240.56,1053.90 1242.30,1053.90 1244.04,1053.90 1245.79,1053.90 1247.53,1053.90 1249.27,1053.90 1251.01,1053.90 1252.76,1053.90 1254.50,1053.90 1256.24,1053.90 1257.99,1053.90 1259.73,1053.90 1261.47,1053.90 1263.21,1053.90 1264.96,1053.90 1266.70,1053.90 1268.44,1053.90 1270.19,1053.90 1271.93,1053.90 1273.67,1053.90 1275.41,1053.90 1277.16,1053.90 1278.90,1053.90 1280.64,1053.90 1282.39,1053.90 1284.13,1053.90 1285.87,1053.90 1287.61,1053.90 1289.36,1053.90 1291.10,1053.90 1292.84,353.08 1294.59,353.08 1296.33,353.08 1298.07,353.08 1299.81,353.08 1301.56,353.08 1303.30,353.08 1305.04,353.08 1306.79,353.08 1308.53,353.08 1310.27,353.08 1312.01,353.08 1313.76,353.08 1315.50,353.08 1317.24,353.08 1318.99,353.08 1320.73,353.08 1322.47,353.08 1324.21,353.08 1325.96,353.08 1327.70,353.08 1329.44,353.08 1331.19,353.08 1332.93,353.08 1334.67,353.08 1336.41,353.08 1338.16,353.08 1339.90,353.08 1341.64,353.08 1343.39,353.08 1345.13,353.08 1346.87,353.08 1348.61,353.08 1350.36,353.08 1352.10,353.08 1353.84,353.08 1355.59,353.08 1357.33,353.08 1359.07,353.08 1360.81,353.08 1362.56,353.08 1364.30,353.08 1366.04,353.08 1367.79,353.08 1369.53,353.08 1371.27,353.08 1373.01,353.08 1374.76,353.08 1376.50,353.08 1378.24,353.08 1379.99,353.08 1381.73,353.08 1383.47,353.08 1385.21,353.08 1386.96,353.08 1388.70,353.08 1390.44,353.08 1392.19,353.08 1393.93,353.08 1395.67,353.08 1397.41,353.08 1399.16,353.08 1400.90,353.08 1402.64,353.08 1404.39,353.08 1406.13,353.08 1407.87,353.08 1409.61,353.08 1411.36,353.08 1413.10,353.08 1414.84,353.08 1416.59,353.08 1418.33,353.08 1420.07,353.08 1421.81,353.08 1423.56,353.08 1425.30,353.08 1427.04,353.08 1428.79,353.08 1430.53,353.08 1432.27,353.08 1434.01,353.08 1435.76,353.08 1437.50,353.08 1439.24,353.08 1440.99,353.08 1442.73,353.08 1444.47,353.08 1446.21,353.08 1447.96,353.08 1449.70,353.08 1451.44,353.08 1453.19,353.08 1454.93,353.08 1456.67,353.08 1458.41,1053.90 1460.16,353.08 1461.90,353.08 1463.64,353.08 1465.39,353.08 1467.13,353.08 1468.87,353.08 1470.61,353.08 1472.36,353.08 1474.10,353.08 1475.84,353.08 1477.59,353.08 1479.33,353.08 1481.07,353.08 1482.81,353.08 1484.56,353.08 1486.30,353.08 1488.04,353.08 1489.79,353.08 1491.53,353.08 1493.27,353.08 1495.01,353.08 1496.76,353.08 1498.50,353.08 1500.24,353.08 1501.99,353.08 1503.73,353.08 1505.47,353.08 1507.21,353.08 1508.96,353.08 1510.70,353.08 1512.44,353.08 1514.19,353.08 1515.93,353.08 1517.67,353.08 1519.41,353.08 1521.16,353.08 1522.90,353.08 1524.64,1053.90 1526.39,353.08 1528.13,353.08 1529.87,353.08 1531.61,353.08 1533.36,353.08 1535.10,353.08 1536.84,353.08 1538.59,353.08 1540.33,353.08 1542.07,353.08 1543.81,353.08 1545.56,353.08 1547.30,353.08" style="stroke-width: 0.75;"/>
</g><g clip-path="url(#c2)">
<g><text x="833.60" y="34.67" text-anchor="middle" style="font-family: Arial;font-size: 14.40px;font-weight: bold;" textLength="184.74px" lengthAdjust="spacingAndGlyphs">Forecasts from ETS(A,N,N)</text></g>
<line x1="148.66" y1="1092.16" x2="1576.06" y2="1092.16" style="stroke-width: 0.75;"/>
<line x1="148.66" y1="1092.16" x2="148.66" y2="1099.36" style="stroke-width: 0.75;"/>
<line x1="386.56" y1="1092.16" x2="386.56" y2="1099.36" style="stroke-width: 0.75;"/>
<line x1="624.46" y1="1092.16" x2="624.46" y2="1099.36" style="stroke-width: 0.75;"/>
<line x1="862.36" y1="1092.16" x2="862.36" y2="1099.36" style="stroke-width: 0.75;"/>
<line x1="1100.26" y1="1092.16" x2="1100.26" y2="1099.36" style="stroke-width: 0.75;"/>
<line x1="1338.16" y1="1092.16" x2="1338.16" y2="1099.36" style="stroke-width: 0.75;"/>
<line x1="1576.06" y1="1092.16" x2="1576.06" y2="1099.36" style="stroke-width: 0.75;"/>
<g><text x="148.66" y="1118.08" text-anchor="middle" style="font-family: Arial;font-size: 12.00px;" textLength="36.71px" lengthAdjust="spacingAndGlyphs">2020.5</text></g>
<g><text x="386.56" y="1118.08" text-anchor="middle" style="font-family: Arial;font-size: 12.00px;" textLength="36.71px" lengthAdjust="spacingAndGlyphs">2021.0</text></g>
<g><text x="624.46" y="1118.08" text-anchor="middle" style="font-family: Arial;font-size: 12.00px;" textLength="36.71px" lengthAdjust="spacingAndGlyphs">2021.5</text></g>
<g><text x="862.36" y="1118.08" text-anchor="middle" style="font-family: Arial;font-size: 12.00px;" textLength="36.71px" lengthAdjust="spacingAndGlyphs">2022.0</text></g>
<g><text x="1100.26" y="1118.08" text-anchor="middle" style="font-family: Arial;font-size: 12.00px;" textLength="36.71px" lengthAdjust="spacingAndGlyphs">2022.5</text></g>
<g><text x="1338.16" y="1118.08" text-anchor="middle" style="font-family: Arial;font-size: 12.00px;" textLength="36.71px" lengthAdjust="spacingAndGlyphs">2023.0</text></g>
<g><text x="1576.06" y="1118.08" text-anchor="middle" style="font-family: Arial;font-size: 12.00px;" textLength="36.71px" lengthAdjust="spacingAndGlyphs">2023.5</text></g>
<line x1="59.04" y1="1053.90" x2="59.04" y2="72.76" style="stroke-width: 0.75;"/>
<line x1="59.04" y1="1053.90" x2="51.84" y2="1053.90" style="stroke-width: 0.75;"/>
<line x1="59.04" y1="913.73" x2="51.84" y2="913.73" style="stroke-width: 0.75;"/>
<line x1="59.04" y1="773.57" x2="51.84" y2="773.57" style="stroke-width: 0.75;"/>
<line x1="59.04" y1="633.41" x2="51.84" y2="633.41" style="stroke-width: 0.75;"/>
<line x1="59.04" y1="493.25" x2="51.84" y2="493.25" style="stroke-width: 0.75;"/>
<line x1="59.04" y1="353.08" x2="51.84" y2="353.08" style="stroke-width: 0.75;"/>
<line x1="59.04" y1="212.92" x2="51.84" y2="212.92" style="stroke-width: 0.75;"/>
<line x1="59.04" y1="72.76" x2="51.84" y2="72.76" style="stroke-width: 0.75;"/>
<g><text transform="translate(41.76,1053.90) rotate(-90.00)" text-anchor="middle" style="font-family: Arial;font-size: 12.00px;" textLength="16.68px" lengthAdjust="spacingAndGlyphs">0.0</text></g>
<g><text transform="translate(41.76,913.73) rotate(-90.00)" text-anchor="middle" style="font-family: Arial;font-size: 12.00px;" textLength="16.68px" lengthAdjust="spacingAndGlyphs">0.2</text></g>
<g><text transform="translate(41.76,773.57) rotate(-90.00)" text-anchor="middle" style="font-family: Arial;font-size: 12.00px;" textLength="16.68px" lengthAdjust="spacingAndGlyphs">0.4</text></g>
<g><text transform="translate(41.76,633.41) rotate(-90.00)" text-anchor="middle" style="font-family: Arial;font-size: 12.00px;" textLength="16.68px" lengthAdjust="spacingAndGlyphs">0.6</text></g>
<g><text transform="translate(41.76,493.25) rotate(-90.00)" text-anchor="middle" style="font-family: Arial;font-size: 12.00px;" textLength="16.68px" lengthAdjust="spacingAndGlyphs">0.8</text></g>
<g><text transform="translate(41.76,353.08) rotate(-90.00)" text-anchor="middle" style="font-family: Arial;font-size: 12.00px;" textLength="16.68px" lengthAdjust="spacingAndGlyphs">1.0</text></g>
<g><text transform="translate(41.76,212.92) rotate(-90.00)" text-anchor="middle" style="font-family: Arial;font-size: 12.00px;" textLength="16.68px" lengthAdjust="spacingAndGlyphs">1.2</text></g>
<g><text transform="translate(41.76,72.76) rotate(-90.00)" text-anchor="middle" style="font-family: Arial;font-size: 12.00px;" textLength="16.68px" lengthAdjust="spacingAndGlyphs">1.4</text></g>
<polygon points="59.04,1092.16 1608.16,1092.16 1608.16,59.04 59.04,59.04" style="stroke-width: 0.75;" />
</g><g clip-path="url(#c3)">
<polygon points="1548.17,563.06 1549.91,563.06 1549.91,143.11 1548.17,143.11" style="stroke-width: 0.75;stroke: none;fill: #DBDBDF;" />
<polygon points="1549.91,608.86 1551.66,608.86 1551.66,97.30 1549.91,97.30" style="stroke-width: 0.75;stroke: none;fill: #DBDBDF;" />
<polygon points="1548.17,490.38 1549.91,490.38 1549.91,215.79 1548.17,215.79" style="stroke-width: 0.75;stroke: none;fill: #B1B5CE;" />
<polygon points="1549.91,520.33 1551.66,520.33 1551.66,185.84 1549.91,185.84" style="stroke-width: 0.75;stroke: none;fill: #B1B5CE;" />
<circle cx="1549.04" cy="353.08" r="2.70" style="stroke-width: 0.75;stroke: #2297E6;fill: #2297E6;"/>
<circle cx="1550.79" cy="353.08" r="2.70" style="stroke-width: 0.75;stroke: #2297E6;fill: #2297E6;"/>
</g>
</svg>