<svg xmlns="http://www.w3.org/2000/svg" xmlns:xlink="http://www.w3.org/1999/xlink" class="httpgd" width="2048.00" height="1457.00" viewBox="0 0 1638.40 1165.60">
<defs>
  <style type='text/css'><![CDATA[
    .httpgd line, .httpgd polyline, .httpgd polygon, .httpgd path, .httpgd rect, .httpgd circle {
      fill: none;
      stroke: #000000;
      stroke-linecap: round;
      stroke-linejoin: round;
      stroke-miterlimit: 10.00;
    }
  ]]></style>
<clipPath id="c0"><rect x="0.00" y="0.00" width="1638.40" height="1165.60"/></clipPath>
<clipPath id="c1"><rect x="59.04" y="59.04" width="1549.12" height="1033.12"/></clipPath>
<clipPath id="c2"><rect x="0.00" y="0.00" width="1638.40" height="1165.60"/></clipPath>
<clipPath id="c3"><rect x="59.04" y="59.04" width="1549.12" height="1033.12"/></clipPath>
</defs>
<rect width="100%" height="100%" style="stroke: none;fill: #FFFFFF;"/>
<g clip-path="url(#c0)">
</g><g clip-path="url(#c1)">
<polyline points="116.41,467.78 118.16,467.78 119.90,467.78 121.64,467.78 123.39,467.78 125.13,467.78 126.87,467.78 128.61,467.78 130.36,467.78 132.10,467.78 133.84,467.78 135.59,467.78 137.33,467.78 139.07,467.78 140.81,467.78 142.56,467.78 144.30,467.78 146.04,1053.90 147.79,467.78 149.53,467.78 151.27,467.78 153.01,467.78 154.76,467.78 156.50,467.78 158.24,467.78 159.99,467.78 161.73,467.78 163.47,467.78 165.21,467.78 166.96,1053.90 168.70,467.78 170.44,467.78 172.19,467.78 173.93,467.78 175.67,467.78 177.41,467.78 179.16,467.78 180.90,467.78 182.64,467.78 184.39,467.78 186.13,467.78 187.87,467.78 189.61,467.78 191.36,467.78 193.10,467.78 194.84,1053.90 196.59,1053.90 198.33,1053.90 200.07,467.78 201.81,1053.90 203.56,467.78 205.30,467.78 207.04,467.78 208.79,1053.90 210.53,467.78 212.27,467.78 214.01,467.78 215.76,467.78 217.50,467.78 219.24,1053.90 220.99,467.78 222.73,467.78 224.47,467.78 226.21,467.78 227.96,467.78 229.70,467.78 231.44,467.78 233.19,467.78 234.93,1053.90 236.67,467.78 238.41,467.78 240.16,467.78 241.90,1053.90 243.64,467.78 245.39,1053.90 247.13,1053.90 248.87,467.78 250.61,467.78 252.36,467.78 254.10,467.78 255.84,467.78 257.59,467.78 259.33,467.78 261.07,467.78 262.81,467.78 264.56,467.78 266.30,1053.90 268.04,467.78 269.79,467.78 271.53,467.78 273.27,467.78 275.01,467.78 276.76,467.78 278.50,467.78 280.24,467.78 281.99,467.78 283.73,467.78 285.47,467.78 287.21,467.78 288.96,467.78 290.70,467.78 292.44,467.78 294.19,467.78 295.93,467.78 297.67,467.78 299.41,467.78 301.16,467.78 302.90,467.78 304.64,467.78 306.39,467.78 308.13,1053.90 309.87,467.78 311.61,467.78 313.36,467.78 315.10,467.78 316.84,467.78 318.59,467.78 320.33,467.78 322.07,467.78 323.81,467.78 325.56,467.78 327.30,467.78 329.04,467.78 330.79,467.78 332.53,467.78 334.27,467.78 336.01,1053.90 337.76,1053.90 339.50,1053.90 341.24,1053.90 342.99,1053.90 344.73,1053.90 346.47,1053.90 348.21,1053.90 349.96,1053.90 351.70,1053.90 353.44,1053.90 355.19,1053.90 356.93,1053.90 358.67,1053.90 360.41,1053.90 362.16,1053.90 363.90,1053.90 365.64,1053.90 367.39,467.78 369.13,467.78 370.87,467.78 372.61,467.78 374.36,467.78 376.10,467.78 377.84,467.78 379.59,467.78 381.33,467.78 383.07,467.78 384.81,467.78 386.56,467.78 388.30,467.78 390.04,467.78 391.79,467.78 393.53,467.78 395.27,467.78 397.01,467.78 398.76,467.78 400.50,467.78 402.24,467.78 403.99,1053.90 405.73,467.78 407.47,467.78 409.21,467.78 410.96,467.78 412.70,467.78 414.44,1053.90 416.19,467.78 417.93,467.78 419.67,467.78 421.41,467.78 423.16,467.78 424.90,467.78 426.64,467.78 428.39,467.78 430.13,467.78 431.87,467.78 433.61,467.78 435.36,467.78 437.10,467.78 438.84,467.78 440.59,467.78 442.33,467.78 444.07,467.78 445.81,467.78 447.56,467.78 449.30,467.78 451.04,467.78 452.79,467.78 454.53,467.78 456.27,467.78 458.01,467.78 459.76,467.78 461.50,467.78 463.24,467.78 464.99,467.78 466.73,467.78 468.47,467.78 470.21,1053.90 471.96,467.78 473.70,467.78 475.44,467.78 477.19,467.78 478.93,467.78 480.67,467.78 482.41,467.78 484.16,467.78 485.90,1053.90 487.64,467.78 489.39,467.78 491.13,467.78 492.87,467.78 494.61,467.78 496.36,467.78 498.10,467.78 499.84,467.78 501.59,467.78 503.33,467.78 505.07,467.78 506.81,467.78 508.56,467.78 510.30,467.78 512.04,467.78 513.79,467.78 515.53,467.78 517.27,467.78 519.01,467.78 520.76,467.78 522.50,467.78 524.24,1053.90 525.99,1053.90 527.73,467.78 529.47,467.78 531.21,467.78 532.96,467.78 534.70,467.78 536.44,467.78 538.19,467.78 539.93,467.78 541.67,467.78 543.41,467.78 545.16,467.78 546.90,467.78 548.64,467.78 550.39,467.78 552.13,467.78 553.87,467.78 555.61,467.78 557.36,467.78 559.10,467.78 560.84,467.78 562.59,467.78 564.33,467.78 566.07,467.78 567.81,467.78 569.56,467.78 571.30,467.78 573.04,467.78 574.79,467.78 576.53,467.78 578.27,467.78 580.01,467.78 581.76,467.78 583.50,467.78 585.24,467.78 586.99,467.78 588.73,467.78 590.47,467.78 592.21,467.78 593.96,467.78 595.70,467.78 597.44,467.78 599.19,467.78 600.93,467.78 602.67,467.78 604.41,467.78 606.16,467.78 607.90,467.78 609.64,467.78 611.39,1053.90 613.13,467.78 614.87,467.78 616.61,467.78 618.36,467.78 620.10,467.78 621.84,467.78 623.59,467.78 625.33,467.78 627.07,467.78 628.81,467.78 630.56,467.78 632.30,467.78 634.04,467.78 635.79,467.78 637.53,467.78 639.27,467.78 641.01,467.78 642.76,467.78 644.50,467.78 646.24,467.78 647.99,467.78 649.73,467.78 651.47,467.78 653.21,467.78 654.96,467.78 656.70,467.78 658.44,467.78 660.19,467.78 661.93,467.78 663.67,467.78 665.41,467.78 667.16,467.78 668.90,467.78 670.64,467.78 672.39,467.78 674.13,467.78 675.87,467.78 677.61,467.78 679.36,467.78 681.10,1053.90 682.84,1053.90 684.59,1053.90 686.33,1053.90 688.07,1053.90 689.81,1053.90 691.56,1053.90 693.30,1053.90 695.04,1053.90 696.79,1053.90 698.53,1053.90 700.27,1053.90 702.01,1053.90 703.76,1053.90 705.50,1053.90 707.24,1053.90 708.99,1053.90 710.73,1053.90 712.47,1053.90 714.21,1053.90 715.96,1053.90 717.70,1053.90 719.44,1053.90 721.19,1053.90 722.93,1053.90 724.67,1053.90 726.41,1053.90 728.16,1053.90 729.90,1053.90 731.64,1053.90 733.39,467.78 735.13,467.78 736.87,467.78 738.61,467.78 740.36,467.78 742.10,467.78 743.84,467.78 745.59,467.78 747.33,467.78 749.07,467.78 750.81,467.78 752.56,467.78 754.30,467.78 756.04,467.78 757.79,467.78 759.53,467.78 761.27,467.78 763.01,467.78 764.76,467.78 766.50,467.78 768.24,467.78 769.99,467.78 771.73,467.78 773.47,467.78 775.21,467.78 776.96,467.78 778.70,467.78 780.44,467.78 782.19,467.78 783.93,467.78 785.67,467.78 787.41,467.78 789.16,467.78 790.90,467.78 792.64,467.78 794.39,467.78 796.13,467.78 797.87,467.78 799.61,467.78 801.36,467.78 803.10,467.78 804.84,467.78 806.59,1053.90 808.33,467.78 810.07,467.78 811.81,467.78 813.56,467.78 815.30,467.78 817.04,467.78 818.79,467.78 820.53,467.78 822.27,467.78 824.01,467.78 825.76,467.78 827.50,467.78 829.24,467.78 830.99,467.78 832.73,467.78 834.47,467.78 836.21,467.78 837.96,467.78 839.70,467.78 841.44,467.78 843.19,467.78 844.93,467.78 846.67,467.78 848.41,467.78 850.16,467.78 851.90,467.78 853.64,467.78 855.39,467.78 857.13,467.78 858.87,467.78 860.61,467.78 862.36,467.78 864.10,467.78 865.84,467.78 867.59,1053.90 869.33,1053.90 871.07,1053.90 872.81,1053.90 874.56,467.78 876.30,467.78 878.04,467.78 879.79,467.78 881.53,467.78 883.27,467.78 885.01,467.78 886.76,467.78 888.50,467.78 890.24,467.78 891.99,467.78 893.73,467.78 895.47,467.78 897.21,467.78 898.96,467.78 900.70,467.78 902.44,467.78 904.19,467.78 905.93,467.78 907.67,467.78 909.41,467.78 911.16,1053.90 912.90,1053.90 914.64,1053.90 916.39,467.78 918.13,467.78 919.87,467.78 921.61,467.78 923.36,467.78 925.10,467.78 926.84,467.78 928.59,467.78 930.33,467.78 932.07,467.78 933.81,467.78 935.56,467.78 937.30,467.78 939.04,467.78 940.79,467.78 942.53,467.78 944.27,467.78 946.01,1053.90 947.76,467.78 949.50,467.78 951.24,1053.90 952.99,1053.90 954.73,1053.90 956.47,1053.90 958.21,467.78 959.96,467.78 961.70,467.78 963.44,467.78 965.19,467.78 966.93,467.78 968.67,467.78 970.41,467.78 972.16,467.78 973.90,467.78 975.64,467.78 977.39,467.78 979.13,467.78 980.87,467.78 982.61,467.78 984.36,467.78 986.10,467.78 987.84,467.78 989.59,467.78 991.33,1053.90 993.07,1053.90 994.81,467.78 996.56,1053.90 998.30,467.78 1000.04,467.78 1001.79,467.78 1003.53,467.78 1005.27,467.78 1007.01,467.78 1008.76,467.78 1010.50,467.78 1012.24,467.78 1013.99,1053.90 1015.73,1053.90 1017.47,1053.90 1019.21,1053.90 1020.96,1053.90 1022.70,1053.90 1024.44,1053.90 1026.19,1053.90 1027.93,1053.90 1029.67,1053.90 1031.41,1053.90 1033.16,1053.90 1034.90,1053.90 1036.64,1053.90 1038.39,1053.90 1040.13,1053.90 1041.87,1053.90 1043.61,467.78 1045.36,467.78 1047.10,467.78 1048.84,467.78 1050.59,467.78 1052.33,467.78 1054.07,467.78 1055.81,467.78 1057.56,467.78 1059.30,467.78 1061.04,467.78 1062.79,467.78 1064.53,467.78 1066.27,467.78 1068.01,467.78 1069.76,467.78 1071.50,467.78 1073.24,467.78 1074.99,1053.90 1076.73,1053.90 1078.47,1053.90 1080.21,467.78 1081.96,467.78 1083.70,467.78 1085.44,1053.90 1087.19,467.78 1088.93,467.78 1090.67,467.78 1092.41,467.78 1094.16,467.78 1095.90,467.78 1097.64,467.78 1099.39,467.78 1101.13,1053.90 1102.87,467.78 1104.61,467.78 1106.36,467.78 1108.10,467.78 1109.84,467.78 1111.59,467.78 1113.33,467.78 1115.07,467.78 1116.81,467.78 1118.56,467.78 1120.30,467.78 1122.04,467.78 1123.79,467.78 1125.53,467.78 1127.27,467.78 1129.01,467.78 1130.76,467.78 1132.50,467.78 1134.24,467.78 1135.99,467.78 1137.73,467.78 1139.47,467.78 1141.21,467.78 1142.96,467.78 1144.70,467.78 1146.44,467.78 1148.19,467.78 1149.93,467.78 1151.67,467.78 1153.41,467.78 1155.16,467.78 1156.90,1053.90 1158.64,1053.90 1160.39,467.78 1162.13,467.78 1163.87,467.78 1165.61,467.78 1167.36,467.78 1169.10,467.78 1170.84,467.78 1172.59,467.78 1174.33,467.78 1176.07,467.78 1177.81,467.78 1179.56,467.78 1181.30,467.78 1183.04,467.78 1184.79,467.78 1186.53,467.78 1188.27,467.78 1190.01,467.78 1191.76,467.78 1193.50,467.78 1195.24,467.78 1196.99,467.78 1198.73,1053.90 1200.47,1053.90 1202.21,467.78 1203.96,467.78 1205.70,467.78 1207.44,467.78 1209.19,467.78 1210.93,467.78 1212.67,467.78 1214.41,467.78 1216.16,467.78 1217.90,467.78 1219.64,467.78 1221.39,467.78 1223.13,467.78 1224.87,467.78 1226.61,467.78 1228.36,1053.90 1230.10,467.78 1231.84,1053.90 1233.59,467.78 1235.33,1053.90 1237.07,1053.90 1238.81,1053.90 1240.56,1053.90 1242.30,1053.90 1244.04,467.78 1245.79,1053.90 1247.53,467.78 1249.27,1053.90 1251.01,467.78 1252.76,467.78 1254.50,467.78 1256.24,467.78 1257.99,467.78 1259.73,467.78 1261.47,467.78 1263.21,467.78 1264.96,467.78 1266.70,467.78 1268.44,467.78 1270.19,467.78 1271.93,467.78 1273.67,467.78 1275.41,467.78 1277.16,1053.90 1278.90,1053.90 1280.64,467.78 1282.39,1053.90 1284.13,467.78 1285.87,467.78 1287.61,467.78 1289.36,467.78 1291.10,467.78 1292.84,467.78 1294.59,467.78 1296.33,467.78 1298.07,467.78 1299.81,467.78 1301.56,467.78 1303.30,467.78 1305.04,467.78 1306.79,467.78 1308.53,467.78 1310.27,467.78 1312.01,467.78 1313.76,467.78 1315.50,467.78 1317.24,467.78 1318.99,1053.90 1320.73,467.78 1322.47,467.78 1324.21,1053.90 1325.96,467.78 1327.70,467.78 1329.44,467.78 1331.19,467.78 1332.93,467.78 1334.67,467.78 1336.41,467.78 1338.16,467.78 1339.90,467.78 1341.64,467.78 1343.39,467.78 1345.13,1053.90 1346.87,467.78 1348.61,467.78 1350.36,467.78 1352.10,467.78 1353.84,467.78 1355.59,467.78 1357.33,467.78 1359.07,467.78 1360.81,467.78 1362.56,467.78 1364.30,467.78 1366.04,467.78 1367.79,467.78 1369.53,467.78 1371.27,467.78 1373.01,467.78 1374.76,467.78 1376.50,467.78 1378.24,467.78 1379.99,467.78 1381.73,467.78 1383.47,467.78 1385.21,1053.90 1386.96,467.78 1388.70,467.78 1390.44,467.78 1392.19,467.78 1393.93,467.78 1395.67,467.78 1397.41,467.78 1399.16,467.78 1400.90,467.78 1402.64,467.78 1404.39,467.78 1406.13,467.78 1407.87,467.78 1409.61,467.78 1411.36,467.78 1413.10,467.78 1414.84,467.78 1416.59,467.78 1418.33,467.78 1420.07,467.78 1421.81,467.78 1423.56,467.78 1425.30,467.78 1427.04,467.78 1428.79,467.78 1430.53,467.78 1432.27,467.78 1434.01,467.78 1435.76,467.78 1437.50,467.78 1439.24,467.78 1440.99,467.78 1442.73,467.78 1444.47,1053.90 1446.21,467.78 1447.96,467.78 1449.70,467.78 1451.44,467.78 1453.19,467.78 1454.93,467.78 1456.67,467.78 1458.41,1053.90 1460.16,467.78 1461.90,467.78 1463.64,467.78 1465.39,467.78 1467.13,467.78 1468.87,467.78 1470.61,467.78 1472.36,467.78 1474.10,467.78 1475.84,467.78 1477.59,467.78 1479.33,1053.90 1481.07,467.78 1482.81,1053.90 1484.56,467.78 1486.30,467.78 1488.04,467.78 1489.79,467.78 1491.53,467.78 1493.27,467.78 1495.01,467.78 1496.76,467.78 1498.50,467.78 1500.24,467.78 1501.99,467.78 1503.73,467.78 1505.47,467.78 1507.21,467.78 1508.96,467.78 1510.70,467.78 1512.44,467.78 1514.19,467.78 1515.93,467.78 1517.67,467.78 1519.41,467.78 1521.16,467.78 1522.90,1053.90 1524.64,1053.90 1526.39,1053.90 1528.13,467.78 1529.87,467.78 1531.61,467.78 1533.36,467.78 1535.10,467.78 1536.84,467.78 1538.59,467.78 1540.33,467.78 1542.07,467.78 1543.81,467.78 1545.56,467.78 1547.30,467.78" style="stroke-width: 0.75;"/>
</g><g clip-path="url(#c2)">
<g><text x="833.60" y="34.67" text-anchor="middle" style="font-family: Arial;font-size: 14.40px;font-weight: bold;" textLength="184.74px" lengthAdjust="spacingAndGlyphs">Forecasts from ETS(A,N,N)</text></g>
<line x1="148.66" y1="1092.16" x2="1576.06" y2="1092.16" style="stroke-width: 0.75;"/>
<line x1="148.66" y1="1092.16" x2="148.66" y2="1099.36" style="stroke-width: 0.75;"/>
<line x1="386.56" y1="1092.16" x2="386.56" y2="1099.36" style="stroke-width: 0.75;"/>
<line x1="624.46" y1="1092.16" x2="624.46" y2="1099.36" style="stroke-width: 0.75;"/>
<line x1="862.36" y1="1092.16" x2="862.36" y2="1099.36" style="stroke-width: 0.75;"/>
<line x1="1100.26" y1="1092.16" x2="1100.26" y2="1099.36" style="stroke-width: 0.75;"/>
<line x1="1338.16" y1="1092.16" x2="1338.16" y2="1099.36" style="stroke-width: 0.75;"/>
<line x1="1576.06" y1="1092.16" x2="1576.06" y2="1099.36" style="stroke-width: 0.75;"/>
<g><text x="148.66" y="1118.08" text-anchor="middle" style="font-family: Arial;font-size: 12.00px;" textLength="36.71px" lengthAdjust="spacingAndGlyphs">2020.5</text></g>
<g><text x="386.56" y="1118.08" text-anchor="middle" style="font-family: Arial;font-size: 12.00px;" textLength="36.71px" lengthAdjust="spacingAndGlyphs">2021.0</text></g>
<g><text x="624.46" y="1118.08" text-anchor="middle" style="font-family: Arial;font-size: 12.00px;" textLength="36.71px" lengthAdjust="spacingAndGlyphs">2021.5</text></g>
<g><text x="862.36" y="1118.08" text-anchor="middle" style="font-family: Arial;font-size: 12.00px;" textLength="36.71px" lengthAdjust="spacingAndGlyphs">2022.0</text></g>
<g><text x="1100.26" y="1118.08" text-anchor="middle" style="font-family: Arial;font-size: 12.00px;" textLength="36.71px" lengthAdjust="spacingAndGlyphs">2022.5</text></g>
<g><text x="1338.16" y="1118.08" text-anchor="middle" style="font-family: Arial;font-size: 12.00px;" textLength="36.71px" lengthAdjust="spacingAndGlyphs">2023.0</text></g>
<g><text x="1576.06" y="1118.08" text-anchor="middle" style="font-family: Arial;font-size: 12.00px;" textLength="36.71px" lengthAdjust="spacingAndGlyphs">2023.5</text></g>
<line x1="59.04" y1="1053.90" x2="59.04" y2="174.72" style="stroke-width: 0.75;"/>
<line x1="59.04" y1="1053.90" x2="51.84" y2="1053.90" style="stroke-width: 0.75;"/>
<line x1="59.04" y1="760.84" x2="51.84" y2="760.84" style="stroke-width: 0.75;"/>
<line x1="59.04" y1="467.78" x2="51.84" y2="467.78" style="stroke-width: 0.75;"/>
<line x1="59.04" y1="174.72" x2="51.84" y2="174.72" style="stroke-width: 0.75;"/>
<g><text transform="translate(41.76,1053.90) rotate(-90.00)" text-anchor="middle" style="font-family: Arial;font-size: 12.00px;" textLength="16.68px" lengthAdjust="spacingAndGlyphs">0.0</text></g>
<g><text transform="translate(41.76,760.84) rotate(-90.00)" text-anchor="middle" style="font-family: Arial;font-size: 12.00px;" textLength="16.68px" lengthAdjust="spacingAndGlyphs">0.5</text></g>
<g><text transform="translate(41.76,467.78) rotate(-90.00)" text-anchor="middle" style="font-family: Arial;font-size: 12.00px;" textLength="16.68px" lengthAdjust="spacingAndGlyphs">1.0</text></g>
<g><text transform="translate(41.76,174.72) rotate(-90.00)" text-anchor="middle" style="font-family: Arial;font-size: 12.00px;" textLength="16.68px" lengthAdjust="spacingAndGlyphs">1.5</text></g>
<polygon points="59.04,1092.16 1608.16,1092.16 1608.16,59.04 59.04,59.04" style="stroke-width: 0.75;" />
</g><g clip-path="url(#c3)">
<polygon points="1548.17,812.19 1549.91,812.19 1549.91,125.03 1548.17,125.03" style="stroke-width: 0.75;stroke: none;fill: #DBDBDF;" />
<polygon points="1549.91,839.92 1551.66,839.92 1551.66,97.30 1549.91,97.30" style="stroke-width: 0.75;stroke: none;fill: #DBDBDF;" />
<polygon points="1548.17,693.27 1549.91,693.27 1549.91,243.96 1548.17,243.96" style="stroke-width: 0.75;stroke: none;fill: #B1B5CE;" />
<polygon points="1549.91,711.39 1551.66,711.39 1551.66,225.83 1549.91,225.83" style="stroke-width: 0.75;stroke: none;fill: #B1B5CE;" />
<circle cx="1549.04" cy="468.61" r="2.70" style="stroke-width: 0.75;stroke: #2297E6;fill: #2297E6;"/>
<circle cx="1550.79" cy="468.61" r="2.70" style="stroke-width: 0.75;stroke: #2297E6;fill: #2297E6;"/>
</g>
</svg>