<svg xmlns="http://www.w3.org/2000/svg" xmlns:xlink="http://www.w3.org/1999/xlink" class="httpgd" width="2048.00" height="1457.00" viewBox="0 0 1638.40 1165.60">
<defs>
  <style type='text/css'><![CDATA[
    .httpgd line, .httpgd polyline, .httpgd polygon, .httpgd path, .httpgd rect, .httpgd circle {
      fill: none;
      stroke: #000000;
      stroke-linecap: round;
      stroke-linejoin: round;
      stroke-miterlimit: 10.00;
    }
  ]]></style>
<clipPath id="c0"><rect x="0.00" y="0.00" width="1638.40" height="1165.60"/></clipPath>
<clipPath id="c1"><rect x="59.04" y="59.04" width="1549.12" height="1033.12"/></clipPath>
<clipPath id="c2"><rect x="0.00" y="0.00" width="1638.40" height="1165.60"/></clipPath>
<clipPath id="c3"><rect x="59.04" y="59.04" width="1549.12" height="1033.12"/></clipPath>
</defs>
<rect width="100%" height="100%" style="stroke: none;fill: #FFFFFF;"/>
<g clip-path="url(#c0)">
</g><g clip-path="url(#c1)">
<polyline points="116.41,1053.90 118.16,1053.90 119.90,1053.90 121.64,1053.90 123.39,1053.90 125.13,1053.90 126.87,1053.90 128.61,1053.90 130.36,1053.90 132.10,1053.90 133.84,1053.90 135.59,1053.90 137.33,1053.90 139.07,1053.90 140.81,1053.90 142.56,1053.90 144.30,1053.90 146.04,1053.90 147.79,1053.90 149.53,1053.90 151.27,1053.90 153.01,1053.90 154.76,1053.90 156.50,1053.90 158.24,1053.90 159.99,1053.90 161.73,1053.90 163.47,1053.90 165.21,1053.90 166.96,1053.90 168.70,1053.90 170.44,1053.90 172.19,1053.90 173.93,1053.90 175.67,1053.90 177.41,1053.90 179.16,1053.90 180.90,1053.90 182.64,1053.90 184.39,1053.90 186.13,1053.90 187.87,1053.90 189.61,1053.90 191.36,1053.90 193.10,1053.90 194.84,1053.90 196.59,1053.90 198.33,1053.90 200.07,1053.90 201.81,1053.90 203.56,1053.90 205.30,1053.90 207.04,1053.90 208.79,1053.90 210.53,1053.90 212.27,1053.90 214.01,1053.90 215.76,1053.90 217.50,1053.90 219.24,1053.90 220.99,1053.90 222.73,1053.90 224.47,1053.90 226.21,1053.90 227.96,1053.90 229.70,1053.90 231.44,1053.90 233.19,1053.90 234.93,1053.90 236.67,1053.90 238.41,1053.90 240.16,1053.90 241.90,1053.90 243.64,1053.90 245.39,1053.90 247.13,1053.90 248.87,1053.90 250.61,499.26 252.36,499.26 254.10,499.26 255.84,499.26 257.59,1053.90 259.33,1053.90 261.07,1053.90 262.81,1053.90 264.56,1053.90 266.30,1053.90 268.04,1053.90 269.79,499.26 271.53,499.26 273.27,499.26 275.01,499.26 276.76,499.26 278.50,499.26 280.24,499.26 281.99,499.26 283.73,499.26 285.47,499.26 287.21,499.26 288.96,499.26 290.70,499.26 292.44,499.26 294.19,499.26 295.93,499.26 297.67,499.26 299.41,1053.90 301.16,499.26 302.90,1053.90 304.64,499.26 306.39,1053.90 308.13,499.26 309.87,1053.90 311.61,499.26 313.36,499.26 315.10,499.26 316.84,499.26 318.59,499.26 320.33,499.26 322.07,499.26 323.81,499.26 325.56,499.26 327.30,499.26 329.04,499.26 330.79,499.26 332.53,499.26 334.27,499.26 336.01,1053.90 337.76,1053.90 339.50,1053.90 341.24,1053.90 342.99,1053.90 344.73,1053.90 346.47,1053.90 348.21,1053.90 349.96,1053.90 351.70,1053.90 353.44,1053.90 355.19,1053.90 356.93,1053.90 358.67,1053.90 360.41,1053.90 362.16,1053.90 363.90,1053.90 365.64,1053.90 367.39,499.26 369.13,499.26 370.87,499.26 372.61,499.26 374.36,499.26 376.10,499.26 377.84,499.26 379.59,499.26 381.33,1053.90 383.07,1053.90 384.81,1053.90 386.56,1053.90 388.30,499.26 390.04,499.26 391.79,499.26 393.53,499.26 395.27,499.26 397.01,499.26 398.76,1053.90 400.50,1053.90 402.24,1053.90 403.99,1053.90 405.73,1053.90 407.47,499.26 409.21,499.26 410.96,499.26 412.70,499.26 414.44,1053.90 416.19,499.26 417.93,499.26 419.67,499.26 421.41,499.26 423.16,499.26 424.90,499.26 426.64,499.26 428.39,499.26 430.13,499.26 431.87,499.26 433.61,499.26 435.36,499.26 437.10,1053.90 438.84,1053.90 440.59,1053.90 442.33,1053.90 444.07,1053.90 445.81,499.26 447.56,499.26 449.30,499.26 451.04,499.26 452.79,499.26 454.53,499.26 456.27,499.26 458.01,499.26 459.76,499.26 461.50,499.26 463.24,499.26 464.99,499.26 466.73,499.26 468.47,499.26 470.21,1053.90 471.96,499.26 473.70,499.26 475.44,499.26 477.19,499.26 478.93,499.26 480.67,499.26 482.41,1053.90 484.16,1053.90 485.90,499.26 487.64,499.26 489.39,499.26 491.13,499.26 492.87,499.26 494.61,499.26 496.36,499.26 498.10,499.26 499.84,499.26 501.59,499.26 503.33,499.26 505.07,499.26 506.81,499.26 508.56,499.26 510.30,499.26 512.04,499.26 513.79,499.26 515.53,499.26 517.27,1053.90 519.01,499.26 520.76,499.26 522.50,1053.90 524.24,499.26 525.99,1053.90 527.73,1053.90 529.47,499.26 531.21,499.26 532.96,499.26 534.70,499.26 536.44,499.26 538.19,499.26 539.93,499.26 541.67,499.26 543.41,499.26 545.16,499.26 546.90,499.26 548.64,499.26 550.39,499.26 552.13,499.26 553.87,499.26 555.61,499.26 557.36,499.26 559.10,1053.90 560.84,499.26 562.59,499.26 564.33,1053.90 566.07,499.26 567.81,1053.90 569.56,1053.90 571.30,499.26 573.04,499.26 574.79,499.26 576.53,499.26 578.27,499.26 580.01,499.26 581.76,499.26 583.50,499.26 585.24,499.26 586.99,499.26 588.73,499.26 590.47,499.26 592.21,499.26 593.96,499.26 595.70,499.26 597.44,499.26 599.19,499.26 600.93,499.26 602.67,499.26 604.41,499.26 606.16,1053.90 607.90,1053.90 609.64,499.26 611.39,1053.90 613.13,499.26 614.87,499.26 616.61,499.26 618.36,499.26 620.10,499.26 621.84,499.26 623.59,499.26 625.33,499.26 627.07,499.26 628.81,499.26 630.56,499.26 632.30,499.26 634.04,499.26 635.79,499.26 637.53,499.26 639.27,499.26 641.01,499.26 642.76,499.26 644.50,499.26 646.24,499.26 647.99,1053.90 649.73,499.26 651.47,499.26 653.21,499.26 654.96,499.26 656.70,499.26 658.44,499.26 660.19,499.26 661.93,499.26 663.67,499.26 665.41,499.26 667.16,499.26 668.90,499.26 670.64,499.26 672.39,499.26 674.13,1053.90 675.87,499.26 677.61,1053.90 679.36,1053.90 681.10,1053.90 682.84,1053.90 684.59,1053.90 686.33,1053.90 688.07,1053.90 689.81,1053.90 691.56,1053.90 693.30,1053.90 695.04,1053.90 696.79,1053.90 698.53,1053.90 700.27,1053.90 702.01,1053.90 703.76,1053.90 705.50,1053.90 707.24,1053.90 708.99,1053.90 710.73,1053.90 712.47,1053.90 714.21,1053.90 715.96,1053.90 717.70,1053.90 719.44,1053.90 721.19,1053.90 722.93,1053.90 724.67,1053.90 726.41,1053.90 728.16,1053.90 729.90,1053.90 731.64,1053.90 733.39,499.26 735.13,499.26 736.87,499.26 738.61,499.26 740.36,499.26 742.10,499.26 743.84,499.26 745.59,499.26 747.33,499.26 749.07,499.26 750.81,499.26 752.56,499.26 754.30,499.26 756.04,499.26 757.79,499.26 759.53,1053.90 761.27,1053.90 763.01,1053.90 764.76,1053.90 766.50,1053.90 768.24,499.26 769.99,499.26 771.73,499.26 773.47,499.26 775.21,499.26 776.96,499.26 778.70,499.26 780.44,499.26 782.19,499.26 783.93,499.26 785.67,499.26 787.41,499.26 789.16,499.26 790.90,499.26 792.64,499.26 794.39,499.26 796.13,499.26 797.87,499.26 799.61,499.26 801.36,499.26 803.10,1053.90 804.84,499.26 806.59,1053.90 808.33,1053.90 810.07,1053.90 811.81,499.26 813.56,499.26 815.30,499.26 817.04,499.26 818.79,499.26 820.53,499.26 822.27,499.26 824.01,499.26 825.76,499.26 827.50,499.26 829.24,499.26 830.99,499.26 832.73,499.26 834.47,499.26 836.21,499.26 837.96,499.26 839.70,499.26 841.44,499.26 843.19,499.26 844.93,1053.90 846.67,1053.90 848.41,1053.90 850.16,499.26 851.90,499.26 853.64,499.26 855.39,499.26 857.13,499.26 858.87,499.26 860.61,499.26 862.36,499.26 864.10,499.26 865.84,499.26 867.59,1053.90 869.33,1053.90 871.07,1053.90 872.81,1053.90 874.56,1053.90 876.30,1053.90 878.04,1053.90 879.79,1053.90 881.53,1053.90 883.27,1053.90 885.01,1053.90 886.76,1053.90 888.50,1053.90 890.24,1053.90 891.99,1053.90 893.73,1053.90 895.47,1053.90 897.21,1053.90 898.96,1053.90 900.70,1053.90 902.44,1053.90 904.19,1053.90 905.93,1053.90 907.67,1053.90 909.41,1053.90 911.16,1053.90 912.90,1053.90 914.64,1053.90 916.39,1053.90 918.13,1053.90 919.87,1053.90 921.61,1053.90 923.36,1053.90 925.10,1053.90 926.84,1053.90 928.59,1053.90 930.33,1053.90 932.07,1053.90 933.81,1053.90 935.56,1053.90 937.30,1053.90 939.04,1053.90 940.79,1053.90 942.53,1053.90 944.27,1053.90 946.01,1053.90 947.76,1053.90 949.50,1053.90 951.24,1053.90 952.99,1053.90 954.73,1053.90 956.47,1053.90 958.21,1053.90 959.96,1053.90 961.70,1053.90 963.44,1053.90 965.19,1053.90 966.93,1053.90 968.67,1053.90 970.41,1053.90 972.16,1053.90 973.90,1053.90 975.64,1053.90 977.39,1053.90 979.13,1053.90 980.87,1053.90 982.61,1053.90 984.36,1053.90 986.10,1053.90 987.84,1053.90 989.59,1053.90 991.33,1053.90 993.07,1053.90 994.81,1053.90 996.56,1053.90 998.30,1053.90 1000.04,1053.90 1001.79,1053.90 1003.53,1053.90 1005.27,1053.90 1007.01,1053.90 1008.76,1053.90 1010.50,1053.90 1012.24,1053.90 1013.99,1053.90 1015.73,1053.90 1017.47,1053.90 1019.21,1053.90 1020.96,1053.90 1022.70,1053.90 1024.44,1053.90 1026.19,1053.90 1027.93,1053.90 1029.67,1053.90 1031.41,1053.90 1033.16,1053.90 1034.90,1053.90 1036.64,1053.90 1038.39,1053.90 1040.13,1053.90 1041.87,1053.90 1043.61,499.26 1045.36,499.26 1047.10,499.26 1048.84,499.26 1050.59,499.26 1052.33,499.26 1054.07,499.26 1055.81,499.26 1057.56,499.26 1059.30,499.26 1061.04,499.26 1062.79,499.26 1064.53,499.26 1066.27,499.26 1068.01,499.26 1069.76,499.26 1071.50,1053.90 1073.24,1053.90 1074.99,1053.90 1076.73,1053.90 1078.47,1053.90 1080.21,1053.90 1081.96,499.26 1083.70,499.26 1085.44,499.26 1087.19,499.26 1088.93,499.26 1090.67,499.26 1092.41,499.26 1094.16,499.26 1095.90,499.26 1097.64,499.26 1099.39,499.26 1101.13,499.26 1102.87,499.26 1104.61,1053.90 1106.36,499.26 1108.10,1053.90 1109.84,499.26 1111.59,499.26 1113.33,1053.90 1115.07,499.26 1116.81,1053.90 1118.56,1053.90 1120.30,1053.90 1122.04,1053.90 1123.79,499.26 1125.53,499.26 1127.27,499.26 1129.01,499.26 1130.76,499.26 1132.50,499.26 1134.24,499.26 1135.99,499.26 1137.73,499.26 1139.47,499.26 1141.21,499.26 1142.96,499.26 1144.70,499.26 1146.44,499.26 1148.19,1053.90 1149.93,499.26 1151.67,499.26 1153.41,1053.90 1155.16,1053.90 1156.90,1053.90 1158.64,499.26 1160.39,499.26 1162.13,499.26 1163.87,499.26 1165.61,499.26 1167.36,499.26 1169.10,499.26 1170.84,499.26 1172.59,499.26 1174.33,499.26 1176.07,499.26 1177.81,499.26 1179.56,499.26 1181.30,499.26 1183.04,499.26 1184.79,499.26 1186.53,499.26 1188.27,499.26 1190.01,499.26 1191.76,1053.90 1193.50,1053.90 1195.24,1053.90 1196.99,1053.90 1198.73,1053.90 1200.47,499.26 1202.21,499.26 1203.96,499.26 1205.70,499.26 1207.44,499.26 1209.19,499.26 1210.93,499.26 1212.67,499.26 1214.41,499.26 1216.16,499.26 1217.90,499.26 1219.64,499.26 1221.39,499.26 1223.13,1053.90 1224.87,1053.90 1226.61,1053.90 1228.36,1053.90 1230.10,1053.90 1231.84,1053.90 1233.59,1053.90 1235.33,1053.90 1237.07,1053.90 1238.81,1053.90 1240.56,1053.90 1242.30,1053.90 1244.04,1053.90 1245.79,1053.90 1247.53,1053.90 1249.27,1053.90 1251.01,1053.90 1252.76,1053.90 1254.50,1053.90 1256.24,1053.90 1257.99,1053.90 1259.73,1053.90 1261.47,1053.90 1263.21,1053.90 1264.96,1053.90 1266.70,1053.90 1268.44,1053.90 1270.19,1053.90 1271.93,1053.90 1273.67,1053.90 1275.41,1053.90 1277.16,1053.90 1278.90,1053.90 1280.64,1053.90 1282.39,1053.90 1284.13,1053.90 1285.87,1053.90 1287.61,1053.90 1289.36,1053.90 1291.10,1053.90 1292.84,499.26 1294.59,499.26 1296.33,499.26 1298.07,499.26 1299.81,499.26 1301.56,499.26 1303.30,499.26 1305.04,499.26 1306.79,499.26 1308.53,499.26 1310.27,499.26 1312.01,499.26 1313.76,499.26 1315.50,499.26 1317.24,1053.90 1318.99,1053.90 1320.73,1053.90 1322.47,499.26 1324.21,1053.90 1325.96,499.26 1327.70,499.26 1329.44,499.26 1331.19,499.26 1332.93,499.26 1334.67,499.26 1336.41,499.26 1338.16,499.26 1339.90,499.26 1341.64,499.26 1343.39,499.26 1345.13,1053.90 1346.87,499.26 1348.61,499.26 1350.36,499.26 1352.10,499.26 1353.84,499.26 1355.59,499.26 1357.33,499.26 1359.07,499.26 1360.81,499.26 1362.56,499.26 1364.30,499.26 1366.04,499.26 1367.79,499.26 1369.53,499.26 1371.27,499.26 1373.01,499.26 1374.76,499.26 1376.50,499.26 1378.24,499.26 1379.99,499.26 1381.73,1053.90 1383.47,1053.90 1385.21,1053.90 1386.96,1053.90 1388.70,499.26 1390.44,499.26 1392.19,499.26 1393.93,499.26 1395.67,499.26 1397.41,499.26 1399.16,499.26 1400.90,499.26 1402.64,499.26 1404.39,499.26 1406.13,499.26 1407.87,499.26 1409.61,499.26 1411.36,499.26 1413.10,499.26 1414.84,499.26 1416.59,499.26 1418.33,499.26 1420.07,499.26 1421.81,1053.90 1423.56,1053.90 1425.30,1053.90 1427.04,1053.90 1428.79,499.26 1430.53,499.26 1432.27,499.26 1434.01,499.26 1435.76,499.26 1437.50,499.26 1439.24,499.26 1440.99,499.26 1442.73,499.26 1444.47,499.26 1446.21,499.26 1447.96,499.26 1449.70,499.26 1451.44,499.26 1453.19,499.26 1454.93,499.26 1456.67,499.26 1458.41,1053.90 1460.16,499.26 1461.90,499.26 1463.64,499.26 1465.39,499.26 1467.13,499.26 1468.87,499.26 1470.61,499.26 1472.36,499.26 1474.10,499.26 1475.84,1053.90 1477.59,499.26 1479.33,499.26 1481.07,1053.90 1482.81,1053.90 1484.56,1053.90 1486.30,1053.90 1488.04,499.26 1489.79,499.26 1491.53,499.26 1493.27,499.26 1495.01,499.26 1496.76,499.26 1498.50,499.26 1500.24,499.26 1501.99,499.26 1503.73,499.26 1505.47,499.26 1507.21,499.26 1508.96,499.26 1510.70,499.26 1512.44,499.26 1514.19,499.26 1515.93,499.26 1517.67,499.26 1519.41,1053.90 1521.16,1053.90 1522.90,1053.90 1524.64,1053.90 1526.39,1053.90 1528.13,1053.90 1529.87,499.26 1531.61,499.26 1533.36,499.26 1535.10,499.26 1536.84,499.26 1538.59,499.26 1540.33,499.26 1542.07,499.26 1543.81,499.26 1545.56,499.26 1547.30,499.26" style="stroke-width: 0.75;"/>
</g><g clip-path="url(#c2)">
<g><text x="833.60" y="34.67" text-anchor="middle" style="font-family: Arial;font-size: 14.40px;font-weight: bold;" textLength="184.74px" lengthAdjust="spacingAndGlyphs">Forecasts from ETS(A,N,N)</text></g>
<line x1="148.66" y1="1092.16" x2="1576.06" y2="1092.16" style="stroke-width: 0.75;"/>
<line x1="148.66" y1="1092.16" x2="148.66" y2="1099.36" style="stroke-width: 0.75;"/>
<line x1="386.56" y1="1092.16" x2="386.56" y2="1099.36" style="stroke-width: 0.75;"/>
<line x1="624.46" y1="1092.16" x2="624.46" y2="1099.36" style="stroke-width: 0.75;"/>
<line x1="862.36" y1="1092.16" x2="862.36" y2="1099.36" style="stroke-width: 0.75;"/>
<line x1="1100.26" y1="1092.16" x2="1100.26" y2="1099.36" style="stroke-width: 0.75;"/>
<line x1="1338.16" y1="1092.16" x2="1338.16" y2="1099.36" style="stroke-width: 0.75;"/>
<line x1="1576.06" y1="1092.16" x2="1576.06" y2="1099.36" style="stroke-width: 0.75;"/>
<g><text x="148.66" y="1118.08" text-anchor="middle" style="font-family: Arial;font-size: 12.00px;" textLength="36.71px" lengthAdjust="spacingAndGlyphs">2020.5</text></g>
<g><text x="386.56" y="1118.08" text-anchor="middle" style="font-family: Arial;font-size: 12.00px;" textLength="36.71px" lengthAdjust="spacingAndGlyphs">2021.0</text></g>
<g><text x="624.46" y="1118.08" text-anchor="middle" style="font-family: Arial;font-size: 12.00px;" textLength="36.71px" lengthAdjust="spacingAndGlyphs">2021.5</text></g>
<g><text x="862.36" y="1118.08" text-anchor="middle" style="font-family: Arial;font-size: 12.00px;" textLength="36.71px" lengthAdjust="spacingAndGlyphs">2022.0</text></g>
<g><text x="1100.26" y="1118.08" text-anchor="middle" style="font-family: Arial;font-size: 12.00px;" textLength="36.71px" lengthAdjust="spacingAndGlyphs">2022.5</text></g>
<g><text x="1338.16" y="1118.08" text-anchor="middle" style="font-family: Arial;font-size: 12.00px;" textLength="36.71px" lengthAdjust="spacingAndGlyphs">2023.0</text></g>
<g><text x="1576.06" y="1118.08" text-anchor="middle" style="font-family: Arial;font-size: 12.00px;" textLength="36.71px" lengthAdjust="spacingAndGlyphs">2023.5</text></g>
<line x1="59.04" y1="1053.90" x2="59.04" y2="221.94" style="stroke-width: 0.75;"/>
<line x1="59.04" y1="1053.90" x2="51.84" y2="1053.90" style="stroke-width: 0.75;"/>
<line x1="59.04" y1="776.58" x2="51.84" y2="776.58" style="stroke-width: 0.75;"/>
<line x1="59.04" y1="499.26" x2="51.84" y2="499.26" style="stroke-width: 0.75;"/>
<line x1="59.04" y1="221.94" x2="51.84" y2="221.94" style="stroke-width: 0.75;"/>
<g><text transform="translate(41.76,1053.90) rotate(-90.00)" text-anchor="middle" style="font-family: Arial;font-size: 12.00px;" textLength="16.68px" lengthAdjust="spacingAndGlyphs">0.0</text></g>
<g><text transform="translate(41.76,776.58) rotate(-90.00)" text-anchor="middle" style="font-family: Arial;font-size: 12.00px;" textLength="16.68px" lengthAdjust="spacingAndGlyphs">0.5</text></g>
<g><text transform="translate(41.76,499.26) rotate(-90.00)" text-anchor="middle" style="font-family: Arial;font-size: 12.00px;" textLength="16.68px" lengthAdjust="spacingAndGlyphs">1.0</text></g>
<g><text transform="translate(41.76,221.94) rotate(-90.00)" text-anchor="middle" style="font-family: Arial;font-size: 12.00px;" textLength="16.68px" lengthAdjust="spacingAndGlyphs">1.5</text></g>
<polygon points="59.04,1092.16 1608.16,1092.16 1608.16,59.04 59.04,59.04" style="stroke-width: 0.75;" />
</g><g clip-path="url(#c3)">
<polygon points="1548.17,840.83 1549.91,840.83 1549.91,157.72 1548.17,157.72" style="stroke-width: 0.75;stroke: none;fill: #DBDBDF;" />
<polygon points="1549.91,901.25 1551.66,901.25 1551.66,97.30 1549.91,97.30" style="stroke-width: 0.75;stroke: none;fill: #DBDBDF;" />
<polygon points="1548.17,722.61 1549.91,722.61 1549.91,275.94 1548.17,275.94" style="stroke-width: 0.75;stroke: none;fill: #B1B5CE;" />
<polygon points="1549.91,762.11 1551.66,762.11 1551.66,236.44 1549.91,236.44" style="stroke-width: 0.75;stroke: none;fill: #B1B5CE;" />
<circle cx="1549.04" cy="499.27" r="2.70" style="stroke-width: 0.75;stroke: #2297E6;fill: #2297E6;"/>
<circle cx="1550.79" cy="499.27" r="2.70" style="stroke-width: 0.75;stroke: #2297E6;fill: #2297E6;"/>
</g>
</svg>