<svg xmlns="http://www.w3.org/2000/svg" xmlns:xlink="http://www.w3.org/1999/xlink" class="httpgd" width="2048.00" height="1457.00" viewBox="0 0 1638.40 1165.60">
<defs>
  <style type='text/css'><![CDATA[
    .httpgd line, .httpgd polyline, .httpgd polygon, .httpgd path, .httpgd rect, .httpgd circle {
      fill: none;
      stroke: #000000;
      stroke-linecap: round;
      stroke-linejoin: round;
      stroke-miterlimit: 10.00;
    }
  ]]></style>
<clipPath id="c0"><rect x="0.00" y="0.00" width="1638.40" height="1165.60"/></clipPath>
<clipPath id="c1"><rect x="59.04" y="59.04" width="1549.12" height="1033.12"/></clipPath>
<clipPath id="c2"><rect x="0.00" y="0.00" width="1638.40" height="1165.60"/></clipPath>
<clipPath id="c3"><rect x="59.04" y="59.04" width="1549.12" height="1033.12"/></clipPath>
</defs>
<rect width="100%" height="100%" style="stroke: none;fill: #FFFFFF;"/>
<g clip-path="url(#c0)">
</g><g clip-path="url(#c1)">
<circle cx="443.00" cy="284.27" r="2.70" style="stroke-width: 0.75;stroke: none;fill: #000000;"/>
</g><g clip-path="url(#c2)">
<line x1="116.41" y1="1092.16" x2="1550.79" y2="1092.16" style="stroke-width: 0.75;"/>
<line x1="116.41" y1="1092.16" x2="116.41" y2="1099.36" style="stroke-width: 0.75;"/>
<line x1="475.01" y1="1092.16" x2="475.01" y2="1099.36" style="stroke-width: 0.75;"/>
<line x1="833.60" y1="1092.16" x2="833.60" y2="1099.36" style="stroke-width: 0.75;"/>
<line x1="1192.19" y1="1092.16" x2="1192.19" y2="1099.36" style="stroke-width: 0.75;"/>
<line x1="1550.79" y1="1092.16" x2="1550.79" y2="1099.36" style="stroke-width: 0.75;"/>
<g><text x="116.41" y="1118.08" text-anchor="middle" style="font-family: Arial;font-size: 12.00px;" textLength="6.67px" lengthAdjust="spacingAndGlyphs">0</text></g>
<g><text x="475.01" y="1118.08" text-anchor="middle" style="font-family: Arial;font-size: 12.00px;" textLength="6.67px" lengthAdjust="spacingAndGlyphs">1</text></g>
<g><text x="833.60" y="1118.08" text-anchor="middle" style="font-family: Arial;font-size: 12.00px;" textLength="6.67px" lengthAdjust="spacingAndGlyphs">2</text></g>
<g><text x="1192.19" y="1118.08" text-anchor="middle" style="font-family: Arial;font-size: 12.00px;" textLength="6.67px" lengthAdjust="spacingAndGlyphs">3</text></g>
<g><text x="1550.79" y="1118.08" text-anchor="middle" style="font-family: Arial;font-size: 12.00px;" textLength="6.67px" lengthAdjust="spacingAndGlyphs">4</text></g>
<polygon points="59.04,1092.16 1608.16,1092.16 1608.16,59.04 59.04,59.04" style="stroke-width: 0.75;" />
<g><text x="833.60" y="34.67" text-anchor="middle" style="font-family: Arial;font-size: 14.40px;font-weight: bold;" textLength="151.94px" lengthAdjust="spacingAndGlyphs">Cullen and Frey graph</text></g>
<g><text x="833.60" y="1146.88" text-anchor="middle" style="font-family: Arial;font-size: 12.00px;" textLength="106.08px" lengthAdjust="spacingAndGlyphs">square of skewness</text></g>
<g><text transform="translate(12.96,575.60) rotate(-90.00)" text-anchor="middle" style="font-family: Arial;font-size: 12.00px;" textLength="41.36px" lengthAdjust="spacingAndGlyphs">kurtosis</text></g>
<line x1="59.04" y1="1053.90" x2="59.04" y2="97.30" style="stroke-width: 0.75;"/>
<line x1="59.04" y1="1053.90" x2="51.84" y2="1053.90" style="stroke-width: 0.75;"/>
<line x1="59.04" y1="947.61" x2="51.84" y2="947.61" style="stroke-width: 0.75;"/>
<line x1="59.04" y1="841.32" x2="51.84" y2="841.32" style="stroke-width: 0.75;"/>
<line x1="59.04" y1="735.03" x2="51.84" y2="735.03" style="stroke-width: 0.75;"/>
<line x1="59.04" y1="628.74" x2="51.84" y2="628.74" style="stroke-width: 0.75;"/>
<line x1="59.04" y1="522.46" x2="51.84" y2="522.46" style="stroke-width: 0.75;"/>
<line x1="59.04" y1="416.17" x2="51.84" y2="416.17" style="stroke-width: 0.75;"/>
<line x1="59.04" y1="309.88" x2="51.84" y2="309.88" style="stroke-width: 0.75;"/>
<line x1="59.04" y1="203.59" x2="51.84" y2="203.59" style="stroke-width: 0.75;"/>
<line x1="59.04" y1="97.30" x2="51.84" y2="97.30" style="stroke-width: 0.75;"/>
<g><text transform="translate(41.76,1053.90) rotate(-90.00)" text-anchor="middle" style="font-family: Arial;font-size: 12.00px;" textLength="13.35px" lengthAdjust="spacingAndGlyphs">10</text></g>
<g><text transform="translate(41.76,947.61) rotate(-90.00)" text-anchor="middle" style="font-family: Arial;font-size: 12.00px;" textLength="6.67px" lengthAdjust="spacingAndGlyphs">9</text></g>
<g><text transform="translate(41.76,841.32) rotate(-90.00)" text-anchor="middle" style="font-family: Arial;font-size: 12.00px;" textLength="6.67px" lengthAdjust="spacingAndGlyphs">8</text></g>
<g><text transform="translate(41.76,735.03) rotate(-90.00)" text-anchor="middle" style="font-family: Arial;font-size: 12.00px;" textLength="6.67px" lengthAdjust="spacingAndGlyphs">7</text></g>
<g><text transform="translate(41.76,628.74) rotate(-90.00)" text-anchor="middle" style="font-family: Arial;font-size: 12.00px;" textLength="6.67px" lengthAdjust="spacingAndGlyphs">6</text></g>
<g><text transform="translate(41.76,522.46) rotate(-90.00)" text-anchor="middle" style="font-family: Arial;font-size: 12.00px;" textLength="6.67px" lengthAdjust="spacingAndGlyphs">5</text></g>
<g><text transform="translate(41.76,416.17) rotate(-90.00)" text-anchor="middle" style="font-family: Arial;font-size: 12.00px;" textLength="6.67px" lengthAdjust="spacingAndGlyphs">4</text></g>
<g><text transform="translate(41.76,309.88) rotate(-90.00)" text-anchor="middle" style="font-family: Arial;font-size: 12.00px;" textLength="6.67px" lengthAdjust="spacingAndGlyphs">3</text></g>
<g><text transform="translate(41.76,203.59) rotate(-90.00)" text-anchor="middle" style="font-family: Arial;font-size: 12.00px;" textLength="6.67px" lengthAdjust="spacingAndGlyphs">2</text></g>
<g><text transform="translate(41.76,97.30) rotate(-90.00)" text-anchor="middle" style="font-family: Arial;font-size: 12.00px;" textLength="6.67px" lengthAdjust="spacingAndGlyphs">1</text></g>
</g><g clip-path="url(#c3)">
<polygon points="116.41,97.30 120.00,98.37 130.81,101.57 148.93,106.94 174.56,114.54 207.95,124.43 249.43,136.73 299.42,151.55 358.42,169.03 427.02,189.37 505.90,212.75 595.87,239.41 697.80,269.63 812.74,303.70 941.82,341.96 1086.34,384.79 1247.75,432.63 1427.66,485.96 1627.86,545.30 1850.38,611.26 2097.42,684.48 2371.47,765.71 2675.27,855.76 3011.85,955.52 3384.59,1066.00 3797.22,1188.31 4253.86,1323.66 4759.09,1473.41 5317.96,1639.06 5936.07,1822.27 6619.61,2024.87 7375.40,2248.89 8192.00,2490.93 8192.00,3900.33 7968.08,3800.77 7220.90,3468.57 6544.82,3167.98 5933.07,2896.00 5379.55,2649.89 4878.69,2427.21 4425.50,2225.72 4015.44,2043.41 3644.40,1878.44 3308.66,1729.17 3004.88,1594.11 2730.01,1471.90 2481.29,1361.32 2256.24,1261.26 2052.61,1170.72 1868.36,1088.80 1701.64,1014.68 1550.79,947.61 1414.29,886.92 1290.78,832.01 1179.02,782.32 1077.90,737.36 986.40,696.68 903.61,659.87 828.70,626.57 760.92,596.43 699.59,569.16 644.09,544.49 593.88,522.16 548.44,501.96 507.33,483.68 470.13,467.14 436.47,452.18 406.01,438.63 378.45,426.38 353.51,415.30 330.95,405.26 310.54,396.19 292.06,387.97 275.35,380.54 260.22,373.82 246.54,367.73 234.16,362.23 222.95,357.25 212.81,352.74 203.64,348.66 195.34,344.97 187.83,341.63 181.03,338.61 174.88,335.88 169.32,333.40 164.28,331.16 159.73,329.14 155.61,327.30 151.88,325.65 148.50,324.15 145.45,322.79 142.69,321.56 140.19,320.45 137.92,319.44 135.88,318.53 134.03,317.71 132.35,316.96 130.83,316.29 129.46,315.68 128.22,315.13 127.10,314.63 126.08,314.18 125.16,313.77 124.33,313.40 123.57,313.06 122.89,312.76 122.28,312.49 121.72,312.24 121.21,312.01 120.76,311.81 120.34,311.63 119.97,311.46 119.63,311.31 119.33,311.17 119.05,311.05 118.80,310.94 118.57,310.84 118.37,310.75 118.18,310.66 118.01,310.59 117.86,310.52 117.72,310.46 117.60,310.41 117.49,310.36 117.38,310.31 117.29,310.27 117.21,310.23 117.13,310.20 117.06,310.17 117.00,310.14 116.95,310.12 116.90,310.09 116.85,310.07 116.81,310.05 116.77,310.04 116.74,310.02 116.71,310.01 116.68,310.00 116.65,309.99 116.63,309.98 116.61,309.97 116.59,309.96 116.57,309.95 116.56,309.94 116.55,309.94 116.53,309.93 116.52,309.93 116.51,309.92 116.50,309.92 116.49,309.92 116.49,309.91 116.48,309.91 116.47,309.91 116.47,309.90 116.46,309.90 116.46,309.90 116.45,309.90 116.45,309.90 116.45,309.89 116.44,309.89 116.44,309.89 116.44,309.89 116.44,309.89 116.43,309.89 116.43,309.89 116.43,309.89 116.43,309.89 116.43,309.89 116.43,309.89 116.43,309.88 116.42,309.88 116.42,309.88 116.42,309.88 116.42,309.88 116.42,309.88 116.42,309.88 116.42,309.88 116.42,309.88 116.42,309.88 116.42,309.88 116.42,309.88 116.42,309.88 116.42,309.88 116.42,309.88 116.42,309.88 116.42,309.88 116.42,309.88 116.42,309.88 116.42,309.88 116.42,309.88 116.42,309.88 116.42,309.88 116.42,309.88 116.42,309.88 116.42,309.88 116.42,309.88 116.42,309.88 116.42,309.88 116.42,309.88 116.42,309.88 116.42,309.88 116.42,309.88 116.42,309.88 116.42,309.88 116.42,309.88 116.42,309.88 116.42,309.88 116.42,309.88 116.42,309.88 116.42,309.88 116.41,309.88 116.41,309.88 116.41,309.88 116.41,309.88 116.41,309.88 116.41,309.88 116.41,309.88 116.41,309.88 116.41,309.88 116.41,309.88 116.41,309.88 116.41,309.88 116.41,309.88 116.41,309.88 116.41,309.88 116.41,309.88 116.41,309.88 116.41,309.88 116.41,309.88 116.41,309.88 116.41,309.88 116.41,309.88 116.41,309.88 116.41,309.88 116.41,309.88 116.41,309.88 116.41,309.88 116.41,309.88 116.41,309.88 116.41,309.88 116.41,309.88 116.41,309.88 116.41,309.88 116.41,309.88 116.41,309.88 116.41,309.88 116.41,309.88 116.41,309.88 116.41,309.88 116.41,309.88 116.41,309.88 116.41,309.88 116.41,309.88 116.41,309.88 116.41,309.88 116.41,309.88 116.41,309.88 116.41,309.88 116.41,309.88 116.41,309.88 116.41,309.88 116.41,309.88 116.41,309.88 116.41,309.88 116.41,309.88 116.41,309.88 116.41,309.88 116.41,309.88 116.41,309.88 116.41,309.88 116.41,309.88 116.41,309.88 116.41,309.88 116.41,309.88 116.41,309.88 116.41,309.88 116.41,309.88 116.41,309.88 116.41,309.88 116.41,309.88 116.41,309.88 116.41,309.88 116.41,309.88 116.41,309.88 116.41,309.88 116.41,309.88 116.41,309.88 116.41,309.88 116.41,309.88 116.41,309.88 116.41,309.88 116.41,309.88 116.41,309.88 116.41,309.88 116.41,309.88 116.41,309.88 116.41,309.88 116.41,309.88 116.41,309.88 116.41,309.88 116.41,309.88 116.41,309.88 116.41,309.88 116.41,309.88 116.41,309.88 116.41,309.88 116.41,309.88 116.41,309.88 116.41,309.88 116.41,309.88 116.41,309.88 116.41,309.88 116.41,309.88 116.41,309.88 116.41,309.88 116.41,309.88 116.41,309.88 116.41,309.88 116.41,309.88 116.41,309.88 116.41,309.88 116.41,309.88 116.41,309.88 116.41,309.88 116.41,309.88 116.41,309.88 116.41,309.88 116.41,309.88 116.41,309.88 116.41,309.88 116.41,309.88 116.41,309.88 116.41,309.88 116.41,309.88 116.41,309.88 116.41,309.88 116.41,309.88 116.41,309.88 116.41,309.88 116.41,309.88 116.41,309.88 116.41,309.88 116.41,309.88 116.41,309.88 116.41,309.88 116.41,309.88 116.41,309.88 116.41,309.88 116.41,309.88 116.41,309.88 116.41,309.88 116.41,309.88 116.41,309.88 116.41,309.88 116.41,309.88 116.41,309.88 116.41,309.88 116.41,309.88 116.41,309.88 116.41,309.88 116.41,309.88 116.41,309.88 116.41,309.88 116.41,309.88 116.41,309.88 116.41,309.88 116.41,309.88 116.41,309.88 116.41,309.88 116.41,309.88 116.41,309.88 116.41,309.88 116.41,309.88 116.41,309.88 116.41,309.88 116.41,309.88 116.41,309.88 116.41,309.88 116.41,309.88 116.41,309.88 116.41,309.88 116.41,309.88 116.41,309.88 116.41,309.88 116.41,309.88 116.41,309.88 116.41,309.88 116.41,309.88 116.41,309.88 116.41,309.88 116.41,309.88 116.41,309.88 116.41,309.88 116.41,309.88 116.41,309.88 116.41,309.88 116.41,309.88 116.41,309.88 116.41,309.88 116.41,309.88 116.41,309.88 116.41,309.88 116.41,309.88 116.41,309.88 116.41,309.88 116.41,309.88 116.41,309.88 116.41,309.88 116.41,309.88 116.41,309.88 116.41,309.88 116.41,309.88 116.41,309.88 116.41,309.88 116.41,309.88 116.41,309.88 116.41,309.88 116.41,309.88 116.41,309.88 116.41,309.88 116.41,309.88 116.41,309.88 116.41,309.88 116.41,309.88 116.41,309.88 116.41,309.88 116.41,309.88 116.41,309.88 116.41,309.88 116.41,309.88 116.41,309.88 116.41,309.88 116.41,309.88 116.41,309.88 116.41,309.88 116.41,309.88 116.41,309.88 116.41,309.88 116.41,309.88 116.41,309.88 116.41,309.88 116.41,309.88 116.41,309.88 116.41,309.88 116.41,309.88 116.41,309.88 116.41,309.88 116.41,309.88 116.41,309.88 116.41,309.88 116.41,309.88 116.41,309.88 116.41,309.88 116.41,309.88 116.41,309.88 116.41,309.88 116.41,309.88 116.41,309.88 116.41,309.88 116.41,309.88 116.41,309.88 116.41,309.88 116.41,309.88 116.41,309.88 116.41,309.88 116.41,309.88 116.41,309.88 116.41,309.88 116.41,309.88 116.41,309.88 116.41,309.88 116.41,309.88 116.41,309.88 116.41,309.88 116.41,309.88 116.41,309.88 116.41,309.88 116.41,309.88 116.41,309.88 116.41,309.88 116.41,309.88 116.41,309.88 116.41,309.88 116.41,309.88 116.41,309.88 116.41,309.88 116.41,309.88 116.41,309.88 116.41,309.88 116.41,309.88 116.41,309.88 116.41,309.88 116.41,309.88 116.41,309.88 116.41,309.88 116.41,309.88 116.41,309.88 116.41,309.88 116.41,309.88 116.41,309.88 116.41,309.88 116.41,309.88 116.41,309.88 116.41,309.88 116.41,309.88 116.41,309.88 116.41,309.88 116.41,309.88 116.41,309.88 116.41,309.88 116.41,309.88 116.41,309.88 116.41,309.88 116.41,309.88 116.41,309.88 116.41,309.88 116.41,309.88 116.41,309.88 116.41,309.88 116.41,309.88 116.41,309.88 116.41,309.88 116.41,309.88 116.41,309.88 116.41,309.88 116.41,309.88 116.41,309.88 116.41,309.88 116.41,309.88 116.41,309.88 116.41,309.88 116.41,309.88 116.41,309.88 116.41,309.88 116.41,309.88 116.41,309.88 116.41,309.88 116.41,309.88 116.41,309.88 116.41,309.88 116.41,309.88 116.41,309.88 116.41,309.88 116.41,309.88 116.41,309.88 116.41,309.88 116.41,309.88 116.41,309.88 116.41,309.88 116.41,309.88 116.41,309.88 116.41,309.88 116.41,309.88 116.41,309.88 116.41,309.88 116.41,309.88 116.41,309.88 116.41,309.88 116.41,309.88 116.41,309.88 116.41,309.88 116.41,309.88 116.41,309.88 116.41,309.88 116.41,309.88 116.41,309.88 116.41,309.88 116.41,309.88 116.41,309.88 116.41,309.88 116.41,309.88 116.41,309.88 116.41,309.88 116.41,309.88 116.41,309.88 116.41,309.88 116.41,309.88 116.41,309.88 116.41,309.88 116.41,309.88 116.41,309.88 116.41,309.88 116.41,309.88 116.41,309.88 116.41,309.88 116.41,309.88 116.41,309.88 116.41,309.88 116.41,309.88 116.41,309.88 116.41,309.88 116.41,309.88 116.41,309.88 116.41,309.88 116.41,309.88 116.41,309.88 116.41,309.88 116.41,309.88 116.41,309.88 116.41,309.88 116.41,309.88 116.41,309.88 116.41,309.88 116.41,309.88 116.41,309.88 116.41,309.88 116.41,309.88 116.41,309.88 116.41,309.88 116.41,309.88 116.41,309.88 116.41,309.88 116.41,309.88 116.41,309.88 116.41,309.88 116.41,309.88 116.41,309.88 116.41,309.88 116.41,309.88 116.41,309.88 116.41,309.88 116.41,309.88 116.41,309.88 116.41,309.88 116.41,309.88 116.41,309.88 116.41,309.88 116.41,309.88 116.41,309.88 116.41,309.88 116.41,309.88 116.41,309.88 116.41,309.88 116.41,309.88 116.41,309.88 116.41,309.88 116.41,309.88 116.41,309.88 116.41,309.88 116.41,309.88 116.41,309.88 116.41,309.88 116.41,309.88 116.41,309.88 116.41,309.88 116.41,309.88 116.41,309.88 116.41,309.88 116.41,309.88 116.41,309.88 116.41,309.88 116.41,309.88 116.41,309.88 116.41,309.88 116.41,309.88 116.41,309.88 116.41,309.88 116.41,309.88 116.41,309.88 116.41,309.88 116.41,309.88 116.41,309.88 116.41,309.88 116.41,309.88 116.41,309.88 116.41,309.88 116.41,309.88 116.41,309.88 116.41,309.88 116.41,309.88 116.41,309.88 116.41,309.88 116.41,309.88 116.41,309.88 116.41,309.88 116.41,309.88 116.41,309.88 116.41,309.88 116.41,309.88 116.41,309.88 116.41,309.88 116.41,309.88 116.41,309.88 116.41,309.88 116.41,309.88 116.41,309.88 116.41,309.88 116.41,309.88 116.41,309.88 116.41,309.88 116.41,309.88 116.41,309.88 116.41,309.88 116.41,309.88 116.41,309.88 116.41,309.88 116.41,309.88 116.41,309.88 116.41,309.88 116.41,309.88 116.41,309.88 116.41,309.88 116.41,309.88 116.41,309.88 116.41,309.88 116.41,309.88 116.41,309.88 116.41,309.88 116.41,309.88 116.41,309.88 116.41,309.88 116.41,309.88 116.41,309.88 116.41,309.88 116.41,309.88 116.41,309.88 116.41,309.88 116.41,309.88 116.41,309.88 116.41,309.88 116.41,309.88 116.41,309.88 116.41,309.88 116.41,309.88 116.41,309.88 116.41,309.88 116.41,309.88 116.41,309.88 116.41,309.88 116.41,309.88 116.41,309.88 116.41,309.88 116.41,309.88 116.41,309.88 116.41,309.88 116.41,309.88 116.41,309.88 116.41,309.88 116.41,309.88 116.41,309.88 116.41,309.88 116.41,309.88 116.41,309.88 116.41,309.88 116.41,309.88 116.41,309.88 116.41,309.88 116.41,309.88 116.41,309.88 116.41,309.88 116.41,309.88 116.41,309.88 116.41,309.88 116.41,309.88 116.41,309.88 116.41,309.88 116.41,309.88 116.41,309.88 116.41,309.88 116.41,309.88 116.41,309.88 116.41,309.88 116.41,309.88 116.41,309.88 116.41,309.88 116.41,309.88 116.41,309.88 116.41,309.88 116.41,309.88 116.41,309.88 116.41,309.88 116.41,309.88 116.41,309.88 116.41,309.88 116.41,309.88 116.41,309.88 116.41,309.88 116.41,309.88 116.41,309.88 116.41,309.88 116.41,309.88 116.41,309.88 116.41,309.88 116.41,309.88 116.41,309.88 116.41,309.88 116.41,309.88 116.41,309.88 116.41,309.88 116.41,309.88 116.41,309.88 116.41,309.88 116.41,309.88 116.41,309.88 116.41,309.88 116.41,309.88 116.41,309.88 116.41,309.88 116.41,309.88 116.41,309.88 116.41,309.88 116.41,309.88 116.41,309.88 116.41,309.88 116.41,309.88 116.41,309.88 116.41,309.88 116.41,309.88 116.41,309.88 116.41,309.88 116.41,309.88 116.41,309.88 116.41,309.88 116.41,309.88 116.41,309.88 116.41,309.88 116.41,309.88 116.41,309.88 116.41,309.88 116.41,309.88 116.41,309.88 116.41,309.88 116.41,309.88 116.41,309.88 116.41,309.88 116.41,309.88 116.41,309.88 116.41,309.88 116.41,309.88 116.41,309.88 116.41,309.88 116.41,309.88 116.41,309.88 116.41,309.88 116.41,309.88 116.41,309.88 116.41,309.88 116.41,309.88 116.41,309.88 116.41,309.88 116.41,309.88 116.41,309.88 116.41,309.88 116.41,309.88 116.41,309.88 116.41,309.88 116.41,309.88 116.41,309.88 116.41,309.88 116.41,309.88 116.41,309.88 116.41,309.88 116.41,309.88 116.41,309.88 116.41,309.88 116.41,309.88 116.41,309.88 116.41,309.88 116.41,309.88 116.41,309.88 116.41,309.88 116.41,309.88 116.41,309.88 116.41,309.88 116.41,309.88 116.41,309.88 116.41,309.88 116.41,309.88 116.41,309.88 116.41,309.88 116.41,309.88 116.41,309.88 116.41,309.88 116.41,309.88 116.41,309.88 116.41,309.88 116.41,309.88 116.41,309.88 116.41,309.88 116.41,309.88 116.41,309.88 116.41,309.88 116.41,309.88 116.41,309.88 116.41,309.88 116.41,309.88 116.41,309.88 116.41,309.88 116.41,309.88 116.41,309.88 116.41,309.88 116.41,309.88 116.41,309.88 116.41,309.88 116.41,309.88 116.41,309.88 116.41,309.88 116.41,309.88 116.41,309.88 116.41,309.88 116.41,309.88 116.41,309.88 116.41,309.88 116.41,309.88 116.41,309.88 116.41,309.88 116.41,309.88 116.41,309.88 116.41,309.88 116.41,309.88 116.41,309.88 116.41,309.88 116.41,309.88 116.41,309.88 116.41,309.88 116.41,309.88 116.41,309.88 116.41,309.88 116.41,309.88 116.41,309.88 116.41,309.88 116.41,309.88 116.41,309.88 116.41,309.88 116.41,309.88 116.41,309.88 116.41,309.88 116.41,309.88 116.41,309.88 116.41,309.88 116.41,309.88 116.41,309.88 116.41,309.88 116.41,309.88 116.41,309.88 116.41,309.88 116.41,309.88 116.41,309.88 116.41,309.88 116.41,309.88 116.41,309.88 116.41,309.88 116.41,309.88 116.41,309.88 116.41,309.88 116.41,309.88 116.41,309.88 116.41,309.88 116.41,309.88 116.41,309.88 116.41,309.88 116.41,309.88 116.41,309.88 116.41,309.88 116.41,309.88 116.41,309.88 116.41,309.88 116.41,309.88 116.41,309.88 116.41,309.88 116.41,309.88 116.41,309.88 116.41,309.88 116.41,309.88 116.41,309.88 116.41,309.88 116.41,309.88 116.41,309.88 116.41,309.88 116.41,309.88 116.41,309.88 116.41,309.88 116.41,309.88 116.41,309.88 116.41,309.88 116.41,309.88 116.41,309.88 116.41,309.88 116.41,309.88 116.41,309.88 116.41,309.88 116.41,309.88 116.41,309.88 116.41,309.88 116.41,309.88 116.41,309.88 116.41,309.88 116.41,309.88 116.41,309.88 116.41,309.88 116.41,309.88 116.41,309.88 116.41,309.88 116.41,309.88 116.41,309.88 116.41,309.88 116.41,309.88 116.41,309.88 116.41,309.88 116.41,309.88 116.41,309.88 116.41,309.88 116.41,309.88 116.41,309.88 116.41,309.88 116.41,309.88 116.41,309.88 116.41,309.88 116.41,309.88 116.41,309.88 116.41,309.88 116.41,309.88 116.41,309.88 116.41,309.88 116.41,309.88 116.41,309.88 116.41,309.88 116.41,309.88 116.41,309.88 116.41,309.88 116.41,309.88 116.41,309.88 116.41,309.88 116.41,309.88 116.41,309.88 116.41,309.88 116.41,309.88 116.41,309.88 116.41,309.88 116.41,309.88 116.41,309.88 116.41,309.88 116.41,309.88 116.41,309.88 116.41,309.88 116.41,309.88 116.41,309.88 116.41,309.88 116.41,309.88 116.41,309.88 116.41,309.88 116.41,309.88 116.41,309.88 116.41,309.88 116.41,309.88 116.41,309.88 116.41,309.88 116.41,309.88 116.41,309.88 116.41,309.88 116.41,309.88 116.41,309.88" style="stroke-width: 0.75;stroke: #D3D3D3;fill: #D3D3D3;" />
<polyline points="8192.00,3900.33 7968.08,3800.77 7220.90,3468.57 6544.82,3167.98 5933.07,2896.00 5379.55,2649.89 4878.69,2427.21 4425.50,2225.72 4015.44,2043.41 3644.40,1878.44 3308.66,1729.17 3004.88,1594.11 2730.01,1471.90 2481.29,1361.32 2256.24,1261.26 2052.61,1170.72 1868.36,1088.80 1701.64,1014.68 1550.79,947.61 1414.29,886.92 1290.78,832.01 1179.02,782.32 1077.90,737.36 986.40,696.68 903.61,659.87 828.70,626.57 760.92,596.43 699.59,569.16 644.09,544.49 593.88,522.16 548.44,501.96 507.33,483.68 470.13,467.14 436.47,452.18 406.01,438.63 378.45,426.38 353.51,415.30 330.95,405.26 310.54,396.19 292.06,387.97 275.35,380.54 260.22,373.82 246.54,367.73 234.16,362.23 222.95,357.25 212.81,352.74 203.64,348.66 195.34,344.97 187.83,341.63 181.03,338.61 174.88,335.88 169.32,333.40 164.28,331.16 159.73,329.14 155.61,327.30 151.88,325.65 148.50,324.15 145.45,322.79 142.69,321.56 140.19,320.45 137.92,319.44 135.88,318.53 134.03,317.71 132.35,316.96 130.83,316.29 129.46,315.68 128.22,315.13 127.10,314.63 126.08,314.18 125.16,313.77 124.33,313.40 123.57,313.06 122.89,312.76 122.28,312.49 121.72,312.24 121.21,312.01 120.76,311.81 120.34,311.63 119.97,311.46 119.63,311.31 119.33,311.17 119.05,311.05 118.80,310.94 118.57,310.84 118.37,310.75 118.18,310.66 118.01,310.59 117.86,310.52 117.72,310.46 117.60,310.41 117.49,310.36 117.38,310.31 117.29,310.27 117.21,310.23 117.13,310.20 117.06,310.17 117.00,310.14 116.95,310.12 116.90,310.09 116.85,310.07 116.81,310.05 116.77,310.04 116.74,310.02 116.71,310.01 116.68,310.00 116.65,309.99 116.63,309.98 116.61,309.97 116.59,309.96 116.57,309.95 116.56,309.94 116.55,309.94 116.53,309.93 116.52,309.93 116.51,309.92 116.50,309.92 116.49,309.92 116.49,309.91 116.48,309.91 116.47,309.91 116.47,309.90 116.46,309.90 116.46,309.90 116.45,309.90 116.45,309.90 116.45,309.89 116.44,309.89 116.44,309.89 116.44,309.89 116.44,309.89 116.43,309.89 116.43,309.89 116.43,309.89 116.43,309.89 116.43,309.89 116.43,309.89 116.43,309.88 116.42,309.88 116.42,309.88 116.42,309.88 116.42,309.88 116.42,309.88 116.42,309.88 116.42,309.88 116.42,309.88 116.42,309.88 116.42,309.88 116.42,309.88 116.42,309.88 116.42,309.88 116.42,309.88 116.42,309.88 116.42,309.88 116.42,309.88 116.42,309.88 116.42,309.88 116.42,309.88 116.42,309.88 116.42,309.88 116.42,309.88 116.42,309.88 116.42,309.88 116.42,309.88 116.42,309.88 116.42,309.88 116.42,309.88 116.42,309.88 116.42,309.88 116.42,309.88 116.42,309.88 116.42,309.88 116.42,309.88 116.42,309.88 116.42,309.88 116.42,309.88 116.42,309.88 116.42,309.88 116.41,309.88 116.41,309.88 116.41,309.88 116.41,309.88 116.41,309.88 116.41,309.88 116.41,309.88 116.41,309.88 116.41,309.88 116.41,309.88 116.41,309.88 116.41,309.88 116.41,309.88 116.41,309.88 116.41,309.88 116.41,309.88 116.41,309.88 116.41,309.88 116.41,309.88 116.41,309.88 116.41,309.88 116.41,309.88 116.41,309.88 116.41,309.88 116.41,309.88 116.41,309.88 116.41,309.88 116.41,309.88 116.41,309.88 116.41,309.88 116.41,309.88 116.41,309.88 116.41,309.88 116.41,309.88 116.41,309.88 116.41,309.88 116.41,309.88 116.41,309.88 116.41,309.88 116.41,309.88 116.41,309.88 116.41,309.88 116.41,309.88 116.41,309.88 116.41,309.88 116.41,309.88 116.41,309.88 116.41,309.88 116.41,309.88 116.41,309.88 116.41,309.88 116.41,309.88 116.41,309.88 116.41,309.88 116.41,309.88 116.41,309.88 116.41,309.88 116.41,309.88 116.41,309.88 116.41,309.88 116.41,309.88 116.41,309.88 116.41,309.88 116.41,309.88 116.41,309.88 116.41,309.88 116.41,309.88 116.41,309.88 116.41,309.88 116.41,309.88 116.41,309.88 116.41,309.88 116.41,309.88 116.41,309.88 116.41,309.88 116.41,309.88 116.41,309.88 116.41,309.88 116.41,309.88 116.41,309.88 116.41,309.88 116.41,309.88 116.41,309.88 116.41,309.88 116.41,309.88 116.41,309.88 116.41,309.88 116.41,309.88 116.41,309.88 116.41,309.88 116.41,309.88 116.41,309.88 116.41,309.88 116.41,309.88 116.41,309.88 116.41,309.88 116.41,309.88 116.41,309.88 116.41,309.88 116.41,309.88 116.41,309.88 116.41,309.88 116.41,309.88 116.41,309.88 116.41,309.88 116.41,309.88 116.41,309.88 116.41,309.88 116.41,309.88 116.41,309.88 116.41,309.88 116.41,309.88 116.41,309.88 116.41,309.88 116.41,309.88 116.41,309.88 116.41,309.88 116.41,309.88 116.41,309.88 116.41,309.88 116.41,309.88 116.41,309.88 116.41,309.88 116.41,309.88 116.41,309.88 116.41,309.88 116.41,309.88 116.41,309.88 116.41,309.88 116.41,309.88 116.41,309.88 116.41,309.88 116.41,309.88 116.41,309.88 116.41,309.88 116.41,309.88 116.41,309.88 116.41,309.88 116.41,309.88 116.41,309.88 116.41,309.88 116.41,309.88 116.41,309.88 116.41,309.88 116.41,309.88 116.41,309.88 116.41,309.88 116.41,309.88 116.41,309.88 116.41,309.88 116.41,309.88 116.41,309.88 116.41,309.88 116.41,309.88 116.41,309.88 116.41,309.88 116.41,309.88 116.41,309.88 116.41,309.88 116.41,309.88 116.41,309.88 116.41,309.88 116.41,309.88 116.41,309.88 116.41,309.88 116.41,309.88 116.41,309.88 116.41,309.88 116.41,309.88 116.41,309.88 116.41,309.88 116.41,309.88 116.41,309.88 116.41,309.88 116.41,309.88 116.41,309.88 116.41,309.88 116.41,309.88 116.41,309.88 116.41,309.88 116.41,309.88 116.41,309.88 116.41,309.88 116.41,309.88 116.41,309.88 116.41,309.88 116.41,309.88 116.41,309.88 116.41,309.88 116.41,309.88 116.41,309.88 116.41,309.88 116.41,309.88 116.41,309.88 116.41,309.88 116.41,309.88 116.41,309.88 116.41,309.88 116.41,309.88 116.41,309.88 116.41,309.88 116.41,309.88 116.41,309.88 116.41,309.88 116.41,309.88 116.41,309.88 116.41,309.88 116.41,309.88 116.41,309.88 116.41,309.88 116.41,309.88 116.41,309.88 116.41,309.88 116.41,309.88 116.41,309.88 116.41,309.88 116.41,309.88 116.41,309.88 116.41,309.88 116.41,309.88 116.41,309.88 116.41,309.88 116.41,309.88 116.41,309.88 116.41,309.88 116.41,309.88 116.41,309.88 116.41,309.88 116.41,309.88 116.41,309.88 116.41,309.88 116.41,309.88 116.41,309.88 116.41,309.88 116.41,309.88 116.41,309.88 116.41,309.88 116.41,309.88 116.41,309.88 116.41,309.88 116.41,309.88 116.41,309.88 116.41,309.88 116.41,309.88 116.41,309.88 116.41,309.88 116.41,309.88 116.41,309.88 116.41,309.88 116.41,309.88 116.41,309.88 116.41,309.88 116.41,309.88 116.41,309.88 116.41,309.88 116.41,309.88 116.41,309.88 116.41,309.88 116.41,309.88 116.41,309.88 116.41,309.88 116.41,309.88 116.41,309.88 116.41,309.88 116.41,309.88 116.41,309.88 116.41,309.88 116.41,309.88 116.41,309.88 116.41,309.88 116.41,309.88 116.41,309.88 116.41,309.88 116.41,309.88 116.41,309.88 116.41,309.88 116.41,309.88 116.41,309.88 116.41,309.88 116.41,309.88 116.41,309.88 116.41,309.88 116.41,309.88 116.41,309.88 116.41,309.88 116.41,309.88 116.41,309.88 116.41,309.88 116.41,309.88 116.41,309.88 116.41,309.88 116.41,309.88 116.41,309.88 116.41,309.88 116.41,309.88 116.41,309.88 116.41,309.88 116.41,309.88 116.41,309.88 116.41,309.88 116.41,309.88 116.41,309.88 116.41,309.88 116.41,309.88 116.41,309.88 116.41,309.88 116.41,309.88 116.41,309.88 116.41,309.88 116.41,309.88 116.41,309.88 116.41,309.88 116.41,309.88 116.41,309.88 116.41,309.88 116.41,309.88 116.41,309.88 116.41,309.88 116.41,309.88 116.41,309.88 116.41,309.88 116.41,309.88 116.41,309.88 116.41,309.88 116.41,309.88 116.41,309.88 116.41,309.88 116.41,309.88 116.41,309.88 116.41,309.88 116.41,309.88 116.41,309.88 116.41,309.88 116.41,309.88 116.41,309.88 116.41,309.88 116.41,309.88 116.41,309.88 116.41,309.88 116.41,309.88 116.41,309.88 116.41,309.88 116.41,309.88 116.41,309.88 116.41,309.88 116.41,309.88 116.41,309.88 116.41,309.88 116.41,309.88 116.41,309.88 116.41,309.88 116.41,309.88 116.41,309.88 116.41,309.88 116.41,309.88 116.41,309.88 116.41,309.88 116.41,309.88 116.41,309.88 116.41,309.88 116.41,309.88 116.41,309.88 116.41,309.88 116.41,309.88 116.41,309.88 116.41,309.88 116.41,309.88 116.41,309.88 116.41,309.88 116.41,309.88 116.41,309.88 116.41,309.88 116.41,309.88 116.41,309.88 116.41,309.88 116.41,309.88 116.41,309.88 116.41,309.88 116.41,309.88 116.41,309.88 116.41,309.88 116.41,309.88 116.41,309.88 116.41,309.88 116.41,309.88 116.41,309.88 116.41,309.88 116.41,309.88 116.41,309.88 116.41,309.88 116.41,309.88 116.41,309.88 116.41,309.88 116.41,309.88 116.41,309.88 116.41,309.88 116.41,309.88 116.41,309.88 116.41,309.88 116.41,309.88 116.41,309.88 116.41,309.88 116.41,309.88 116.41,309.88 116.41,309.88 116.41,309.88 116.41,309.88 116.41,309.88 116.41,309.88 116.41,309.88 116.41,309.88 116.41,309.88 116.41,309.88 116.41,309.88 116.41,309.88 116.41,309.88 116.41,309.88 116.41,309.88 116.41,309.88 116.41,309.88 116.41,309.88 116.41,309.88 116.41,309.88 116.41,309.88 116.41,309.88 116.41,309.88 116.41,309.88 116.41,309.88 116.41,309.88 116.41,309.88 116.41,309.88 116.41,309.88 116.41,309.88 116.41,309.88 116.41,309.88 116.41,309.88 116.41,309.88 116.41,309.88 116.41,309.88 116.41,309.88 116.41,309.88 116.41,309.88 116.41,309.88 116.41,309.88 116.41,309.88 116.41,309.88 116.41,309.88 116.41,309.88 116.41,309.88 116.41,309.88 116.41,309.88 116.41,309.88 116.41,309.88 116.41,309.88 116.41,309.88 116.41,309.88 116.41,309.88 116.41,309.88 116.41,309.88 116.41,309.88 116.41,309.88 116.41,309.88 116.41,309.88 116.41,309.88 116.41,309.88 116.41,309.88 116.41,309.88 116.41,309.88 116.41,309.88 116.41,309.88 116.41,309.88 116.41,309.88 116.41,309.88 116.41,309.88 116.41,309.88 116.41,309.88 116.41,309.88 116.41,309.88 116.41,309.88 116.41,309.88 116.41,309.88 116.41,309.88 116.41,309.88 116.41,309.88 116.41,309.88 116.41,309.88 116.41,309.88 116.41,309.88 116.41,309.88 116.41,309.88 116.41,309.88 116.41,309.88 116.41,309.88 116.41,309.88 116.41,309.88 116.41,309.88 116.41,309.88 116.41,309.88 116.41,309.88 116.41,309.88 116.41,309.88 116.41,309.88 116.41,309.88 116.41,309.88 116.41,309.88 116.41,309.88 116.41,309.88 116.41,309.88 116.41,309.88 116.41,309.88 116.41,309.88 116.41,309.88 116.41,309.88 116.41,309.88 116.41,309.88 116.41,309.88 116.41,309.88 116.41,309.88 116.41,309.88 116.41,309.88 116.41,309.88 116.41,309.88 116.41,309.88 116.41,309.88 116.41,309.88 116.41,309.88 116.41,309.88 116.41,309.88 116.41,309.88 116.41,309.88 116.41,309.88 116.41,309.88 116.41,309.88 116.41,309.88 116.41,309.88 116.41,309.88 116.41,309.88 116.41,309.88 116.41,309.88 116.41,309.88 116.41,309.88 116.41,309.88 116.41,309.88 116.41,309.88 116.41,309.88 116.41,309.88 116.41,309.88 116.41,309.88 116.41,309.88 116.41,309.88 116.41,309.88 116.41,309.88 116.41,309.88 116.41,309.88 116.41,309.88 116.41,309.88 116.41,309.88 116.41,309.88 116.41,309.88 116.41,309.88 116.41,309.88 116.41,309.88 116.41,309.88 116.41,309.88 116.41,309.88 116.41,309.88 116.41,309.88 116.41,309.88 116.41,309.88 116.41,309.88 116.41,309.88 116.41,309.88 116.41,309.88 116.41,309.88 116.41,309.88 116.41,309.88 116.41,309.88 116.41,309.88 116.41,309.88 116.41,309.88 116.41,309.88 116.41,309.88 116.41,309.88 116.41,309.88 116.41,309.88 116.41,309.88 116.41,309.88 116.41,309.88 116.41,309.88 116.41,309.88 116.41,309.88 116.41,309.88 116.41,309.88 116.41,309.88 116.41,309.88 116.41,309.88 116.41,309.88 116.41,309.88 116.41,309.88 116.41,309.88 116.41,309.88 116.41,309.88 116.41,309.88 116.41,309.88 116.41,309.88 116.41,309.88 116.41,309.88 116.41,309.88 116.41,309.88 116.41,309.88 116.41,309.88 116.41,309.88 116.41,309.88 116.41,309.88 116.41,309.88 116.41,309.88 116.41,309.88 116.41,309.88 116.41,309.88 116.41,309.88 116.41,309.88 116.41,309.88 116.41,309.88 116.41,309.88 116.41,309.88 116.41,309.88 116.41,309.88 116.41,309.88 116.41,309.88 116.41,309.88 116.41,309.88 116.41,309.88 116.41,309.88 116.41,309.88 116.41,309.88 116.41,309.88 116.41,309.88 116.41,309.88 116.41,309.88 116.41,309.88 116.41,309.88 116.41,309.88 116.41,309.88 116.41,309.88 116.41,309.88 116.41,309.88 116.41,309.88 116.41,309.88 116.41,309.88 116.41,309.88 116.41,309.88 116.41,309.88 116.41,309.88 116.41,309.88 116.41,309.88 116.41,309.88 116.41,309.88 116.41,309.88 116.41,309.88 116.41,309.88 116.41,309.88 116.41,309.88 116.41,309.88 116.41,309.88 116.41,309.88 116.41,309.88 116.41,309.88 116.41,309.88 116.41,309.88 116.41,309.88 116.41,309.88 116.41,309.88 116.41,309.88 116.41,309.88 116.41,309.88 116.41,309.88 116.41,309.88 116.41,309.88 116.41,309.88 116.41,309.88 116.41,309.88 116.41,309.88 116.41,309.88 116.41,309.88 116.41,309.88 116.41,309.88 116.41,309.88 116.41,309.88 116.41,309.88 116.41,309.88 116.41,309.88 116.41,309.88 116.41,309.88 116.41,309.88 116.41,309.88 116.41,309.88 116.41,309.88 116.41,309.88 116.41,309.88 116.41,309.88 116.41,309.88 116.41,309.88 116.41,309.88 116.41,309.88 116.41,309.88 116.41,309.88 116.41,309.88 116.41,309.88 116.41,309.88 116.41,309.88 116.41,309.88 116.41,309.88 116.41,309.88 116.41,309.88 116.41,309.88 116.41,309.88 116.41,309.88 116.41,309.88 116.41,309.88 116.41,309.88 116.41,309.88 116.41,309.88 116.41,309.88 116.41,309.88 116.41,309.88 116.41,309.88 116.41,309.88 116.41,309.88 116.41,309.88 116.41,309.88 116.41,309.88 116.41,309.88 116.41,309.88 116.41,309.88 116.41,309.88 116.41,309.88 116.41,309.88 116.41,309.88 116.41,309.88 116.41,309.88 116.41,309.88 116.41,309.88 116.41,309.88 116.41,309.88 116.41,309.88 116.41,309.88 116.41,309.88 116.41,309.88 116.41,309.88 116.41,309.88 116.41,309.88 116.41,309.88 116.41,309.88 116.41,309.88 116.41,309.88 116.41,309.88 116.41,309.88 116.41,309.88 116.41,309.88 116.41,309.88 116.41,309.88 116.41,309.88 116.41,309.88 116.41,309.88 116.41,309.88 116.41,309.88 116.41,309.88 116.41,309.88 116.41,309.88 116.41,309.88 116.41,309.88 116.41,309.88 116.41,309.88 116.41,309.88 116.41,309.88 116.41,309.88 116.41,309.88 116.41,309.88 116.41,309.88 116.41,309.88 116.41,309.88 116.41,309.88 116.41,309.88 116.41,309.88 116.41,309.88 116.41,309.88 116.41,309.88 116.41,309.88 116.41,309.88 116.41,309.88 116.41,309.88 116.41,309.88 116.41,309.88 116.41,309.88 116.41,309.88 116.41,309.88 116.41,309.88 116.41,309.88 116.41,309.88 116.41,309.88 116.41,309.88 116.41,309.88 116.41,309.88 116.41,309.88 116.41,309.88 116.41,309.88 116.41,309.88 116.41,309.88 116.41,309.88 116.41,309.88 116.41,309.88 116.41,309.88 116.41,309.88 116.41,309.88 116.41,309.88 116.41,309.88 116.41,309.88 116.41,309.88 116.41,309.88 116.41,309.88 116.41,309.88 116.41,309.88 116.41,309.88 116.41,309.88 116.41,309.88 116.41,309.88 116.41,309.88 116.41,309.88 116.41,309.88 116.41,309.88 116.41,309.88 116.41,309.88 116.41,309.88 116.41,309.88 116.41,309.88 116.41,309.88 116.41,309.88 116.41,309.88 116.41,309.88 116.41,309.88 116.41,309.88 116.41,309.88" style="stroke-width: 0.75; stroke-dasharray: 4.00, 4.00;"/>
<polyline points="116.41,309.88 116.41,309.88 116.41,309.88 116.41,309.88 116.41,309.88 116.41,309.88 116.41,309.88 116.41,309.88 116.41,309.88 116.41,309.88 116.41,309.88 116.41,309.88 116.41,309.88 116.41,309.88 116.41,309.88 116.41,309.88 116.41,309.88 116.41,309.88 116.41,309.88 116.41,309.88 116.41,309.88 116.41,309.88 116.41,309.88 116.41,309.88 116.41,309.88 116.41,309.88 116.41,309.88 116.41,309.88 116.41,309.88 116.41,309.88 116.41,309.88 116.41,309.88 116.41,309.88 116.41,309.88 116.41,309.88 116.41,309.88 116.41,309.88 116.41,309.88 116.41,309.88 116.41,309.88 116.41,309.88 116.41,309.88 116.41,309.88 116.41,309.88 116.41,309.88 116.41,309.88 116.41,309.88 116.41,309.88 116.41,309.88 116.41,309.88 116.41,309.88 116.41,309.88 116.41,309.88 116.41,309.88 116.41,309.88 116.41,309.88 116.41,309.88 116.41,309.88 116.41,309.88 116.41,309.88 116.41,309.88 116.41,309.88 116.41,309.88 116.41,309.88 116.41,309.88 116.41,309.88 116.41,309.88 116.41,309.88 116.41,309.88 116.41,309.88 116.41,309.88 116.41,309.88 116.41,309.88 116.41,309.88 116.41,309.88 116.41,309.88 116.41,309.88 116.41,309.88 116.41,309.88 116.41,309.88 116.41,309.88 116.41,309.88 116.41,309.88 116.41,309.88 116.41,309.88 116.41,309.88 116.41,309.88 116.41,309.88 116.41,309.88 116.41,309.88 116.41,309.88 116.41,309.88 116.41,309.88 116.41,309.88 116.41,309.88 116.41,309.88 116.41,309.88 116.41,309.88 116.41,309.88 116.41,309.88 116.41,309.88 116.41,309.88 116.41,309.88 116.41,309.88 116.41,309.88 116.41,309.88 116.41,309.88 116.41,309.88 116.41,309.88 116.41,309.88 116.41,309.88 116.41,309.88 116.41,309.88 116.41,309.88 116.41,309.88 116.41,309.88 116.41,309.88 116.41,309.88 116.41,309.88 116.41,309.88 116.41,309.88 116.41,309.88 116.41,309.88 116.41,309.88 116.41,309.88 116.41,309.88 116.41,309.88 116.41,309.88 116.41,309.88 116.41,309.88 116.41,309.88 116.41,309.88 116.41,309.88 116.41,309.88 116.41,309.88 116.41,309.88 116.41,309.88 116.41,309.88 116.41,309.88 116.41,309.88 116.41,309.88 116.41,309.88 116.41,309.88 116.41,309.88 116.41,309.88 116.41,309.88 116.41,309.88 116.41,309.88 116.41,309.88 116.41,309.88 116.41,309.88 116.41,309.88 116.41,309.88 116.41,309.88 116.41,309.88 116.41,309.88 116.41,309.88 116.41,309.88 116.41,309.88 116.41,309.88 116.41,309.88 116.41,309.88 116.41,309.88 116.41,309.88 116.41,309.88 116.41,309.88 116.41,309.88 116.41,309.88 116.41,309.88 116.41,309.88 116.41,309.88 116.41,309.88 116.41,309.88 116.41,309.88 116.41,309.88 116.41,309.88 116.41,309.88 116.41,309.88 116.41,309.88 116.41,309.88 116.41,309.88 116.41,309.88 116.41,309.88 116.41,309.88 116.41,309.88 116.41,309.88 116.41,309.88 116.41,309.88 116.41,309.88 116.41,309.88 116.41,309.88 116.41,309.88 116.41,309.88 116.41,309.88 116.41,309.88 116.41,309.88 116.41,309.88 116.41,309.88 116.41,309.88 116.41,309.88 116.41,309.88 116.41,309.88 116.41,309.88 116.41,309.88 116.41,309.88 116.41,309.88 116.41,309.88 116.41,309.88 116.41,309.88 116.41,309.88 116.41,309.88 116.41,309.88 116.41,309.88 116.41,309.88 116.41,309.88 116.41,309.88 116.41,309.88 116.41,309.88 116.41,309.88 116.41,309.88 116.41,309.88 116.41,309.88 116.41,309.88 116.41,309.88 116.41,309.88 116.41,309.88 116.41,309.88 116.41,309.88 116.41,309.88 116.41,309.88 116.41,309.88 116.41,309.88 116.41,309.88 116.41,309.88 116.41,309.88 116.41,309.88 116.41,309.88 116.41,309.88 116.41,309.88 116.41,309.88 116.41,309.88 116.41,309.88 116.41,309.88 116.41,309.88 116.41,309.88 116.41,309.88 116.41,309.88 116.41,309.88 116.41,309.88 116.41,309.88 116.41,309.88 116.41,309.88 116.41,309.88 116.41,309.88 116.41,309.88 116.41,309.88 116.41,309.88 116.41,309.88 116.41,309.88 116.41,309.88 116.41,309.88 116.41,309.88 116.41,309.88 116.41,309.88 116.41,309.88 116.41,309.88 116.41,309.88 116.41,309.88 116.41,309.88 116.41,309.88 116.41,309.88 116.41,309.88 116.41,309.88 116.41,309.88 116.41,309.88 116.41,309.88 116.41,309.88 116.41,309.88 116.41,309.88 116.41,309.88 116.41,309.88 116.41,309.88 116.41,309.88 116.41,309.88 116.41,309.88 116.41,309.88 116.41,309.88 116.41,309.88 116.41,309.88 116.41,309.88 116.41,309.88 116.41,309.88 116.41,309.88 116.41,309.88 116.41,309.88 116.41,309.88 116.41,309.88 116.41,309.88 116.41,309.88 116.41,309.88 116.41,309.88 116.41,309.88 116.41,309.88 116.41,309.88 116.41,309.88 116.41,309.88 116.41,309.88 116.41,309.88 116.41,309.88 116.41,309.88 116.41,309.88 116.41,309.88 116.41,309.88 116.41,309.88 116.41,309.88 116.41,309.88 116.41,309.88 116.41,309.88 116.41,309.88 116.41,309.88 116.41,309.88 116.41,309.88 116.41,309.88 116.41,309.88 116.41,309.88 116.41,309.88 116.41,309.88 116.41,309.88 116.41,309.88 116.41,309.88 116.41,309.88 116.41,309.88 116.41,309.88 116.41,309.88 116.41,309.88 116.41,309.88 116.41,309.88 116.41,309.88 116.41,309.88 116.41,309.88 116.41,309.88 116.41,309.88 116.41,309.88 116.41,309.88 116.41,309.88 116.41,309.88 116.41,309.88 116.41,309.88 116.41,309.88 116.41,309.88 116.41,309.88 116.41,309.88 116.41,309.88 116.41,309.88 116.41,309.88 116.41,309.88 116.41,309.88 116.41,309.88 116.41,309.88 116.41,309.88 116.41,309.88 116.41,309.88 116.41,309.88 116.41,309.88 116.41,309.88 116.41,309.88 116.41,309.88 116.41,309.88 116.41,309.88 116.41,309.88 116.41,309.88 116.41,309.88 116.41,309.88 116.41,309.88 116.41,309.88 116.41,309.88 116.41,309.88 116.41,309.88 116.41,309.88 116.41,309.88 116.41,309.88 116.41,309.88 116.41,309.88 116.41,309.88 116.41,309.88 116.41,309.88 116.41,309.88 116.41,309.88 116.41,309.88 116.41,309.88 116.41,309.88 116.41,309.88 116.41,309.88 116.41,309.88 116.41,309.88 116.41,309.88 116.41,309.88 116.41,309.88 116.41,309.88 116.41,309.88 116.41,309.88 116.41,309.88 116.41,309.88 116.41,309.88 116.41,309.88 116.41,309.88 116.41,309.88 116.41,309.88 116.41,309.88 116.41,309.88 116.41,309.88 116.41,309.88 116.41,309.88 116.41,309.88 116.41,309.88 116.41,309.88 116.41,309.88 116.41,309.88 116.41,309.88 116.41,309.88 116.41,309.88 116.41,309.88 116.41,309.88 116.41,309.88 116.41,309.88 116.41,309.88 116.41,309.88 116.41,309.88 116.41,309.88 116.41,309.88 116.41,309.88 116.41,309.88 116.41,309.88 116.41,309.88 116.41,309.88 116.41,309.88 116.41,309.88 116.41,309.88 116.41,309.88 116.41,309.88 116.41,309.88 116.41,309.88 116.41,309.88 116.41,309.88 116.41,309.88 116.41,309.88 116.41,309.88 116.41,309.88 116.41,309.88 116.41,309.88 116.41,309.88 116.41,309.88 116.41,309.88 116.41,309.88 116.41,309.88 116.41,309.88 116.41,309.88 116.41,309.88 116.41,309.88 116.41,309.88 116.41,309.88 116.41,309.88 116.41,309.88 116.41,309.88 116.41,309.88 116.41,309.88 116.41,309.88 116.41,309.88 116.41,309.88 116.41,309.88 116.41,309.88 116.41,309.88 116.41,309.88 116.41,309.88 116.41,309.88 116.41,309.88 116.41,309.88 116.41,309.88 116.41,309.88 116.41,309.88 116.41,309.88 116.41,309.88 116.41,309.88 116.41,309.88 116.41,309.88 116.41,309.88 116.41,309.88 116.41,309.88 116.41,309.88 116.41,309.88 116.41,309.88 116.41,309.88 116.41,309.88 116.41,309.88 116.41,309.88 116.41,309.88 116.41,309.88 116.41,309.88 116.41,309.88 116.41,309.88 116.41,309.88 116.41,309.88 116.41,309.88 116.41,309.88 116.41,309.88 116.41,309.88 116.41,309.88 116.41,309.88 116.41,309.88 116.41,309.88 116.41,309.88 116.41,309.88 116.41,309.88 116.41,309.88 116.41,309.88 116.41,309.88 116.41,309.88 116.41,309.88 116.41,309.88 116.41,309.88 116.41,309.88 116.41,309.88 116.41,309.88 116.41,309.88 116.41,309.88 116.41,309.88 116.41,309.88 116.41,309.88 116.41,309.88 116.41,309.88 116.41,309.88 116.41,309.88 116.41,309.88 116.41,309.88 116.41,309.88 116.41,309.88 116.41,309.88 116.41,309.88 116.41,309.88 116.41,309.88 116.41,309.88 116.41,309.88 116.41,309.88 116.41,309.88 116.41,309.88 116.41,309.88 116.41,309.88 116.41,309.88 116.41,309.88 116.41,309.88 116.41,309.88 116.41,309.88 116.41,309.88 116.41,309.88 116.41,309.88 116.41,309.88 116.41,309.88 116.41,309.88 116.41,309.88 116.41,309.88 116.41,309.88 116.41,309.88 116.41,309.88 116.41,309.88 116.41,309.88 116.41,309.88 116.41,309.88 116.41,309.88 116.41,309.88 116.41,309.88 116.41,309.88 116.41,309.88 116.41,309.88 116.41,309.88 116.41,309.88 116.41,309.88 116.41,309.88 116.41,309.88 116.41,309.88 116.41,309.88 116.41,309.88 116.41,309.88 116.41,309.88 116.41,309.88 116.41,309.88 116.41,309.88 116.41,309.88 116.41,309.88 116.41,309.88 116.41,309.88 116.41,309.88 116.41,309.88 116.41,309.88 116.41,309.88 116.41,309.88 116.41,309.88 116.41,309.88 116.41,309.88 116.41,309.88 116.41,309.88 116.41,309.88 116.41,309.88 116.41,309.88 116.41,309.88 116.41,309.88 116.41,309.88 116.41,309.88 116.41,309.88 116.41,309.88 116.41,309.88 116.41,309.88 116.41,309.88 116.41,309.88 116.41,309.88 116.41,309.88 116.41,309.88 116.41,309.88 116.41,309.88 116.41,309.88 116.41,309.88 116.41,309.88 116.41,309.88 116.41,309.88 116.41,309.88 116.41,309.88 116.41,309.88 116.41,309.88 116.41,309.88 116.41,309.88 116.41,309.88 116.41,309.88 116.41,309.88 116.41,309.88 116.41,309.88 116.41,309.88 116.41,309.88 116.41,309.88 116.41,309.88 116.41,309.88 116.41,309.88 116.41,309.88 116.41,309.88 116.41,309.88 116.41,309.88 116.41,309.88 116.41,309.88 116.41,309.88 116.41,309.88 116.41,309.88 116.41,309.88 116.41,309.88 116.41,309.88 116.41,309.88 116.41,309.88 116.41,309.88 116.41,309.88 116.41,309.88 116.41,309.88 116.41,309.88 116.41,309.88 116.41,309.88 116.41,309.88 116.41,309.88 116.41,309.88 116.41,309.88 116.41,309.88 116.41,309.88 116.41,309.88 116.41,309.88 116.41,309.88 116.41,309.88 116.41,309.88 116.41,309.88 116.41,309.88 116.41,309.88 116.41,309.88 116.41,309.88 116.41,309.88 116.41,309.88 116.41,309.88 116.41,309.88 116.41,309.88 116.41,309.88 116.41,309.88 116.41,309.88 116.41,309.88 116.41,309.88 116.41,309.88 116.41,309.88 116.41,309.88 116.41,309.88 116.41,309.88 116.41,309.88 116.41,309.88 116.41,309.88 116.41,309.88 116.41,309.88 116.41,309.88 116.41,309.88 116.41,309.88 116.41,309.88 116.41,309.88 116.41,309.88 116.41,309.88 116.41,309.88 116.41,309.88 116.41,309.88 116.41,309.88 116.41,309.88 116.41,309.88 116.41,309.88 116.41,309.88 116.41,309.88 116.41,309.88 116.41,309.88 116.41,309.88 116.41,309.88 116.41,309.88 116.41,309.88 116.41,309.88 116.41,309.88 116.41,309.88 116.41,309.88 116.41,309.88 116.41,309.88 116.41,309.88 116.41,309.88 116.41,309.88 116.41,309.88 116.41,309.88 116.41,309.88 116.41,309.88 116.41,309.88 116.41,309.88 116.41,309.88 116.41,309.88 116.41,309.88 116.41,309.88 116.41,309.88 116.41,309.88 116.41,309.88 116.41,309.88 116.41,309.88 116.41,309.88 116.41,309.88 116.41,309.88 116.41,309.88 116.41,309.88 116.41,309.88 116.41,309.88 116.41,309.88 116.41,309.88 116.41,309.88 116.41,309.88 116.41,309.88 116.41,309.88 116.41,309.88 116.41,309.88 116.41,309.88 116.41,309.88 116.41,309.88 116.41,309.88 116.41,309.88 116.41,309.88 116.41,309.88 116.41,309.88 116.41,309.88 116.41,309.88 116.41,309.88 116.41,309.88 116.41,309.88 116.41,309.88 116.41,309.88 116.41,309.88 116.41,309.88 116.41,309.88 116.41,309.88 116.41,309.88 116.41,309.88 116.41,309.88 116.41,309.88 116.41,309.88 116.41,309.88 116.41,309.88 116.41,309.88 116.41,309.88 116.41,309.88 116.41,309.88 116.41,309.88 116.41,309.88 116.41,309.88 116.41,309.88 116.41,309.88 116.41,309.88 116.41,309.88 116.41,309.88 116.41,309.88 116.41,309.88 116.41,309.88 116.41,309.88 116.41,309.88 116.41,309.88 116.41,309.88 116.41,309.88 116.41,309.88 116.41,309.88 116.41,309.88 116.41,309.88 116.41,309.88 116.41,309.88 116.41,309.88 116.41,309.88 116.41,309.88 116.41,309.88 116.41,309.88 116.41,309.88 116.41,309.88 116.41,309.88 116.41,309.88 116.41,309.88 116.41,309.88 116.41,309.88 116.41,309.88 116.41,309.88 116.41,309.88 116.41,309.88 116.41,309.88 116.41,309.88 116.41,309.88 116.41,309.88 116.41,309.88 116.41,309.88 116.41,309.88 116.41,309.88 116.41,309.88 116.41,309.88 116.41,309.88 116.41,309.88 116.41,309.88 116.41,309.88 116.41,309.88 116.41,309.88 116.41,309.88 116.41,309.88 116.41,309.88 116.41,309.88 116.41,309.88 116.41,309.88 116.41,309.88 116.41,309.88 116.41,309.88 116.41,309.88 116.41,309.88 116.41,309.88 116.41,309.88 116.41,309.88 116.41,309.88 116.41,309.88 116.41,309.88 116.41,309.88 116.41,309.88 116.41,309.88 116.41,309.88 116.41,309.88 116.41,309.88 116.41,309.88 116.41,309.88 116.41,309.88 116.41,309.88 116.41,309.88 116.41,309.88 116.41,309.88 116.41,309.88 116.41,309.88 116.41,309.88 116.41,309.88 116.41,309.88 116.41,309.88 116.41,309.88 116.41,309.88 116.41,309.88 116.41,309.88 116.41,309.88 116.41,309.88 116.41,309.88 116.41,309.88 116.41,309.88 116.41,309.88 116.41,309.88 116.41,309.88 116.41,309.88 116.41,309.88 116.41,309.88 116.41,309.88 116.41,309.88 116.41,309.88 116.41,309.88 116.41,309.88 116.41,309.88 116.41,309.88 116.41,309.88 116.41,309.88 116.41,309.88 116.41,309.88 116.41,309.88 116.41,309.88 116.41,309.88 116.41,309.88 116.41,309.88 116.41,309.88 116.41,309.88 116.41,309.88 116.41,309.88 116.41,309.88 116.41,309.88 116.41,309.88 116.41,309.88 116.42,309.88 116.42,309.88 116.42,309.88 116.42,309.88 116.42,309.88 116.42,309.88 116.42,309.88 116.42,309.88 116.42,309.88 116.42,309.88 116.42,309.88 116.42,309.88 116.42,309.88 116.42,309.88 116.42,309.88 116.42,309.88 116.42,309.88 116.42,309.88 116.42,309.88 116.42,309.88 116.43,309.89 116.43,309.89 116.43,309.89 116.43,309.89 116.44,309.89 116.44,309.90 116.45,309.90 116.46,309.90 116.47,309.91 116.48,309.91 116.50,309.92 116.51,309.93 116.53,309.94 116.56,309.96 116.59,309.97 116.63,310.00 116.68,310.02 116.74,310.05 116.81,310.09 116.90,310.14 117.01,310.19 117.14,310.26 117.30,310.35 117.50,310.45 117.74,310.58 118.03,310.73 118.39,310.92 118.83,311.15 119.36,311.43 120.01,311.78 120.81,312.20 121.79,312.71 122.98,313.34 124.44,314.11 126.22,315.05 128.40,316.20 131.07,317.61 134.33,319.34 138.33,321.45 143.23,324.04 149.24,327.22 156.61,331.13 165.67,335.94 176.81,341.86 190.53,349.18 207.47,358.22 228.43,369.45 254.44,383.44 286.82,400.93 327.31,422.93 378.20,450.77 442.59,486.30 524.70,532.08 630.40,591.80 768.11,670.88 950.14,777.55 1195.10,924.77 1532.09,1133.86 2008.46,1441.56 2704.94,1915.01 3766.73,2685.44 5471.98,4030.94 8192.00,6422.31" style="stroke-width: 0.75; stroke-dasharray: 1.00, 3.00;"/>
<circle cx="424.51" cy="95.44" r="3.24" style="stroke-width: 0.75;stroke: none;fill: #00008B;"/>
<g><text x="445.73" y="98.87" style="font-family: Arial;font-size: 9.60px;" textLength="51.72px" lengthAdjust="spacingAndGlyphs">Observation</text></g>
<g><text x="947.76" y="98.87" style="font-family: Arial;font-size: 9.60px;" textLength="101.30px" lengthAdjust="spacingAndGlyphs">Theoretical distributions</text></g>
<line x1="996.10" y1="145.43" x2="1000.42" y2="141.11" style="stroke-width: 0.75;"/>
<line x1="996.10" y1="141.11" x2="1000.42" y2="145.43" style="stroke-width: 0.75;"/>
<line x1="995.20" y1="143.27" x2="1001.31" y2="143.27" style="stroke-width: 0.75;"/>
<line x1="998.26" y1="146.32" x2="998.26" y2="140.22" style="stroke-width: 0.75;"/>
<g><text x="1019.48" y="146.70" style="font-family: Arial;font-size: 9.60px;" textLength="29.33px" lengthAdjust="spacingAndGlyphs">normal</text></g>
<polygon points="998.26,178.17 1001.17,183.21 995.35,183.21" style="stroke-width: 0.75;" />
<g><text x="1019.48" y="184.97" style="font-family: Arial;font-size: 9.60px;" textLength="31.99px" lengthAdjust="spacingAndGlyphs">uniform</text></g>
<rect x="996.10" y="217.64" width="4.32" height="4.32" style="stroke-width: 0.75;"/>
<line x1="996.10" y1="221.96" x2="1000.42" y2="217.64" style="stroke-width: 0.75;"/>
<line x1="996.10" y1="217.64" x2="1000.42" y2="221.96" style="stroke-width: 0.75;"/>
<g><text x="1019.48" y="223.23" style="font-family: Arial;font-size: 9.60px;" textLength="49.07px" lengthAdjust="spacingAndGlyphs">exponential</text></g>
<line x1="995.20" y1="258.06" x2="1001.31" y2="258.06" style="stroke-width: 0.75;"/>
<line x1="998.26" y1="261.12" x2="998.26" y2="255.01" style="stroke-width: 0.75;"/>
<g><text x="1019.48" y="261.50" style="font-family: Arial;font-size: 9.60px;" textLength="29.32px" lengthAdjust="spacingAndGlyphs">logistic</text></g>
<rect x="998.26" y="289.62" width="16.98" height="13.42" style="stroke-width: 0.75;fill: #CCCCCC;"/>
<g><text x="1036.46" y="299.76" style="font-family: Arial;font-size: 9.60px;" textLength="18.67px" lengthAdjust="spacingAndGlyphs">beta</text></g>
<line x1="998.26" y1="334.59" x2="1040.70" y2="334.59" style="stroke-width: 0.75; stroke-dasharray: 1.00, 3.00;"/>
<g><text x="1061.92" y="338.02" style="font-family: Arial;font-size: 9.60px;" textLength="42.13px" lengthAdjust="spacingAndGlyphs">lognormal</text></g>
<line x1="998.26" y1="372.85" x2="1040.70" y2="372.85" style="stroke-width: 0.75; stroke-dasharray: 4.00, 4.00;"/>
<g><text x="1061.92" y="376.29" style="font-family: Arial;font-size: 9.60px;" textLength="31.99px" lengthAdjust="spacingAndGlyphs">gamma</text></g>
<g><text x="980.18" y="416.55" style="font-family: Arial;font-size: 7.20px;" textLength="135.63px" lengthAdjust="spacingAndGlyphs">(Weibull is close to gamma and lognormal)</text></g>
<circle cx="443.00" cy="284.27" r="5.40" style="stroke-width: 0.75;stroke: none;fill: #00008B;"/>
<line x1="112.36" y1="313.93" x2="120.46" y2="305.83" style="stroke-width: 1.50;"/>
<line x1="112.36" y1="305.83" x2="120.46" y2="313.93" style="stroke-width: 1.50;"/>
<line x1="110.69" y1="309.88" x2="122.14" y2="309.88" style="stroke-width: 1.50;"/>
<line x1="116.41" y1="315.61" x2="116.41" y2="304.15" style="stroke-width: 1.50;"/>
<polygon points="116.41,176.04 121.87,185.48 110.96,185.48" style="stroke-width: 1.50;" />
<rect x="1546.74" y="943.56" width="8.10" height="8.10" style="stroke-width: 1.50;"/>
<line x1="1546.74" y1="951.66" x2="1554.84" y2="943.56" style="stroke-width: 1.50;"/>
<line x1="1546.74" y1="943.56" x2="1554.84" y2="951.66" style="stroke-width: 1.50;"/>
<line x1="110.69" y1="437.43" x2="122.14" y2="437.43" style="stroke-width: 1.50;"/>
<line x1="116.41" y1="443.15" x2="116.41" y2="431.70" style="stroke-width: 1.50;"/>
</g>
</svg>