<svg xmlns="http://www.w3.org/2000/svg" xmlns:xlink="http://www.w3.org/1999/xlink" class="httpgd" width="2048.00" height="1457.00" viewBox="0 0 1638.40 1165.60">
<defs>
  <style type='text/css'><![CDATA[
    .httpgd line, .httpgd polyline, .httpgd polygon, .httpgd path, .httpgd rect, .httpgd circle {
      fill: none;
      stroke: #000000;
      stroke-linecap: round;
      stroke-linejoin: round;
      stroke-miterlimit: 10.00;
    }
  ]]></style>
<clipPath id="c0"><rect x="0.00" y="0.00" width="1638.40" height="1165.60"/></clipPath>
<clipPath id="c1"><rect x="59.04" y="59.04" width="1549.12" height="1033.12"/></clipPath>
<clipPath id="c2"><rect x="0.00" y="0.00" width="1638.40" height="1165.60"/></clipPath>
<clipPath id="c3"><rect x="59.04" y="59.04" width="1549.12" height="1033.12"/></clipPath>
</defs>
<rect width="100%" height="100%" style="stroke: none;fill: #FFFFFF;"/>
<g clip-path="url(#c0)">
</g><g clip-path="url(#c1)">
<polyline points="116.41,435.76 118.16,435.76 119.90,435.76 121.64,435.76 123.39,435.76 125.13,435.76 126.87,435.76 128.61,435.76 130.36,435.76 132.10,435.76 133.84,435.76 135.59,435.76 137.33,435.76 139.07,435.76 140.81,435.76 142.56,435.76 144.30,435.76 146.04,435.76 147.79,435.76 149.53,435.76 151.27,435.76 153.01,435.76 154.76,435.76 156.50,435.76 158.24,435.76 159.99,435.76 161.73,435.76 163.47,435.76 165.21,435.76 166.96,435.76 168.70,435.76 170.44,435.76 172.19,435.76 173.93,435.76 175.67,435.76 177.41,435.76 179.16,435.76 180.90,435.76 182.64,435.76 184.39,435.76 186.13,435.76 187.87,435.76 189.61,435.76 191.36,435.76 193.10,435.76 194.84,435.76 196.59,435.76 198.33,435.76 200.07,1053.90 201.81,435.76 203.56,435.76 205.30,435.76 207.04,435.76 208.79,435.76 210.53,435.76 212.27,435.76 214.01,435.76 215.76,435.76 217.50,435.76 219.24,435.76 220.99,435.76 222.73,435.76 224.47,435.76 226.21,435.76 227.96,435.76 229.70,435.76 231.44,435.76 233.19,435.76 234.93,435.76 236.67,435.76 238.41,435.76 240.16,435.76 241.90,435.76 243.64,435.76 245.39,435.76 247.13,435.76 248.87,435.76 250.61,435.76 252.36,435.76 254.10,435.76 255.84,435.76 257.59,435.76 259.33,435.76 261.07,435.76 262.81,435.76 264.56,1053.90 266.30,1053.90 268.04,435.76 269.79,1053.90 271.53,435.76 273.27,435.76 275.01,435.76 276.76,435.76 278.50,1053.90 280.24,1053.90 281.99,1053.90 283.73,1053.90 285.47,1053.90 287.21,435.76 288.96,435.76 290.70,435.76 292.44,435.76 294.19,435.76 295.93,435.76 297.67,435.76 299.41,435.76 301.16,435.76 302.90,1053.90 304.64,1053.90 306.39,1053.90 308.13,435.76 309.87,435.76 311.61,435.76 313.36,435.76 315.10,435.76 316.84,435.76 318.59,435.76 320.33,435.76 322.07,435.76 323.81,435.76 325.56,435.76 327.30,435.76 329.04,435.76 330.79,435.76 332.53,435.76 334.27,435.76 336.01,435.76 337.76,435.76 339.50,435.76 341.24,435.76 342.99,435.76 344.73,435.76 346.47,435.76 348.21,435.76 349.96,435.76 351.70,435.76 353.44,435.76 355.19,435.76 356.93,435.76 358.67,435.76 360.41,435.76 362.16,435.76 363.90,435.76 365.64,435.76 367.39,435.76 369.13,435.76 370.87,435.76 372.61,435.76 374.36,435.76 376.10,435.76 377.84,435.76 379.59,435.76 381.33,435.76 383.07,1053.90 384.81,435.76 386.56,1053.90 388.30,435.76 390.04,435.76 391.79,435.76 393.53,435.76 395.27,435.76 397.01,435.76 398.76,435.76 400.50,1053.90 402.24,1053.90 403.99,1053.90 405.73,435.76 407.47,435.76 409.21,435.76 410.96,435.76 412.70,435.76 414.44,1053.90 416.19,435.76 417.93,435.76 419.67,435.76 421.41,435.76 423.16,435.76 424.90,435.76 426.64,435.76 428.39,435.76 430.13,435.76 431.87,435.76 433.61,435.76 435.36,435.76 437.10,435.76 438.84,1053.90 440.59,435.76 442.33,435.76 444.07,1053.90 445.81,435.76 447.56,435.76 449.30,435.76 451.04,435.76 452.79,435.76 454.53,435.76 456.27,435.76 458.01,435.76 459.76,435.76 461.50,435.76 463.24,435.76 464.99,435.76 466.73,435.76 468.47,435.76 470.21,1053.90 471.96,435.76 473.70,435.76 475.44,435.76 477.19,435.76 478.93,1053.90 480.67,435.76 482.41,1053.90 484.16,1053.90 485.90,1053.90 487.64,435.76 489.39,435.76 491.13,435.76 492.87,435.76 494.61,435.76 496.36,435.76 498.10,435.76 499.84,435.76 501.59,435.76 503.33,435.76 505.07,435.76 506.81,435.76 508.56,435.76 510.30,435.76 512.04,435.76 513.79,435.76 515.53,435.76 517.27,435.76 519.01,1053.90 520.76,435.76 522.50,1053.90 524.24,1053.90 525.99,1053.90 527.73,1053.90 529.47,435.76 531.21,435.76 532.96,435.76 534.70,435.76 536.44,435.76 538.19,435.76 539.93,435.76 541.67,435.76 543.41,435.76 545.16,435.76 546.90,435.76 548.64,435.76 550.39,435.76 552.13,435.76 553.87,435.76 555.61,435.76 557.36,435.76 559.10,435.76 560.84,435.76 562.59,1053.90 564.33,435.76 566.07,435.76 567.81,1053.90 569.56,1053.90 571.30,1053.90 573.04,435.76 574.79,435.76 576.53,435.76 578.27,435.76 580.01,435.76 581.76,435.76 583.50,435.76 585.24,435.76 586.99,435.76 588.73,435.76 590.47,435.76 592.21,435.76 593.96,435.76 595.70,435.76 597.44,435.76 599.19,435.76 600.93,435.76 602.67,435.76 604.41,1053.90 606.16,435.76 607.90,435.76 609.64,1053.90 611.39,1053.90 613.13,435.76 614.87,435.76 616.61,435.76 618.36,435.76 620.10,435.76 621.84,435.76 623.59,435.76 625.33,435.76 627.07,435.76 628.81,435.76 630.56,435.76 632.30,435.76 634.04,435.76 635.79,435.76 637.53,435.76 639.27,435.76 641.01,435.76 642.76,435.76 644.50,435.76 646.24,435.76 647.99,435.76 649.73,1053.90 651.47,1053.90 653.21,435.76 654.96,435.76 656.70,435.76 658.44,435.76 660.19,435.76 661.93,435.76 663.67,435.76 665.41,435.76 667.16,435.76 668.90,435.76 670.64,435.76 672.39,435.76 674.13,435.76 675.87,435.76 677.61,435.76 679.36,435.76 681.10,435.76 682.84,435.76 684.59,435.76 686.33,435.76 688.07,435.76 689.81,435.76 691.56,435.76 693.30,435.76 695.04,435.76 696.79,435.76 698.53,435.76 700.27,435.76 702.01,435.76 703.76,435.76 705.50,435.76 707.24,435.76 708.99,435.76 710.73,435.76 712.47,435.76 714.21,435.76 715.96,435.76 717.70,435.76 719.44,435.76 721.19,435.76 722.93,435.76 724.67,435.76 726.41,435.76 728.16,435.76 729.90,435.76 731.64,435.76 733.39,435.76 735.13,435.76 736.87,435.76 738.61,435.76 740.36,435.76 742.10,435.76 743.84,435.76 745.59,435.76 747.33,435.76 749.07,435.76 750.81,435.76 752.56,435.76 754.30,435.76 756.04,435.76 757.79,435.76 759.53,435.76 761.27,435.76 763.01,435.76 764.76,1053.90 766.50,435.76 768.24,435.76 769.99,435.76 771.73,435.76 773.47,435.76 775.21,435.76 776.96,435.76 778.70,435.76 780.44,435.76 782.19,435.76 783.93,435.76 785.67,435.76 787.41,435.76 789.16,435.76 790.90,435.76 792.64,435.76 794.39,435.76 796.13,1053.90 797.87,435.76 799.61,435.76 801.36,435.76 803.10,435.76 804.84,435.76 806.59,1053.90 808.33,435.76 810.07,435.76 811.81,435.76 813.56,435.76 815.30,435.76 817.04,435.76 818.79,435.76 820.53,435.76 822.27,435.76 824.01,435.76 825.76,435.76 827.50,435.76 829.24,435.76 830.99,435.76 832.73,435.76 834.47,435.76 836.21,435.76 837.96,435.76 839.70,435.76 841.44,435.76 843.19,1053.90 844.93,435.76 846.67,435.76 848.41,1053.90 850.16,1053.90 851.90,435.76 853.64,435.76 855.39,435.76 857.13,435.76 858.87,435.76 860.61,435.76 862.36,435.76 864.10,435.76 865.84,435.76 867.59,435.76 869.33,435.76 871.07,435.76 872.81,435.76 874.56,435.76 876.30,435.76 878.04,435.76 879.79,435.76 881.53,435.76 883.27,435.76 885.01,435.76 886.76,435.76 888.50,435.76 890.24,435.76 891.99,435.76 893.73,435.76 895.47,435.76 897.21,435.76 898.96,435.76 900.70,435.76 902.44,435.76 904.19,435.76 905.93,435.76 907.67,435.76 909.41,435.76 911.16,435.76 912.90,435.76 914.64,435.76 916.39,435.76 918.13,435.76 919.87,435.76 921.61,435.76 923.36,435.76 925.10,435.76 926.84,435.76 928.59,435.76 930.33,435.76 932.07,435.76 933.81,435.76 935.56,435.76 937.30,435.76 939.04,435.76 940.79,435.76 942.53,435.76 944.27,435.76 946.01,435.76 947.76,435.76 949.50,435.76 951.24,435.76 952.99,435.76 954.73,435.76 956.47,435.76 958.21,435.76 959.96,435.76 961.70,435.76 963.44,435.76 965.19,435.76 966.93,435.76 968.67,435.76 970.41,435.76 972.16,435.76 973.90,435.76 975.64,435.76 977.39,435.76 979.13,435.76 980.87,435.76 982.61,435.76 984.36,435.76 986.10,435.76 987.84,435.76 989.59,435.76 991.33,435.76 993.07,435.76 994.81,435.76 996.56,435.76 998.30,435.76 1000.04,435.76 1001.79,435.76 1003.53,435.76 1005.27,435.76 1007.01,435.76 1008.76,435.76 1010.50,435.76 1012.24,435.76 1013.99,435.76 1015.73,435.76 1017.47,435.76 1019.21,435.76 1020.96,435.76 1022.70,435.76 1024.44,435.76 1026.19,435.76 1027.93,435.76 1029.67,435.76 1031.41,435.76 1033.16,435.76 1034.90,435.76 1036.64,435.76 1038.39,435.76 1040.13,435.76 1041.87,435.76 1043.61,435.76 1045.36,435.76 1047.10,435.76 1048.84,435.76 1050.59,435.76 1052.33,435.76 1054.07,435.76 1055.81,435.76 1057.56,435.76 1059.30,435.76 1061.04,435.76 1062.79,435.76 1064.53,435.76 1066.27,435.76 1068.01,435.76 1069.76,435.76 1071.50,435.76 1073.24,435.76 1074.99,435.76 1076.73,1053.90 1078.47,435.76 1080.21,1053.90 1081.96,435.76 1083.70,435.76 1085.44,435.76 1087.19,435.76 1088.93,435.76 1090.67,435.76 1092.41,435.76 1094.16,435.76 1095.90,435.76 1097.64,435.76 1099.39,435.76 1101.13,435.76 1102.87,435.76 1104.61,435.76 1106.36,435.76 1108.10,435.76 1109.84,435.76 1111.59,435.76 1113.33,435.76 1115.07,435.76 1116.81,1053.90 1118.56,1053.90 1120.30,1053.90 1122.04,1053.90 1123.79,435.76 1125.53,435.76 1127.27,435.76 1129.01,435.76 1130.76,435.76 1132.50,435.76 1134.24,435.76 1135.99,435.76 1137.73,435.76 1139.47,435.76 1141.21,435.76 1142.96,435.76 1144.70,435.76 1146.44,435.76 1148.19,1053.90 1149.93,435.76 1151.67,1053.90 1153.41,435.76 1155.16,1053.90 1156.90,435.76 1158.64,1053.90 1160.39,435.76 1162.13,435.76 1163.87,435.76 1165.61,435.76 1167.36,435.76 1169.10,435.76 1170.84,435.76 1172.59,435.76 1174.33,435.76 1176.07,435.76 1177.81,435.76 1179.56,435.76 1181.30,435.76 1183.04,435.76 1184.79,435.76 1186.53,435.76 1188.27,435.76 1190.01,1053.90 1191.76,435.76 1193.50,435.76 1195.24,1053.90 1196.99,1053.90 1198.73,435.76 1200.47,435.76 1202.21,435.76 1203.96,435.76 1205.70,435.76 1207.44,435.76 1209.19,435.76 1210.93,435.76 1212.67,435.76 1214.41,435.76 1216.16,435.76 1217.90,435.76 1219.64,435.76 1221.39,435.76 1223.13,435.76 1224.87,435.76 1226.61,435.76 1228.36,435.76 1230.10,435.76 1231.84,435.76 1233.59,435.76 1235.33,435.76 1237.07,435.76 1238.81,435.76 1240.56,435.76 1242.30,435.76 1244.04,435.76 1245.79,435.76 1247.53,435.76 1249.27,435.76 1251.01,435.76 1252.76,435.76 1254.50,435.76 1256.24,435.76 1257.99,435.76 1259.73,435.76 1261.47,435.76 1263.21,435.76 1264.96,435.76 1266.70,435.76 1268.44,435.76 1270.19,435.76 1271.93,435.76 1273.67,435.76 1275.41,435.76 1277.16,435.76 1278.90,435.76 1280.64,435.76 1282.39,435.76 1284.13,435.76 1285.87,435.76 1287.61,435.76 1289.36,435.76 1291.10,435.76 1292.84,435.76 1294.59,435.76 1296.33,435.76 1298.07,435.76 1299.81,435.76 1301.56,435.76 1303.30,435.76 1305.04,435.76 1306.79,435.76 1308.53,435.76 1310.27,435.76 1312.01,435.76 1313.76,435.76 1315.50,435.76 1317.24,435.76 1318.99,435.76 1320.73,435.76 1322.47,435.76 1324.21,435.76 1325.96,435.76 1327.70,435.76 1329.44,435.76 1331.19,435.76 1332.93,435.76 1334.67,435.76 1336.41,435.76 1338.16,435.76 1339.90,435.76 1341.64,435.76 1343.39,435.76 1345.13,1053.90 1346.87,435.76 1348.61,435.76 1350.36,435.76 1352.10,435.76 1353.84,435.76 1355.59,435.76 1357.33,435.76 1359.07,435.76 1360.81,435.76 1362.56,435.76 1364.30,435.76 1366.04,435.76 1367.79,435.76 1369.53,435.76 1371.27,435.76 1373.01,435.76 1374.76,435.76 1376.50,435.76 1378.24,435.76 1379.99,1053.90 1381.73,435.76 1383.47,1053.90 1385.21,1053.90 1386.96,435.76 1388.70,435.76 1390.44,435.76 1392.19,435.76 1393.93,435.76 1395.67,435.76 1397.41,435.76 1399.16,435.76 1400.90,435.76 1402.64,435.76 1404.39,435.76 1406.13,435.76 1407.87,435.76 1409.61,435.76 1411.36,435.76 1413.10,435.76 1414.84,435.76 1416.59,435.76 1418.33,435.76 1420.07,435.76 1421.81,435.76 1423.56,435.76 1425.30,1053.90 1427.04,435.76 1428.79,435.76 1430.53,435.76 1432.27,435.76 1434.01,435.76 1435.76,435.76 1437.50,435.76 1439.24,435.76 1440.99,435.76 1442.73,435.76 1444.47,435.76 1446.21,435.76 1447.96,435.76 1449.70,435.76 1451.44,435.76 1453.19,435.76 1454.93,435.76 1456.67,435.76 1458.41,1053.90 1460.16,435.76 1461.90,435.76 1463.64,435.76 1465.39,435.76 1467.13,435.76 1468.87,435.76 1470.61,435.76 1472.36,435.76 1474.10,435.76 1475.84,435.76 1477.59,1053.90 1479.33,435.76 1481.07,1053.90 1482.81,435.76 1484.56,1053.90 1486.30,435.76 1488.04,435.76 1489.79,435.76 1491.53,435.76 1493.27,435.76 1495.01,435.76 1496.76,435.76 1498.50,435.76 1500.24,435.76 1501.99,435.76 1503.73,435.76 1505.47,435.76 1507.21,435.76 1508.96,435.76 1510.70,435.76 1512.44,435.76 1514.19,435.76 1515.93,435.76 1517.67,435.76 1519.41,435.76 1521.16,1053.90 1522.90,1053.90 1524.64,1053.90 1526.39,1053.90 1528.13,435.76 1529.87,435.76 1531.61,435.76 1533.36,435.76 1535.10,435.76 1536.84,435.76 1538.59,435.76 1540.33,435.76 1542.07,435.76 1543.81,435.76 1545.56,435.76 1547.30,435.76" style="stroke-width: 0.75;"/>
</g><g clip-path="url(#c2)">
<g><text x="833.60" y="34.67" text-anchor="middle" style="font-family: Arial;font-size: 14.40px;font-weight: bold;" textLength="184.74px" lengthAdjust="spacingAndGlyphs">Forecasts from ETS(A,N,N)</text></g>
<line x1="148.66" y1="1092.16" x2="1576.06" y2="1092.16" style="stroke-width: 0.75;"/>
<line x1="148.66" y1="1092.16" x2="148.66" y2="1099.36" style="stroke-width: 0.75;"/>
<line x1="386.56" y1="1092.16" x2="386.56" y2="1099.36" style="stroke-width: 0.75;"/>
<line x1="624.46" y1="1092.16" x2="624.46" y2="1099.36" style="stroke-width: 0.75;"/>
<line x1="862.36" y1="1092.16" x2="862.36" y2="1099.36" style="stroke-width: 0.75;"/>
<line x1="1100.26" y1="1092.16" x2="1100.26" y2="1099.36" style="stroke-width: 0.75;"/>
<line x1="1338.16" y1="1092.16" x2="1338.16" y2="1099.36" style="stroke-width: 0.75;"/>
<line x1="1576.06" y1="1092.16" x2="1576.06" y2="1099.36" style="stroke-width: 0.75;"/>
<g><text x="148.66" y="1118.08" text-anchor="middle" style="font-family: Arial;font-size: 12.00px;" textLength="36.71px" lengthAdjust="spacingAndGlyphs">2020.5</text></g>
<g><text x="386.56" y="1118.08" text-anchor="middle" style="font-family: Arial;font-size: 12.00px;" textLength="36.71px" lengthAdjust="spacingAndGlyphs">2021.0</text></g>
<g><text x="624.46" y="1118.08" text-anchor="middle" style="font-family: Arial;font-size: 12.00px;" textLength="36.71px" lengthAdjust="spacingAndGlyphs">2021.5</text></g>
<g><text x="862.36" y="1118.08" text-anchor="middle" style="font-family: Arial;font-size: 12.00px;" textLength="36.71px" lengthAdjust="spacingAndGlyphs">2022.0</text></g>
<g><text x="1100.26" y="1118.08" text-anchor="middle" style="font-family: Arial;font-size: 12.00px;" textLength="36.71px" lengthAdjust="spacingAndGlyphs">2022.5</text></g>
<g><text x="1338.16" y="1118.08" text-anchor="middle" style="font-family: Arial;font-size: 12.00px;" textLength="36.71px" lengthAdjust="spacingAndGlyphs">2023.0</text></g>
<g><text x="1576.06" y="1118.08" text-anchor="middle" style="font-family: Arial;font-size: 12.00px;" textLength="36.71px" lengthAdjust="spacingAndGlyphs">2023.5</text></g>
<line x1="59.04" y1="1053.90" x2="59.04" y2="126.69" style="stroke-width: 0.75;"/>
<line x1="59.04" y1="1053.90" x2="51.84" y2="1053.90" style="stroke-width: 0.75;"/>
<line x1="59.04" y1="744.83" x2="51.84" y2="744.83" style="stroke-width: 0.75;"/>
<line x1="59.04" y1="435.76" x2="51.84" y2="435.76" style="stroke-width: 0.75;"/>
<line x1="59.04" y1="126.69" x2="51.84" y2="126.69" style="stroke-width: 0.75;"/>
<g><text transform="translate(41.76,1053.90) rotate(-90.00)" text-anchor="middle" style="font-family: Arial;font-size: 12.00px;" textLength="16.68px" lengthAdjust="spacingAndGlyphs">0.0</text></g>
<g><text transform="translate(41.76,744.83) rotate(-90.00)" text-anchor="middle" style="font-family: Arial;font-size: 12.00px;" textLength="16.68px" lengthAdjust="spacingAndGlyphs">0.5</text></g>
<g><text transform="translate(41.76,435.76) rotate(-90.00)" text-anchor="middle" style="font-family: Arial;font-size: 12.00px;" textLength="16.68px" lengthAdjust="spacingAndGlyphs">1.0</text></g>
<g><text transform="translate(41.76,126.69) rotate(-90.00)" text-anchor="middle" style="font-family: Arial;font-size: 12.00px;" textLength="16.68px" lengthAdjust="spacingAndGlyphs">1.5</text></g>
<polygon points="59.04,1092.16 1608.16,1092.16 1608.16,59.04 59.04,59.04" style="stroke-width: 0.75;" />
</g><g clip-path="url(#c3)">
<polygon points="1548.17,781.88 1549.91,781.88 1549.91,109.48 1548.17,109.48" style="stroke-width: 0.75;stroke: none;fill: #DBDBDF;" />
<polygon points="1549.91,794.06 1551.66,794.06 1551.66,97.30 1549.91,97.30" style="stroke-width: 0.75;stroke: none;fill: #DBDBDF;" />
<polygon points="1548.17,665.51 1549.91,665.51 1549.91,225.85 1548.17,225.85" style="stroke-width: 0.75;stroke: none;fill: #B1B5CE;" />
<polygon points="1549.91,673.47 1551.66,673.47 1551.66,217.89 1549.91,217.89" style="stroke-width: 0.75;stroke: none;fill: #B1B5CE;" />
<circle cx="1549.04" cy="445.68" r="2.70" style="stroke-width: 0.75;stroke: #2297E6;fill: #2297E6;"/>
<circle cx="1550.79" cy="445.68" r="2.70" style="stroke-width: 0.75;stroke: #2297E6;fill: #2297E6;"/>
</g>
</svg>