<svg xmlns="http://www.w3.org/2000/svg" xmlns:xlink="http://www.w3.org/1999/xlink" class="httpgd" width="2048.00" height="1457.00" viewBox="0 0 1638.40 1165.60">
<defs>
  <style type='text/css'><![CDATA[
    .httpgd line, .httpgd polyline, .httpgd polygon, .httpgd path, .httpgd rect, .httpgd circle {
      fill: none;
      stroke: #000000;
      stroke-linecap: round;
      stroke-linejoin: round;
      stroke-miterlimit: 10.00;
    }
  ]]></style>
<clipPath id="c0"><rect x="0.00" y="0.00" width="1638.40" height="1165.60"/></clipPath>
<clipPath id="c1"><rect x="59.04" y="59.04" width="1549.12" height="1033.12"/></clipPath>
<clipPath id="c2"><rect x="0.00" y="0.00" width="1638.40" height="1165.60"/></clipPath>
</defs>
<rect width="100%" height="100%" style="stroke: none;fill: #FFFFFF;"/>
<g clip-path="url(#c0)">
</g><g clip-path="url(#c1)">
<circle cx="267.54" cy="895.00" r="2.70" style="stroke-width: 0.75;"/>
<circle cx="176.61" cy="1005.88" r="2.70" style="stroke-width: 0.75;"/>
<circle cx="205.14" cy="1013.25" r="2.70" style="stroke-width: 0.75;"/>
<circle cx="266.86" cy="892.87" r="2.70" style="stroke-width: 0.75;"/>
<circle cx="187.17" cy="992.27" r="2.70" style="stroke-width: 0.75;"/>
<circle cx="116.41" cy="1053.90" r="2.70" style="stroke-width: 0.75;"/>
<circle cx="1504.41" cy="212.70" r="2.70" style="stroke-width: 0.75;"/>
<circle cx="338.04" cy="908.99" r="2.70" style="stroke-width: 0.75;"/>
<circle cx="334.34" cy="897.62" r="2.70" style="stroke-width: 0.75;"/>
<circle cx="595.62" cy="751.03" r="2.70" style="stroke-width: 0.75;"/>
<circle cx="478.05" cy="835.70" r="2.70" style="stroke-width: 0.75;"/>
<circle cx="1550.79" cy="97.30" r="2.70" style="stroke-width: 0.75;"/>
<circle cx="367.88" cy="907.59" r="2.70" style="stroke-width: 0.75;"/>
<circle cx="417.74" cy="917.32" r="2.70" style="stroke-width: 0.75;"/>
<circle cx="430.43" cy="786.27" r="2.70" style="stroke-width: 0.75;"/>
<circle cx="190.92" cy="1012.85" r="2.70" style="stroke-width: 0.75;"/>
<circle cx="409.50" cy="804.75" r="2.70" style="stroke-width: 0.75;"/>
<circle cx="646.42" cy="773.23" r="2.70" style="stroke-width: 0.75;"/>
<circle cx="390.46" cy="939.76" r="2.70" style="stroke-width: 0.75;"/>
<circle cx="275.00" cy="1053.90" r="2.70" style="stroke-width: 0.75;"/>
<circle cx="312.34" cy="979.10" r="2.70" style="stroke-width: 0.75;"/>
<circle cx="910.82" cy="461.35" r="2.70" style="stroke-width: 0.75;"/>
<circle cx="452.27" cy="816.24" r="2.70" style="stroke-width: 0.75;"/>
<circle cx="548.58" cy="794.83" r="2.70" style="stroke-width: 0.75;"/>
<circle cx="371.34" cy="925.41" r="2.70" style="stroke-width: 0.75;"/>
<circle cx="116.41" cy="1053.90" r="2.70" style="stroke-width: 0.75;"/>
</g><g clip-path="url(#c2)">
<line x1="95.06" y1="1092.16" x2="1539.60" y2="1092.16" style="stroke-width: 0.75;"/>
<line x1="95.06" y1="1092.16" x2="95.06" y2="1099.36" style="stroke-width: 0.75;"/>
<line x1="456.20" y1="1092.16" x2="456.20" y2="1099.36" style="stroke-width: 0.75;"/>
<line x1="817.33" y1="1092.16" x2="817.33" y2="1099.36" style="stroke-width: 0.75;"/>
<line x1="1178.47" y1="1092.16" x2="1178.47" y2="1099.36" style="stroke-width: 0.75;"/>
<line x1="1539.60" y1="1092.16" x2="1539.60" y2="1099.36" style="stroke-width: 0.75;"/>
<g><text x="95.06" y="1118.08" text-anchor="middle" style="font-family: Arial;font-size: 12.00px;" textLength="10.67px" lengthAdjust="spacingAndGlyphs">-1</text></g>
<g><text x="456.20" y="1118.08" text-anchor="middle" style="font-family: Arial;font-size: 12.00px;" textLength="6.67px" lengthAdjust="spacingAndGlyphs">0</text></g>
<g><text x="817.33" y="1118.08" text-anchor="middle" style="font-family: Arial;font-size: 12.00px;" textLength="6.67px" lengthAdjust="spacingAndGlyphs">1</text></g>
<g><text x="1178.47" y="1118.08" text-anchor="middle" style="font-family: Arial;font-size: 12.00px;" textLength="6.67px" lengthAdjust="spacingAndGlyphs">2</text></g>
<g><text x="1539.60" y="1118.08" text-anchor="middle" style="font-family: Arial;font-size: 12.00px;" textLength="6.67px" lengthAdjust="spacingAndGlyphs">3</text></g>
<line x1="59.04" y1="1075.83" x2="59.04" y2="123.74" style="stroke-width: 0.75;"/>
<line x1="59.04" y1="1075.83" x2="51.84" y2="1075.83" style="stroke-width: 0.75;"/>
<line x1="59.04" y1="837.81" x2="51.84" y2="837.81" style="stroke-width: 0.75;"/>
<line x1="59.04" y1="599.79" x2="51.84" y2="599.79" style="stroke-width: 0.75;"/>
<line x1="59.04" y1="361.76" x2="51.84" y2="361.76" style="stroke-width: 0.75;"/>
<line x1="59.04" y1="123.74" x2="51.84" y2="123.74" style="stroke-width: 0.75;"/>
<g><text transform="translate(41.76,1075.83) rotate(-90.00)" text-anchor="middle" style="font-family: Arial;font-size: 12.00px;" textLength="10.67px" lengthAdjust="spacingAndGlyphs">-1</text></g>
<g><text transform="translate(41.76,837.81) rotate(-90.00)" text-anchor="middle" style="font-family: Arial;font-size: 12.00px;" textLength="6.67px" lengthAdjust="spacingAndGlyphs">0</text></g>
<g><text transform="translate(41.76,599.79) rotate(-90.00)" text-anchor="middle" style="font-family: Arial;font-size: 12.00px;" textLength="6.67px" lengthAdjust="spacingAndGlyphs">1</text></g>
<g><text transform="translate(41.76,361.76) rotate(-90.00)" text-anchor="middle" style="font-family: Arial;font-size: 12.00px;" textLength="6.67px" lengthAdjust="spacingAndGlyphs">2</text></g>
<g><text transform="translate(41.76,123.74) rotate(-90.00)" text-anchor="middle" style="font-family: Arial;font-size: 12.00px;" textLength="6.67px" lengthAdjust="spacingAndGlyphs">3</text></g>
<polygon points="59.04,1092.16 1608.16,1092.16 1608.16,59.04 59.04,59.04" style="stroke-width: 0.75;" />
<g><text x="833.60" y="1146.88" text-anchor="middle" style="font-family: Arial;font-size: 12.00px;" textLength="14.68px" lengthAdjust="spacingAndGlyphs">V1</text></g>
<g><text transform="translate(12.96,575.60) rotate(-90.00)" text-anchor="middle" style="font-family: Arial;font-size: 12.00px;" textLength="14.68px" lengthAdjust="spacingAndGlyphs">V2</text></g>
</g>
</svg>