<svg xmlns="http://www.w3.org/2000/svg" xmlns:xlink="http://www.w3.org/1999/xlink" class="httpgd" width="2048.00" height="1457.00" viewBox="0 0 1638.40 1165.60">
<defs>
  <style type='text/css'><![CDATA[
    .httpgd line, .httpgd polyline, .httpgd polygon, .httpgd path, .httpgd rect, .httpgd circle {
      fill: none;
      stroke: #000000;
      stroke-linecap: round;
      stroke-linejoin: round;
      stroke-miterlimit: 10.00;
    }
  ]]></style>
<clipPath id="c0"><rect x="0.00" y="0.00" width="1638.40" height="1165.60"/></clipPath>
<clipPath id="c1"><rect x="59.04" y="59.04" width="1549.12" height="1033.12"/></clipPath>
<clipPath id="c2"><rect x="0.00" y="0.00" width="1638.40" height="1165.60"/></clipPath>
<clipPath id="c3"><rect x="59.04" y="59.04" width="1549.12" height="1033.12"/></clipPath>
</defs>
<rect width="100%" height="100%" style="stroke: none;fill: #FFFFFF;"/>
<g clip-path="url(#c0)">
</g><g clip-path="url(#c1)">
<polyline points="116.41,514.00 118.16,514.00 119.90,514.00 121.64,514.00 123.39,514.00 125.13,514.00 126.87,514.00 128.61,514.00 130.36,514.00 132.10,514.00 133.84,514.00 135.59,514.00 137.33,514.00 139.07,514.00 140.81,514.00 142.56,514.00 144.30,1053.90 146.04,1053.90 147.79,1053.90 149.53,514.00 151.27,514.00 153.01,514.00 154.76,514.00 156.50,514.00 158.24,514.00 159.99,514.00 161.73,514.00 163.47,514.00 165.21,514.00 166.96,514.00 168.70,514.00 170.44,514.00 172.19,514.00 173.93,514.00 175.67,1053.90 177.41,1053.90 179.16,1053.90 180.90,514.00 182.64,514.00 184.39,514.00 186.13,514.00 187.87,514.00 189.61,514.00 191.36,514.00 193.10,514.00 194.84,1053.90 196.59,1053.90 198.33,514.00 200.07,1053.90 201.81,514.00 203.56,1053.90 205.30,1053.90 207.04,514.00 208.79,514.00 210.53,1053.90 212.27,514.00 214.01,514.00 215.76,514.00 217.50,514.00 219.24,514.00 220.99,1053.90 222.73,1053.90 224.47,514.00 226.21,514.00 227.96,514.00 229.70,514.00 231.44,514.00 233.19,514.00 234.93,1053.90 236.67,514.00 238.41,514.00 240.16,1053.90 241.90,514.00 243.64,514.00 245.39,1053.90 247.13,1053.90 248.87,1053.90 250.61,1053.90 252.36,1053.90 254.10,1053.90 255.84,1053.90 257.59,1053.90 259.33,1053.90 261.07,1053.90 262.81,1053.90 264.56,1053.90 266.30,1053.90 268.04,1053.90 269.79,1053.90 271.53,1053.90 273.27,1053.90 275.01,1053.90 276.76,1053.90 278.50,1053.90 280.24,1053.90 281.99,1053.90 283.73,1053.90 285.47,1053.90 287.21,514.00 288.96,514.00 290.70,514.00 292.44,514.00 294.19,514.00 295.93,514.00 297.67,514.00 299.41,514.00 301.16,514.00 302.90,514.00 304.64,514.00 306.39,514.00 308.13,1053.90 309.87,1053.90 311.61,514.00 313.36,514.00 315.10,514.00 316.84,514.00 318.59,514.00 320.33,514.00 322.07,514.00 323.81,514.00 325.56,514.00 327.30,514.00 329.04,514.00 330.79,514.00 332.53,514.00 334.27,514.00 336.01,514.00 337.76,514.00 339.50,514.00 341.24,1053.90 342.99,1053.90 344.73,514.00 346.47,1053.90 348.21,1053.90 349.96,1053.90 351.70,1053.90 353.44,514.00 355.19,514.00 356.93,514.00 358.67,514.00 360.41,514.00 362.16,514.00 363.90,514.00 365.64,514.00 367.39,514.00 369.13,514.00 370.87,514.00 372.61,514.00 374.36,514.00 376.10,514.00 377.84,514.00 379.59,514.00 381.33,514.00 383.07,514.00 384.81,1053.90 386.56,1053.90 388.30,514.00 390.04,514.00 391.79,514.00 393.53,514.00 395.27,514.00 397.01,514.00 398.76,514.00 400.50,514.00 402.24,1053.90 403.99,1053.90 405.73,514.00 407.47,1053.90 409.21,514.00 410.96,514.00 412.70,514.00 414.44,514.00 416.19,514.00 417.93,514.00 419.67,514.00 421.41,514.00 423.16,514.00 424.90,514.00 426.64,514.00 428.39,514.00 430.13,514.00 431.87,514.00 433.61,514.00 435.36,514.00 437.10,1053.90 438.84,514.00 440.59,514.00 442.33,1053.90 444.07,1053.90 445.81,514.00 447.56,514.00 449.30,514.00 451.04,514.00 452.79,514.00 454.53,514.00 456.27,514.00 458.01,514.00 459.76,514.00 461.50,514.00 463.24,514.00 464.99,514.00 466.73,514.00 468.47,514.00 470.21,1053.90 471.96,514.00 473.70,514.00 475.44,514.00 477.19,514.00 478.93,514.00 480.67,514.00 482.41,1053.90 484.16,1053.90 485.90,1053.90 487.64,1053.90 489.39,514.00 491.13,514.00 492.87,514.00 494.61,514.00 496.36,514.00 498.10,514.00 499.84,514.00 501.59,514.00 503.33,514.00 505.07,514.00 506.81,514.00 508.56,514.00 510.30,514.00 512.04,514.00 513.79,514.00 515.53,514.00 517.27,514.00 519.01,514.00 520.76,1053.90 522.50,1053.90 524.24,1053.90 525.99,1053.90 527.73,1053.90 529.47,514.00 531.21,514.00 532.96,514.00 534.70,514.00 536.44,514.00 538.19,514.00 539.93,514.00 541.67,514.00 543.41,514.00 545.16,514.00 546.90,514.00 548.64,514.00 550.39,514.00 552.13,514.00 553.87,514.00 555.61,514.00 557.36,514.00 559.10,514.00 560.84,514.00 562.59,514.00 564.33,514.00 566.07,1053.90 567.81,514.00 569.56,1053.90 571.30,514.00 573.04,514.00 574.79,514.00 576.53,514.00 578.27,514.00 580.01,514.00 581.76,514.00 583.50,514.00 585.24,514.00 586.99,514.00 588.73,514.00 590.47,514.00 592.21,514.00 593.96,514.00 595.70,514.00 597.44,514.00 599.19,514.00 600.93,514.00 602.67,514.00 604.41,514.00 606.16,514.00 607.90,514.00 609.64,1053.90 611.39,1053.90 613.13,1053.90 614.87,514.00 616.61,514.00 618.36,514.00 620.10,514.00 621.84,514.00 623.59,514.00 625.33,514.00 627.07,514.00 628.81,514.00 630.56,514.00 632.30,514.00 634.04,514.00 635.79,514.00 637.53,514.00 639.27,514.00 641.01,514.00 642.76,514.00 644.50,514.00 646.24,514.00 647.99,1053.90 649.73,514.00 651.47,1053.90 653.21,514.00 654.96,514.00 656.70,514.00 658.44,514.00 660.19,514.00 661.93,514.00 663.67,514.00 665.41,514.00 667.16,514.00 668.90,514.00 670.64,514.00 672.39,514.00 674.13,514.00 675.87,514.00 677.61,514.00 679.36,1053.90 681.10,1053.90 682.84,1053.90 684.59,1053.90 686.33,514.00 688.07,514.00 689.81,514.00 691.56,514.00 693.30,514.00 695.04,514.00 696.79,514.00 698.53,514.00 700.27,514.00 702.01,514.00 703.76,514.00 705.50,514.00 707.24,514.00 708.99,514.00 710.73,514.00 712.47,514.00 714.21,514.00 715.96,514.00 717.70,1053.90 719.44,1053.90 721.19,1053.90 722.93,1053.90 724.67,1053.90 726.41,1053.90 728.16,1053.90 729.90,514.00 731.64,514.00 733.39,514.00 735.13,514.00 736.87,514.00 738.61,514.00 740.36,514.00 742.10,514.00 743.84,514.00 745.59,514.00 747.33,514.00 749.07,514.00 750.81,514.00 752.56,514.00 754.30,514.00 756.04,514.00 757.79,514.00 759.53,514.00 761.27,514.00 763.01,514.00 764.76,1053.90 766.50,1053.90 768.24,1053.90 769.99,514.00 771.73,514.00 773.47,514.00 775.21,514.00 776.96,514.00 778.70,514.00 780.44,514.00 782.19,514.00 783.93,514.00 785.67,514.00 787.41,514.00 789.16,514.00 790.90,514.00 792.64,514.00 794.39,514.00 796.13,514.00 797.87,514.00 799.61,514.00 801.36,514.00 803.10,514.00 804.84,514.00 806.59,514.00 808.33,1053.90 810.07,1053.90 811.81,514.00 813.56,514.00 815.30,514.00 817.04,514.00 818.79,514.00 820.53,514.00 822.27,514.00 824.01,514.00 825.76,514.00 827.50,514.00 829.24,514.00 830.99,514.00 832.73,514.00 834.47,514.00 836.21,514.00 837.96,514.00 839.70,514.00 841.44,514.00 843.19,514.00 844.93,514.00 846.67,1053.90 848.41,1053.90 850.16,1053.90 851.90,1053.90 853.64,514.00 855.39,514.00 857.13,514.00 858.87,514.00 860.61,514.00 862.36,514.00 864.10,514.00 865.84,514.00 867.59,514.00 869.33,1053.90 871.07,1053.90 872.81,514.00 874.56,514.00 876.30,514.00 878.04,514.00 879.79,514.00 881.53,514.00 883.27,514.00 885.01,514.00 886.76,514.00 888.50,514.00 890.24,514.00 891.99,514.00 893.73,514.00 895.47,1053.90 897.21,1053.90 898.96,1053.90 900.70,1053.90 902.44,1053.90 904.19,1053.90 905.93,1053.90 907.67,1053.90 909.41,1053.90 911.16,1053.90 912.90,1053.90 914.64,1053.90 916.39,1053.90 918.13,1053.90 919.87,1053.90 921.61,1053.90 923.36,1053.90 925.10,1053.90 926.84,1053.90 928.59,1053.90 930.33,1053.90 932.07,514.00 933.81,514.00 935.56,514.00 937.30,514.00 939.04,514.00 940.79,514.00 942.53,514.00 944.27,1053.90 946.01,1053.90 947.76,1053.90 949.50,1053.90 951.24,1053.90 952.99,1053.90 954.73,1053.90 956.47,514.00 958.21,514.00 959.96,514.00 961.70,514.00 963.44,514.00 965.19,514.00 966.93,514.00 968.67,514.00 970.41,514.00 972.16,514.00 973.90,514.00 975.64,514.00 977.39,514.00 979.13,514.00 980.87,514.00 982.61,514.00 984.36,514.00 986.10,514.00 987.84,514.00 989.59,1053.90 991.33,1053.90 993.07,1053.90 994.81,1053.90 996.56,1053.90 998.30,514.00 1000.04,514.00 1001.79,514.00 1003.53,514.00 1005.27,514.00 1007.01,514.00 1008.76,514.00 1010.50,514.00 1012.24,514.00 1013.99,514.00 1015.73,514.00 1017.47,514.00 1019.21,514.00 1020.96,514.00 1022.70,514.00 1024.44,514.00 1026.19,514.00 1027.93,514.00 1029.67,1053.90 1031.41,514.00 1033.16,1053.90 1034.90,1053.90 1036.64,1053.90 1038.39,1053.90 1040.13,514.00 1041.87,514.00 1043.61,514.00 1045.36,514.00 1047.10,514.00 1048.84,514.00 1050.59,514.00 1052.33,514.00 1054.07,514.00 1055.81,514.00 1057.56,514.00 1059.30,514.00 1061.04,514.00 1062.79,514.00 1064.53,514.00 1066.27,514.00 1068.01,514.00 1069.76,1053.90 1071.50,514.00 1073.24,514.00 1074.99,514.00 1076.73,1053.90 1078.47,1053.90 1080.21,1053.90 1081.96,514.00 1083.70,514.00 1085.44,514.00 1087.19,514.00 1088.93,514.00 1090.67,514.00 1092.41,514.00 1094.16,514.00 1095.90,514.00 1097.64,514.00 1099.39,514.00 1101.13,514.00 1102.87,514.00 1104.61,514.00 1106.36,514.00 1108.10,514.00 1109.84,514.00 1111.59,514.00 1113.33,514.00 1115.07,514.00 1116.81,514.00 1118.56,514.00 1120.30,514.00 1122.04,1053.90 1123.79,514.00 1125.53,514.00 1127.27,514.00 1129.01,514.00 1130.76,514.00 1132.50,514.00 1134.24,514.00 1135.99,514.00 1137.73,514.00 1139.47,514.00 1141.21,514.00 1142.96,514.00 1144.70,514.00 1146.44,514.00 1148.19,514.00 1149.93,1053.90 1151.67,514.00 1153.41,514.00 1155.16,1053.90 1156.90,1053.90 1158.64,1053.90 1160.39,514.00 1162.13,514.00 1163.87,514.00 1165.61,514.00 1167.36,514.00 1169.10,514.00 1170.84,514.00 1172.59,514.00 1174.33,514.00 1176.07,514.00 1177.81,514.00 1179.56,514.00 1181.30,514.00 1183.04,514.00 1184.79,514.00 1186.53,514.00 1188.27,514.00 1190.01,514.00 1191.76,514.00 1193.50,514.00 1195.24,514.00 1196.99,514.00 1198.73,514.00 1200.47,514.00 1202.21,514.00 1203.96,514.00 1205.70,514.00 1207.44,514.00 1209.19,514.00 1210.93,514.00 1212.67,514.00 1214.41,514.00 1216.16,514.00 1217.90,514.00 1219.64,514.00 1221.39,514.00 1223.13,514.00 1224.87,514.00 1226.61,514.00 1228.36,514.00 1230.10,514.00 1231.84,1053.90 1233.59,1053.90 1235.33,1053.90 1237.07,1053.90 1238.81,1053.90 1240.56,1053.90 1242.30,1053.90 1244.04,514.00 1245.79,514.00 1247.53,514.00 1249.27,514.00 1251.01,514.00 1252.76,514.00 1254.50,514.00 1256.24,514.00 1257.99,514.00 1259.73,514.00 1261.47,514.00 1263.21,514.00 1264.96,514.00 1266.70,514.00 1268.44,514.00 1270.19,514.00 1271.93,514.00 1273.67,1053.90 1275.41,514.00 1277.16,1053.90 1278.90,1053.90 1280.64,1053.90 1282.39,1053.90 1284.13,1053.90 1285.87,514.00 1287.61,514.00 1289.36,514.00 1291.10,514.00 1292.84,514.00 1294.59,514.00 1296.33,514.00 1298.07,514.00 1299.81,514.00 1301.56,514.00 1303.30,514.00 1305.04,514.00 1306.79,514.00 1308.53,514.00 1310.27,514.00 1312.01,514.00 1313.76,514.00 1315.50,514.00 1317.24,514.00 1318.99,514.00 1320.73,1053.90 1322.47,514.00 1324.21,514.00 1325.96,1053.90 1327.70,514.00 1329.44,514.00 1331.19,514.00 1332.93,514.00 1334.67,514.00 1336.41,514.00 1338.16,514.00 1339.90,514.00 1341.64,514.00 1343.39,514.00 1345.13,514.00 1346.87,514.00 1348.61,514.00 1350.36,514.00 1352.10,514.00 1353.84,514.00 1355.59,514.00 1357.33,514.00 1359.07,514.00 1360.81,514.00 1362.56,514.00 1364.30,514.00 1366.04,514.00 1367.79,514.00 1369.53,514.00 1371.27,514.00 1373.01,514.00 1374.76,514.00 1376.50,514.00 1378.24,514.00 1379.99,514.00 1381.73,1053.90 1383.47,514.00 1385.21,1053.90 1386.96,1053.90 1388.70,514.00 1390.44,514.00 1392.19,514.00 1393.93,514.00 1395.67,514.00 1397.41,514.00 1399.16,514.00 1400.90,514.00 1402.64,514.00 1404.39,514.00 1406.13,514.00 1407.87,514.00 1409.61,514.00 1411.36,514.00 1413.10,514.00 1414.84,514.00 1416.59,514.00 1418.33,514.00 1420.07,514.00 1421.81,514.00 1423.56,514.00 1425.30,1053.90 1427.04,514.00 1428.79,514.00 1430.53,514.00 1432.27,514.00 1434.01,514.00 1435.76,514.00 1437.50,514.00 1439.24,514.00 1440.99,514.00 1442.73,514.00 1444.47,514.00 1446.21,514.00 1447.96,514.00 1449.70,514.00 1451.44,514.00 1453.19,514.00 1454.93,514.00 1456.67,514.00 1458.41,1053.90 1460.16,514.00 1461.90,514.00 1463.64,514.00 1465.39,514.00 1467.13,514.00 1468.87,514.00 1470.61,514.00 1472.36,514.00 1474.10,514.00 1475.84,514.00 1477.59,514.00 1479.33,1053.90 1481.07,1053.90 1482.81,1053.90 1484.56,1053.90 1486.30,1053.90 1488.04,514.00 1489.79,514.00 1491.53,514.00 1493.27,514.00 1495.01,514.00 1496.76,514.00 1498.50,514.00 1500.24,514.00 1501.99,514.00 1503.73,514.00 1505.47,514.00 1507.21,514.00 1508.96,514.00 1510.70,514.00 1512.44,514.00 1514.19,514.00 1515.93,514.00 1517.67,514.00 1519.41,514.00 1521.16,514.00 1522.90,514.00 1524.64,514.00 1526.39,1053.90 1528.13,514.00 1529.87,514.00 1531.61,514.00 1533.36,514.00 1535.10,514.00 1536.84,514.00 1538.59,514.00 1540.33,514.00 1542.07,514.00 1543.81,514.00 1545.56,514.00 1547.30,514.00" style="stroke-width: 0.75;"/>
</g><g clip-path="url(#c2)">
<g><text x="833.60" y="34.67" text-anchor="middle" style="font-family: Arial;font-size: 14.40px;font-weight: bold;" textLength="184.74px" lengthAdjust="spacingAndGlyphs">Forecasts from ETS(A,N,N)</text></g>
<line x1="148.66" y1="1092.16" x2="1576.06" y2="1092.16" style="stroke-width: 0.75;"/>
<line x1="148.66" y1="1092.16" x2="148.66" y2="1099.36" style="stroke-width: 0.75;"/>
<line x1="386.56" y1="1092.16" x2="386.56" y2="1099.36" style="stroke-width: 0.75;"/>
<line x1="624.46" y1="1092.16" x2="624.46" y2="1099.36" style="stroke-width: 0.75;"/>
<line x1="862.36" y1="1092.16" x2="862.36" y2="1099.36" style="stroke-width: 0.75;"/>
<line x1="1100.26" y1="1092.16" x2="1100.26" y2="1099.36" style="stroke-width: 0.75;"/>
<line x1="1338.16" y1="1092.16" x2="1338.16" y2="1099.36" style="stroke-width: 0.75;"/>
<line x1="1576.06" y1="1092.16" x2="1576.06" y2="1099.36" style="stroke-width: 0.75;"/>
<g><text x="148.66" y="1118.08" text-anchor="middle" style="font-family: Arial;font-size: 12.00px;" textLength="36.71px" lengthAdjust="spacingAndGlyphs">2020.5</text></g>
<g><text x="386.56" y="1118.08" text-anchor="middle" style="font-family: Arial;font-size: 12.00px;" textLength="36.71px" lengthAdjust="spacingAndGlyphs">2021.0</text></g>
<g><text x="624.46" y="1118.08" text-anchor="middle" style="font-family: Arial;font-size: 12.00px;" textLength="36.71px" lengthAdjust="spacingAndGlyphs">2021.5</text></g>
<g><text x="862.36" y="1118.08" text-anchor="middle" style="font-family: Arial;font-size: 12.00px;" textLength="36.71px" lengthAdjust="spacingAndGlyphs">2022.0</text></g>
<g><text x="1100.26" y="1118.08" text-anchor="middle" style="font-family: Arial;font-size: 12.00px;" textLength="36.71px" lengthAdjust="spacingAndGlyphs">2022.5</text></g>
<g><text x="1338.16" y="1118.08" text-anchor="middle" style="font-family: Arial;font-size: 12.00px;" textLength="36.71px" lengthAdjust="spacingAndGlyphs">2023.0</text></g>
<g><text x="1576.06" y="1118.08" text-anchor="middle" style="font-family: Arial;font-size: 12.00px;" textLength="36.71px" lengthAdjust="spacingAndGlyphs">2023.5</text></g>
<line x1="59.04" y1="1053.90" x2="59.04" y2="244.05" style="stroke-width: 0.75;"/>
<line x1="59.04" y1="1053.90" x2="51.84" y2="1053.90" style="stroke-width: 0.75;"/>
<line x1="59.04" y1="783.95" x2="51.84" y2="783.95" style="stroke-width: 0.75;"/>
<line x1="59.04" y1="514.00" x2="51.84" y2="514.00" style="stroke-width: 0.75;"/>
<line x1="59.04" y1="244.05" x2="51.84" y2="244.05" style="stroke-width: 0.75;"/>
<g><text transform="translate(41.76,1053.90) rotate(-90.00)" text-anchor="middle" style="font-family: Arial;font-size: 12.00px;" textLength="16.68px" lengthAdjust="spacingAndGlyphs">0.0</text></g>
<g><text transform="translate(41.76,783.95) rotate(-90.00)" text-anchor="middle" style="font-family: Arial;font-size: 12.00px;" textLength="16.68px" lengthAdjust="spacingAndGlyphs">0.5</text></g>
<g><text transform="translate(41.76,514.00) rotate(-90.00)" text-anchor="middle" style="font-family: Arial;font-size: 12.00px;" textLength="16.68px" lengthAdjust="spacingAndGlyphs">1.0</text></g>
<g><text transform="translate(41.76,244.05) rotate(-90.00)" text-anchor="middle" style="font-family: Arial;font-size: 12.00px;" textLength="16.68px" lengthAdjust="spacingAndGlyphs">1.5</text></g>
<polygon points="59.04,1092.16 1608.16,1092.16 1608.16,59.04 59.04,59.04" style="stroke-width: 0.75;" />
</g><g clip-path="url(#c3)">
<polygon points="1548.17,872.01 1549.91,872.01 1549.91,155.99 1548.17,155.99" style="stroke-width: 0.75;stroke: none;fill: #DBDBDF;" />
<polygon points="1549.91,930.70 1551.66,930.70 1551.66,97.30 1549.91,97.30" style="stroke-width: 0.75;stroke: none;fill: #DBDBDF;" />
<polygon points="1548.17,748.09 1549.91,748.09 1549.91,279.91 1548.17,279.91" style="stroke-width: 0.75;stroke: none;fill: #B1B5CE;" />
<polygon points="1549.91,786.47 1551.66,786.47 1551.66,241.54 1549.91,241.54" style="stroke-width: 0.75;stroke: none;fill: #B1B5CE;" />
<circle cx="1549.04" cy="514.00" r="2.70" style="stroke-width: 0.75;stroke: #2297E6;fill: #2297E6;"/>
<circle cx="1550.79" cy="514.00" r="2.70" style="stroke-width: 0.75;stroke: #2297E6;fill: #2297E6;"/>
</g>
</svg>