<svg xmlns="http://www.w3.org/2000/svg" xmlns:xlink="http://www.w3.org/1999/xlink" class="httpgd" width="2048.00" height="1457.00" viewBox="0 0 1638.40 1165.60">
<defs>
  <style type='text/css'><![CDATA[
    .httpgd line, .httpgd polyline, .httpgd polygon, .httpgd path, .httpgd rect, .httpgd circle {
      fill: none;
      stroke: #000000;
      stroke-linecap: round;
      stroke-linejoin: round;
      stroke-miterlimit: 10.00;
    }
  ]]></style>
<clipPath id="c0"><rect x="0.00" y="0.00" width="1638.40" height="1165.60"/></clipPath>
<clipPath id="c1"><rect x="59.04" y="59.04" width="1549.12" height="1033.12"/></clipPath>
<clipPath id="c2"><rect x="0.00" y="0.00" width="1638.40" height="1165.60"/></clipPath>
</defs>
<rect width="100%" height="100%" style="stroke: none;fill: #FFFFFF;"/>
<g clip-path="url(#c0)">
</g><g clip-path="url(#c1)">
<circle cx="116.41" cy="356.72" r="2.70" style="stroke-width: 0.75;"/>
<circle cx="120.51" cy="145.94" r="2.70" style="stroke-width: 0.75;"/>
<circle cx="124.61" cy="324.29" r="2.70" style="stroke-width: 0.75;"/>
<circle cx="128.71" cy="162.16" r="2.70" style="stroke-width: 0.75;"/>
<circle cx="132.81" cy="308.08" r="2.70" style="stroke-width: 0.75;"/>
<circle cx="136.91" cy="129.73" r="2.70" style="stroke-width: 0.75;"/>
<circle cx="141.00" cy="372.93" r="2.70" style="stroke-width: 0.75;"/>
<circle cx="145.10" cy="308.08" r="2.70" style="stroke-width: 0.75;"/>
<circle cx="149.20" cy="372.93" r="2.70" style="stroke-width: 0.75;"/>
<circle cx="153.30" cy="308.08" r="2.70" style="stroke-width: 0.75;"/>
<circle cx="157.40" cy="372.93" r="2.70" style="stroke-width: 0.75;"/>
<circle cx="161.50" cy="340.51" r="2.70" style="stroke-width: 0.75;"/>
<circle cx="165.59" cy="372.93" r="2.70" style="stroke-width: 0.75;"/>
<circle cx="169.69" cy="243.22" r="2.70" style="stroke-width: 0.75;"/>
<circle cx="173.79" cy="372.93" r="2.70" style="stroke-width: 0.75;"/>
<circle cx="177.89" cy="340.51" r="2.70" style="stroke-width: 0.75;"/>
<circle cx="181.99" cy="291.86" r="2.70" style="stroke-width: 0.75;"/>
<circle cx="186.08" cy="308.08" r="2.70" style="stroke-width: 0.75;"/>
<circle cx="190.18" cy="356.72" r="2.70" style="stroke-width: 0.75;"/>
<circle cx="194.28" cy="372.93" r="2.70" style="stroke-width: 0.75;"/>
<circle cx="198.38" cy="356.72" r="2.70" style="stroke-width: 0.75;"/>
<circle cx="202.48" cy="1053.90" r="2.70" style="stroke-width: 0.75;"/>
<circle cx="206.58" cy="275.65" r="2.70" style="stroke-width: 0.75;"/>
<circle cx="210.67" cy="356.72" r="2.70" style="stroke-width: 0.75;"/>
<circle cx="214.77" cy="340.51" r="2.70" style="stroke-width: 0.75;"/>
<circle cx="218.87" cy="1053.90" r="2.70" style="stroke-width: 0.75;"/>
<circle cx="222.97" cy="356.72" r="2.70" style="stroke-width: 0.75;"/>
<circle cx="227.07" cy="372.93" r="2.70" style="stroke-width: 0.75;"/>
<circle cx="231.16" cy="356.72" r="2.70" style="stroke-width: 0.75;"/>
<circle cx="235.26" cy="1053.90" r="2.70" style="stroke-width: 0.75;"/>
<circle cx="239.36" cy="340.51" r="2.70" style="stroke-width: 0.75;"/>
<circle cx="243.46" cy="372.93" r="2.70" style="stroke-width: 0.75;"/>
<circle cx="247.56" cy="275.65" r="2.70" style="stroke-width: 0.75;"/>
<circle cx="251.66" cy="356.72" r="2.70" style="stroke-width: 0.75;"/>
<circle cx="255.75" cy="178.37" r="2.70" style="stroke-width: 0.75;"/>
<circle cx="259.85" cy="372.93" r="2.70" style="stroke-width: 0.75;"/>
<circle cx="263.95" cy="227.01" r="2.70" style="stroke-width: 0.75;"/>
<circle cx="268.05" cy="340.51" r="2.70" style="stroke-width: 0.75;"/>
<circle cx="272.15" cy="275.65" r="2.70" style="stroke-width: 0.75;"/>
<circle cx="276.24" cy="340.51" r="2.70" style="stroke-width: 0.75;"/>
<circle cx="280.34" cy="129.73" r="2.70" style="stroke-width: 0.75;"/>
<circle cx="284.44" cy="356.72" r="2.70" style="stroke-width: 0.75;"/>
<circle cx="288.54" cy="129.73" r="2.70" style="stroke-width: 0.75;"/>
<circle cx="292.64" cy="356.72" r="2.70" style="stroke-width: 0.75;"/>
<circle cx="296.74" cy="210.80" r="2.70" style="stroke-width: 0.75;"/>
<circle cx="300.83" cy="356.72" r="2.70" style="stroke-width: 0.75;"/>
<circle cx="304.93" cy="275.65" r="2.70" style="stroke-width: 0.75;"/>
<circle cx="309.03" cy="372.93" r="2.70" style="stroke-width: 0.75;"/>
<circle cx="313.13" cy="97.30" r="2.70" style="stroke-width: 0.75;"/>
<circle cx="317.23" cy="372.93" r="2.70" style="stroke-width: 0.75;"/>
<circle cx="321.32" cy="275.65" r="2.70" style="stroke-width: 0.75;"/>
<circle cx="325.42" cy="356.72" r="2.70" style="stroke-width: 0.75;"/>
<circle cx="329.52" cy="308.08" r="2.70" style="stroke-width: 0.75;"/>
<circle cx="333.62" cy="1053.90" r="2.70" style="stroke-width: 0.75;"/>
<circle cx="337.72" cy="275.65" r="2.70" style="stroke-width: 0.75;"/>
<circle cx="341.82" cy="1053.90" r="2.70" style="stroke-width: 0.75;"/>
<circle cx="345.91" cy="243.22" r="2.70" style="stroke-width: 0.75;"/>
<circle cx="350.01" cy="372.93" r="2.70" style="stroke-width: 0.75;"/>
<circle cx="354.11" cy="308.08" r="2.70" style="stroke-width: 0.75;"/>
<circle cx="358.21" cy="356.72" r="2.70" style="stroke-width: 0.75;"/>
<circle cx="362.31" cy="356.72" r="2.70" style="stroke-width: 0.75;"/>
<circle cx="366.41" cy="356.72" r="2.70" style="stroke-width: 0.75;"/>
<circle cx="370.50" cy="340.51" r="2.70" style="stroke-width: 0.75;"/>
<circle cx="374.60" cy="372.93" r="2.70" style="stroke-width: 0.75;"/>
<circle cx="378.70" cy="372.93" r="2.70" style="stroke-width: 0.75;"/>
<circle cx="382.80" cy="1053.90" r="2.70" style="stroke-width: 0.75;"/>
<circle cx="386.90" cy="275.65" r="2.70" style="stroke-width: 0.75;"/>
<circle cx="390.99" cy="1053.90" r="2.70" style="stroke-width: 0.75;"/>
<circle cx="395.09" cy="340.51" r="2.70" style="stroke-width: 0.75;"/>
<circle cx="399.19" cy="372.93" r="2.70" style="stroke-width: 0.75;"/>
<circle cx="403.29" cy="1053.90" r="2.70" style="stroke-width: 0.75;"/>
<circle cx="407.39" cy="372.93" r="2.70" style="stroke-width: 0.75;"/>
<circle cx="411.49" cy="324.29" r="2.70" style="stroke-width: 0.75;"/>
<circle cx="415.58" cy="372.93" r="2.70" style="stroke-width: 0.75;"/>
<circle cx="419.68" cy="356.72" r="2.70" style="stroke-width: 0.75;"/>
<circle cx="423.78" cy="275.65" r="2.70" style="stroke-width: 0.75;"/>
<circle cx="427.88" cy="372.93" r="2.70" style="stroke-width: 0.75;"/>
<circle cx="431.98" cy="356.72" r="2.70" style="stroke-width: 0.75;"/>
<circle cx="436.07" cy="372.93" r="2.70" style="stroke-width: 0.75;"/>
<circle cx="440.17" cy="340.51" r="2.70" style="stroke-width: 0.75;"/>
<circle cx="444.27" cy="372.93" r="2.70" style="stroke-width: 0.75;"/>
<circle cx="448.37" cy="324.29" r="2.70" style="stroke-width: 0.75;"/>
<circle cx="452.47" cy="356.72" r="2.70" style="stroke-width: 0.75;"/>
<circle cx="456.57" cy="275.65" r="2.70" style="stroke-width: 0.75;"/>
<circle cx="460.66" cy="356.72" r="2.70" style="stroke-width: 0.75;"/>
<circle cx="464.76" cy="372.93" r="2.70" style="stroke-width: 0.75;"/>
<circle cx="468.86" cy="1053.90" r="2.70" style="stroke-width: 0.75;"/>
<circle cx="472.96" cy="372.93" r="2.70" style="stroke-width: 0.75;"/>
<circle cx="477.06" cy="372.93" r="2.70" style="stroke-width: 0.75;"/>
<circle cx="481.15" cy="324.29" r="2.70" style="stroke-width: 0.75;"/>
<circle cx="485.25" cy="356.72" r="2.70" style="stroke-width: 0.75;"/>
<circle cx="489.35" cy="324.29" r="2.70" style="stroke-width: 0.75;"/>
<circle cx="493.45" cy="275.65" r="2.70" style="stroke-width: 0.75;"/>
<circle cx="497.55" cy="275.65" r="2.70" style="stroke-width: 0.75;"/>
<circle cx="501.65" cy="340.51" r="2.70" style="stroke-width: 0.75;"/>
<circle cx="505.74" cy="324.29" r="2.70" style="stroke-width: 0.75;"/>
<circle cx="509.84" cy="324.29" r="2.70" style="stroke-width: 0.75;"/>
<circle cx="513.94" cy="275.65" r="2.70" style="stroke-width: 0.75;"/>
<circle cx="518.04" cy="356.72" r="2.70" style="stroke-width: 0.75;"/>
<circle cx="522.14" cy="275.65" r="2.70" style="stroke-width: 0.75;"/>
<circle cx="526.23" cy="340.51" r="2.70" style="stroke-width: 0.75;"/>
<circle cx="530.33" cy="291.86" r="2.70" style="stroke-width: 0.75;"/>
<circle cx="534.43" cy="340.51" r="2.70" style="stroke-width: 0.75;"/>
<circle cx="538.53" cy="210.80" r="2.70" style="stroke-width: 0.75;"/>
<circle cx="542.63" cy="1053.90" r="2.70" style="stroke-width: 0.75;"/>
<circle cx="546.73" cy="1053.90" r="2.70" style="stroke-width: 0.75;"/>
<circle cx="550.82" cy="372.93" r="2.70" style="stroke-width: 0.75;"/>
<circle cx="554.92" cy="372.93" r="2.70" style="stroke-width: 0.75;"/>
<circle cx="559.02" cy="1053.90" r="2.70" style="stroke-width: 0.75;"/>
<circle cx="563.12" cy="372.93" r="2.70" style="stroke-width: 0.75;"/>
<circle cx="567.22" cy="1053.90" r="2.70" style="stroke-width: 0.75;"/>
<circle cx="571.32" cy="372.93" r="2.70" style="stroke-width: 0.75;"/>
<circle cx="575.41" cy="372.93" r="2.70" style="stroke-width: 0.75;"/>
<circle cx="579.51" cy="1053.90" r="2.70" style="stroke-width: 0.75;"/>
<circle cx="583.61" cy="1053.90" r="2.70" style="stroke-width: 0.75;"/>
<circle cx="587.71" cy="356.72" r="2.70" style="stroke-width: 0.75;"/>
<circle cx="591.81" cy="372.93" r="2.70" style="stroke-width: 0.75;"/>
<circle cx="595.90" cy="340.51" r="2.70" style="stroke-width: 0.75;"/>
<circle cx="600.00" cy="372.93" r="2.70" style="stroke-width: 0.75;"/>
<circle cx="604.10" cy="356.72" r="2.70" style="stroke-width: 0.75;"/>
<circle cx="608.20" cy="356.72" r="2.70" style="stroke-width: 0.75;"/>
<circle cx="612.30" cy="340.51" r="2.70" style="stroke-width: 0.75;"/>
<circle cx="616.40" cy="324.29" r="2.70" style="stroke-width: 0.75;"/>
<circle cx="620.49" cy="324.29" r="2.70" style="stroke-width: 0.75;"/>
<circle cx="624.59" cy="340.51" r="2.70" style="stroke-width: 0.75;"/>
<circle cx="628.69" cy="340.51" r="2.70" style="stroke-width: 0.75;"/>
<circle cx="632.79" cy="356.72" r="2.70" style="stroke-width: 0.75;"/>
<circle cx="636.89" cy="340.51" r="2.70" style="stroke-width: 0.75;"/>
<circle cx="640.98" cy="356.72" r="2.70" style="stroke-width: 0.75;"/>
<circle cx="645.08" cy="1053.90" r="2.70" style="stroke-width: 0.75;"/>
<circle cx="649.18" cy="372.93" r="2.70" style="stroke-width: 0.75;"/>
<circle cx="653.28" cy="372.93" r="2.70" style="stroke-width: 0.75;"/>
<circle cx="657.38" cy="356.72" r="2.70" style="stroke-width: 0.75;"/>
<circle cx="661.48" cy="356.72" r="2.70" style="stroke-width: 0.75;"/>
<circle cx="665.57" cy="1053.90" r="2.70" style="stroke-width: 0.75;"/>
<circle cx="669.67" cy="356.72" r="2.70" style="stroke-width: 0.75;"/>
<circle cx="673.77" cy="356.72" r="2.70" style="stroke-width: 0.75;"/>
<circle cx="677.87" cy="372.93" r="2.70" style="stroke-width: 0.75;"/>
<circle cx="681.97" cy="308.08" r="2.70" style="stroke-width: 0.75;"/>
<circle cx="686.06" cy="1053.90" r="2.70" style="stroke-width: 0.75;"/>
<circle cx="690.16" cy="372.93" r="2.70" style="stroke-width: 0.75;"/>
<circle cx="694.26" cy="372.93" r="2.70" style="stroke-width: 0.75;"/>
<circle cx="698.36" cy="291.86" r="2.70" style="stroke-width: 0.75;"/>
<circle cx="702.46" cy="372.93" r="2.70" style="stroke-width: 0.75;"/>
<circle cx="706.56" cy="340.51" r="2.70" style="stroke-width: 0.75;"/>
<circle cx="710.65" cy="372.93" r="2.70" style="stroke-width: 0.75;"/>
<circle cx="714.75" cy="275.65" r="2.70" style="stroke-width: 0.75;"/>
<circle cx="718.85" cy="275.65" r="2.70" style="stroke-width: 0.75;"/>
<circle cx="722.95" cy="243.22" r="2.70" style="stroke-width: 0.75;"/>
<circle cx="727.05" cy="340.51" r="2.70" style="stroke-width: 0.75;"/>
<circle cx="731.14" cy="210.80" r="2.70" style="stroke-width: 0.75;"/>
<circle cx="735.24" cy="372.93" r="2.70" style="stroke-width: 0.75;"/>
<circle cx="739.34" cy="275.65" r="2.70" style="stroke-width: 0.75;"/>
<circle cx="743.44" cy="340.51" r="2.70" style="stroke-width: 0.75;"/>
<circle cx="747.54" cy="210.80" r="2.70" style="stroke-width: 0.75;"/>
<circle cx="751.64" cy="291.86" r="2.70" style="stroke-width: 0.75;"/>
<circle cx="755.73" cy="129.73" r="2.70" style="stroke-width: 0.75;"/>
<circle cx="759.83" cy="356.72" r="2.70" style="stroke-width: 0.75;"/>
<circle cx="763.93" cy="275.65" r="2.70" style="stroke-width: 0.75;"/>
<circle cx="768.03" cy="372.93" r="2.70" style="stroke-width: 0.75;"/>
<circle cx="772.13" cy="227.01" r="2.70" style="stroke-width: 0.75;"/>
<circle cx="776.23" cy="356.72" r="2.70" style="stroke-width: 0.75;"/>
<circle cx="780.32" cy="275.65" r="2.70" style="stroke-width: 0.75;"/>
<circle cx="784.42" cy="372.93" r="2.70" style="stroke-width: 0.75;"/>
<circle cx="788.52" cy="275.65" r="2.70" style="stroke-width: 0.75;"/>
<circle cx="792.62" cy="356.72" r="2.70" style="stroke-width: 0.75;"/>
<circle cx="796.72" cy="291.86" r="2.70" style="stroke-width: 0.75;"/>
<circle cx="800.81" cy="275.65" r="2.70" style="stroke-width: 0.75;"/>
<circle cx="804.91" cy="372.93" r="2.70" style="stroke-width: 0.75;"/>
<circle cx="809.01" cy="340.51" r="2.70" style="stroke-width: 0.75;"/>
<circle cx="813.11" cy="275.65" r="2.70" style="stroke-width: 0.75;"/>
<circle cx="817.21" cy="372.93" r="2.70" style="stroke-width: 0.75;"/>
<circle cx="821.31" cy="275.65" r="2.70" style="stroke-width: 0.75;"/>
<circle cx="825.40" cy="372.93" r="2.70" style="stroke-width: 0.75;"/>
<circle cx="829.50" cy="308.08" r="2.70" style="stroke-width: 0.75;"/>
<circle cx="833.60" cy="1053.90" r="2.70" style="stroke-width: 0.75;"/>
<circle cx="837.70" cy="372.93" r="2.70" style="stroke-width: 0.75;"/>
<circle cx="841.80" cy="340.51" r="2.70" style="stroke-width: 0.75;"/>
<circle cx="845.89" cy="1053.90" r="2.70" style="stroke-width: 0.75;"/>
<circle cx="849.99" cy="372.93" r="2.70" style="stroke-width: 0.75;"/>
<circle cx="854.09" cy="340.51" r="2.70" style="stroke-width: 0.75;"/>
<circle cx="858.19" cy="372.93" r="2.70" style="stroke-width: 0.75;"/>
<circle cx="862.29" cy="210.80" r="2.70" style="stroke-width: 0.75;"/>
<circle cx="866.39" cy="356.72" r="2.70" style="stroke-width: 0.75;"/>
<circle cx="870.48" cy="275.65" r="2.70" style="stroke-width: 0.75;"/>
<circle cx="874.58" cy="356.72" r="2.70" style="stroke-width: 0.75;"/>
<circle cx="878.68" cy="275.65" r="2.70" style="stroke-width: 0.75;"/>
<circle cx="882.78" cy="356.72" r="2.70" style="stroke-width: 0.75;"/>
<circle cx="886.88" cy="227.01" r="2.70" style="stroke-width: 0.75;"/>
<circle cx="890.97" cy="324.29" r="2.70" style="stroke-width: 0.75;"/>
<circle cx="895.07" cy="308.08" r="2.70" style="stroke-width: 0.75;"/>
<circle cx="899.17" cy="340.51" r="2.70" style="stroke-width: 0.75;"/>
<circle cx="903.27" cy="178.37" r="2.70" style="stroke-width: 0.75;"/>
<circle cx="907.37" cy="372.93" r="2.70" style="stroke-width: 0.75;"/>
<circle cx="911.47" cy="227.01" r="2.70" style="stroke-width: 0.75;"/>
<circle cx="915.56" cy="372.93" r="2.70" style="stroke-width: 0.75;"/>
<circle cx="919.66" cy="243.22" r="2.70" style="stroke-width: 0.75;"/>
<circle cx="923.76" cy="356.72" r="2.70" style="stroke-width: 0.75;"/>
<circle cx="927.86" cy="129.73" r="2.70" style="stroke-width: 0.75;"/>
<circle cx="931.96" cy="356.72" r="2.70" style="stroke-width: 0.75;"/>
<circle cx="936.06" cy="275.65" r="2.70" style="stroke-width: 0.75;"/>
<circle cx="940.15" cy="372.93" r="2.70" style="stroke-width: 0.75;"/>
<circle cx="944.25" cy="275.65" r="2.70" style="stroke-width: 0.75;"/>
<circle cx="948.35" cy="372.93" r="2.70" style="stroke-width: 0.75;"/>
<circle cx="952.45" cy="308.08" r="2.70" style="stroke-width: 0.75;"/>
<circle cx="956.55" cy="372.93" r="2.70" style="stroke-width: 0.75;"/>
<circle cx="960.64" cy="275.65" r="2.70" style="stroke-width: 0.75;"/>
<circle cx="964.74" cy="356.72" r="2.70" style="stroke-width: 0.75;"/>
<circle cx="968.84" cy="275.65" r="2.70" style="stroke-width: 0.75;"/>
<circle cx="972.94" cy="372.93" r="2.70" style="stroke-width: 0.75;"/>
<circle cx="977.04" cy="372.93" r="2.70" style="stroke-width: 0.75;"/>
<circle cx="981.14" cy="356.72" r="2.70" style="stroke-width: 0.75;"/>
<circle cx="985.23" cy="1053.90" r="2.70" style="stroke-width: 0.75;"/>
<circle cx="989.33" cy="372.93" r="2.70" style="stroke-width: 0.75;"/>
<circle cx="993.43" cy="372.93" r="2.70" style="stroke-width: 0.75;"/>
<circle cx="997.53" cy="291.86" r="2.70" style="stroke-width: 0.75;"/>
<circle cx="1001.63" cy="372.93" r="2.70" style="stroke-width: 0.75;"/>
<circle cx="1005.72" cy="324.29" r="2.70" style="stroke-width: 0.75;"/>
<circle cx="1009.82" cy="1053.90" r="2.70" style="stroke-width: 0.75;"/>
<circle cx="1013.92" cy="340.51" r="2.70" style="stroke-width: 0.75;"/>
<circle cx="1018.02" cy="356.72" r="2.70" style="stroke-width: 0.75;"/>
<circle cx="1022.12" cy="356.72" r="2.70" style="stroke-width: 0.75;"/>
<circle cx="1026.22" cy="1053.90" r="2.70" style="stroke-width: 0.75;"/>
<circle cx="1030.31" cy="1053.90" r="2.70" style="stroke-width: 0.75;"/>
<circle cx="1034.41" cy="372.93" r="2.70" style="stroke-width: 0.75;"/>
<circle cx="1038.51" cy="372.93" r="2.70" style="stroke-width: 0.75;"/>
<circle cx="1042.61" cy="1053.90" r="2.70" style="stroke-width: 0.75;"/>
<circle cx="1046.71" cy="1053.90" r="2.70" style="stroke-width: 0.75;"/>
<circle cx="1050.80" cy="275.65" r="2.70" style="stroke-width: 0.75;"/>
<circle cx="1054.90" cy="340.51" r="2.70" style="stroke-width: 0.75;"/>
<circle cx="1059.00" cy="129.73" r="2.70" style="stroke-width: 0.75;"/>
<circle cx="1063.10" cy="356.72" r="2.70" style="stroke-width: 0.75;"/>
<circle cx="1067.20" cy="129.73" r="2.70" style="stroke-width: 0.75;"/>
<circle cx="1071.30" cy="356.72" r="2.70" style="stroke-width: 0.75;"/>
<circle cx="1075.39" cy="259.44" r="2.70" style="stroke-width: 0.75;"/>
<circle cx="1079.49" cy="340.51" r="2.70" style="stroke-width: 0.75;"/>
<circle cx="1083.59" cy="259.44" r="2.70" style="stroke-width: 0.75;"/>
<circle cx="1087.69" cy="1053.90" r="2.70" style="stroke-width: 0.75;"/>
<circle cx="1091.79" cy="243.22" r="2.70" style="stroke-width: 0.75;"/>
<circle cx="1095.88" cy="356.72" r="2.70" style="stroke-width: 0.75;"/>
<circle cx="1099.98" cy="275.65" r="2.70" style="stroke-width: 0.75;"/>
<circle cx="1104.08" cy="372.93" r="2.70" style="stroke-width: 0.75;"/>
<circle cx="1108.18" cy="275.65" r="2.70" style="stroke-width: 0.75;"/>
<circle cx="1112.28" cy="1053.90" r="2.70" style="stroke-width: 0.75;"/>
<circle cx="1116.38" cy="340.51" r="2.70" style="stroke-width: 0.75;"/>
<circle cx="1120.47" cy="356.72" r="2.70" style="stroke-width: 0.75;"/>
<circle cx="1124.57" cy="275.65" r="2.70" style="stroke-width: 0.75;"/>
<circle cx="1128.67" cy="356.72" r="2.70" style="stroke-width: 0.75;"/>
<circle cx="1132.77" cy="162.16" r="2.70" style="stroke-width: 0.75;"/>
<circle cx="1136.87" cy="356.72" r="2.70" style="stroke-width: 0.75;"/>
<circle cx="1140.97" cy="275.65" r="2.70" style="stroke-width: 0.75;"/>
<circle cx="1145.06" cy="372.93" r="2.70" style="stroke-width: 0.75;"/>
<circle cx="1149.16" cy="275.65" r="2.70" style="stroke-width: 0.75;"/>
<circle cx="1153.26" cy="340.51" r="2.70" style="stroke-width: 0.75;"/>
<circle cx="1157.36" cy="340.51" r="2.70" style="stroke-width: 0.75;"/>
<circle cx="1161.46" cy="340.51" r="2.70" style="stroke-width: 0.75;"/>
<circle cx="1165.55" cy="372.93" r="2.70" style="stroke-width: 0.75;"/>
<circle cx="1169.65" cy="356.72" r="2.70" style="stroke-width: 0.75;"/>
<circle cx="1173.75" cy="324.29" r="2.70" style="stroke-width: 0.75;"/>
<circle cx="1177.85" cy="340.51" r="2.70" style="stroke-width: 0.75;"/>
<circle cx="1181.95" cy="372.93" r="2.70" style="stroke-width: 0.75;"/>
<circle cx="1186.05" cy="1053.90" r="2.70" style="stroke-width: 0.75;"/>
<circle cx="1190.14" cy="372.93" r="2.70" style="stroke-width: 0.75;"/>
<circle cx="1194.24" cy="356.72" r="2.70" style="stroke-width: 0.75;"/>
<circle cx="1198.34" cy="356.72" r="2.70" style="stroke-width: 0.75;"/>
<circle cx="1202.44" cy="308.08" r="2.70" style="stroke-width: 0.75;"/>
<circle cx="1206.54" cy="372.93" r="2.70" style="stroke-width: 0.75;"/>
<circle cx="1210.63" cy="1053.90" r="2.70" style="stroke-width: 0.75;"/>
<circle cx="1214.73" cy="372.93" r="2.70" style="stroke-width: 0.75;"/>
<circle cx="1218.83" cy="1053.90" r="2.70" style="stroke-width: 0.75;"/>
<circle cx="1222.93" cy="356.72" r="2.70" style="stroke-width: 0.75;"/>
<circle cx="1227.03" cy="1053.90" r="2.70" style="stroke-width: 0.75;"/>
<circle cx="1231.13" cy="1053.90" r="2.70" style="stroke-width: 0.75;"/>
<circle cx="1235.22" cy="1053.90" r="2.70" style="stroke-width: 0.75;"/>
<circle cx="1239.32" cy="1053.90" r="2.70" style="stroke-width: 0.75;"/>
<circle cx="1243.42" cy="1053.90" r="2.70" style="stroke-width: 0.75;"/>
<circle cx="1247.52" cy="372.93" r="2.70" style="stroke-width: 0.75;"/>
<circle cx="1251.62" cy="356.72" r="2.70" style="stroke-width: 0.75;"/>
<circle cx="1255.71" cy="1053.90" r="2.70" style="stroke-width: 0.75;"/>
<circle cx="1259.81" cy="372.93" r="2.70" style="stroke-width: 0.75;"/>
<circle cx="1263.91" cy="372.93" r="2.70" style="stroke-width: 0.75;"/>
<circle cx="1268.01" cy="372.93" r="2.70" style="stroke-width: 0.75;"/>
<circle cx="1272.11" cy="356.72" r="2.70" style="stroke-width: 0.75;"/>
<circle cx="1276.21" cy="340.51" r="2.70" style="stroke-width: 0.75;"/>
<circle cx="1280.30" cy="340.51" r="2.70" style="stroke-width: 0.75;"/>
<circle cx="1284.40" cy="372.93" r="2.70" style="stroke-width: 0.75;"/>
<circle cx="1288.50" cy="308.08" r="2.70" style="stroke-width: 0.75;"/>
<circle cx="1292.60" cy="275.65" r="2.70" style="stroke-width: 0.75;"/>
<circle cx="1296.70" cy="372.93" r="2.70" style="stroke-width: 0.75;"/>
<circle cx="1300.79" cy="259.44" r="2.70" style="stroke-width: 0.75;"/>
<circle cx="1304.89" cy="324.29" r="2.70" style="stroke-width: 0.75;"/>
<circle cx="1308.99" cy="372.93" r="2.70" style="stroke-width: 0.75;"/>
<circle cx="1313.09" cy="356.72" r="2.70" style="stroke-width: 0.75;"/>
<circle cx="1317.19" cy="356.72" r="2.70" style="stroke-width: 0.75;"/>
<circle cx="1321.29" cy="372.93" r="2.70" style="stroke-width: 0.75;"/>
<circle cx="1325.38" cy="356.72" r="2.70" style="stroke-width: 0.75;"/>
<circle cx="1329.48" cy="1053.90" r="2.70" style="stroke-width: 0.75;"/>
<circle cx="1333.58" cy="372.93" r="2.70" style="stroke-width: 0.75;"/>
<circle cx="1337.68" cy="1053.90" r="2.70" style="stroke-width: 0.75;"/>
<circle cx="1341.78" cy="356.72" r="2.70" style="stroke-width: 0.75;"/>
<circle cx="1345.88" cy="308.08" r="2.70" style="stroke-width: 0.75;"/>
<circle cx="1349.97" cy="1053.90" r="2.70" style="stroke-width: 0.75;"/>
<circle cx="1354.07" cy="340.51" r="2.70" style="stroke-width: 0.75;"/>
<circle cx="1358.17" cy="308.08" r="2.70" style="stroke-width: 0.75;"/>
<circle cx="1362.27" cy="356.72" r="2.70" style="stroke-width: 0.75;"/>
<circle cx="1366.37" cy="356.72" r="2.70" style="stroke-width: 0.75;"/>
<circle cx="1370.46" cy="340.51" r="2.70" style="stroke-width: 0.75;"/>
<circle cx="1374.56" cy="1053.90" r="2.70" style="stroke-width: 0.75;"/>
<circle cx="1378.66" cy="1053.90" r="2.70" style="stroke-width: 0.75;"/>
<circle cx="1382.76" cy="356.72" r="2.70" style="stroke-width: 0.75;"/>
<circle cx="1386.86" cy="356.72" r="2.70" style="stroke-width: 0.75;"/>
<circle cx="1390.96" cy="372.93" r="2.70" style="stroke-width: 0.75;"/>
<circle cx="1395.05" cy="372.93" r="2.70" style="stroke-width: 0.75;"/>
<circle cx="1399.15" cy="372.93" r="2.70" style="stroke-width: 0.75;"/>
<circle cx="1403.25" cy="1053.90" r="2.70" style="stroke-width: 0.75;"/>
<circle cx="1407.35" cy="356.72" r="2.70" style="stroke-width: 0.75;"/>
<circle cx="1411.45" cy="372.93" r="2.70" style="stroke-width: 0.75;"/>
<circle cx="1415.54" cy="356.72" r="2.70" style="stroke-width: 0.75;"/>
<circle cx="1419.64" cy="372.93" r="2.70" style="stroke-width: 0.75;"/>
<circle cx="1423.74" cy="1053.90" r="2.70" style="stroke-width: 0.75;"/>
<circle cx="1427.84" cy="308.08" r="2.70" style="stroke-width: 0.75;"/>
<circle cx="1431.94" cy="1053.90" r="2.70" style="stroke-width: 0.75;"/>
<circle cx="1436.04" cy="356.72" r="2.70" style="stroke-width: 0.75;"/>
<circle cx="1440.13" cy="1053.90" r="2.70" style="stroke-width: 0.75;"/>
<circle cx="1444.23" cy="372.93" r="2.70" style="stroke-width: 0.75;"/>
<circle cx="1448.33" cy="372.93" r="2.70" style="stroke-width: 0.75;"/>
<circle cx="1452.43" cy="1053.90" r="2.70" style="stroke-width: 0.75;"/>
<circle cx="1456.53" cy="1053.90" r="2.70" style="stroke-width: 0.75;"/>
<circle cx="1460.62" cy="1053.90" r="2.70" style="stroke-width: 0.75;"/>
<circle cx="1464.72" cy="1053.90" r="2.70" style="stroke-width: 0.75;"/>
<circle cx="1468.82" cy="340.51" r="2.70" style="stroke-width: 0.75;"/>
<circle cx="1472.92" cy="1053.90" r="2.70" style="stroke-width: 0.75;"/>
<circle cx="1477.02" cy="372.93" r="2.70" style="stroke-width: 0.75;"/>
<circle cx="1481.12" cy="356.72" r="2.70" style="stroke-width: 0.75;"/>
<circle cx="1485.21" cy="1053.90" r="2.70" style="stroke-width: 0.75;"/>
<circle cx="1489.31" cy="1053.90" r="2.70" style="stroke-width: 0.75;"/>
<circle cx="1493.41" cy="356.72" r="2.70" style="stroke-width: 0.75;"/>
<circle cx="1497.51" cy="356.72" r="2.70" style="stroke-width: 0.75;"/>
<circle cx="1501.61" cy="356.72" r="2.70" style="stroke-width: 0.75;"/>
<circle cx="1505.70" cy="340.51" r="2.70" style="stroke-width: 0.75;"/>
<circle cx="1509.80" cy="291.86" r="2.70" style="stroke-width: 0.75;"/>
<circle cx="1513.90" cy="1053.90" r="2.70" style="stroke-width: 0.75;"/>
<circle cx="1518.00" cy="308.08" r="2.70" style="stroke-width: 0.75;"/>
<circle cx="1522.10" cy="1053.90" r="2.70" style="stroke-width: 0.75;"/>
<circle cx="1526.20" cy="356.72" r="2.70" style="stroke-width: 0.75;"/>
<circle cx="1530.29" cy="1053.90" r="2.70" style="stroke-width: 0.75;"/>
<circle cx="1534.39" cy="372.93" r="2.70" style="stroke-width: 0.75;"/>
<circle cx="1538.49" cy="340.51" r="2.70" style="stroke-width: 0.75;"/>
<circle cx="1542.59" cy="372.93" r="2.70" style="stroke-width: 0.75;"/>
<circle cx="1546.69" cy="210.80" r="2.70" style="stroke-width: 0.75;"/>
<circle cx="1550.79" cy="372.93" r="2.70" style="stroke-width: 0.75;"/>
</g><g clip-path="url(#c2)">
<line x1="112.32" y1="1092.16" x2="1546.69" y2="1092.16" style="stroke-width: 0.75;"/>
<line x1="112.32" y1="1092.16" x2="112.32" y2="1099.36" style="stroke-width: 0.75;"/>
<line x1="317.23" y1="1092.16" x2="317.23" y2="1099.36" style="stroke-width: 0.75;"/>
<line x1="522.14" y1="1092.16" x2="522.14" y2="1099.36" style="stroke-width: 0.75;"/>
<line x1="727.05" y1="1092.16" x2="727.05" y2="1099.36" style="stroke-width: 0.75;"/>
<line x1="931.96" y1="1092.16" x2="931.96" y2="1099.36" style="stroke-width: 0.75;"/>
<line x1="1136.87" y1="1092.16" x2="1136.87" y2="1099.36" style="stroke-width: 0.75;"/>
<line x1="1341.78" y1="1092.16" x2="1341.78" y2="1099.36" style="stroke-width: 0.75;"/>
<line x1="1546.69" y1="1092.16" x2="1546.69" y2="1099.36" style="stroke-width: 0.75;"/>
<g><text x="112.32" y="1118.08" text-anchor="middle" style="font-family: Arial;font-size: 12.00px;" textLength="6.67px" lengthAdjust="spacingAndGlyphs">0</text></g>
<g><text x="317.23" y="1118.08" text-anchor="middle" style="font-family: Arial;font-size: 12.00px;" textLength="13.35px" lengthAdjust="spacingAndGlyphs">50</text></g>
<g><text x="522.14" y="1118.08" text-anchor="middle" style="font-family: Arial;font-size: 12.00px;" textLength="20.02px" lengthAdjust="spacingAndGlyphs">100</text></g>
<g><text x="727.05" y="1118.08" text-anchor="middle" style="font-family: Arial;font-size: 12.00px;" textLength="20.02px" lengthAdjust="spacingAndGlyphs">150</text></g>
<g><text x="931.96" y="1118.08" text-anchor="middle" style="font-family: Arial;font-size: 12.00px;" textLength="20.02px" lengthAdjust="spacingAndGlyphs">200</text></g>
<g><text x="1136.87" y="1118.08" text-anchor="middle" style="font-family: Arial;font-size: 12.00px;" textLength="20.02px" lengthAdjust="spacingAndGlyphs">250</text></g>
<g><text x="1341.78" y="1118.08" text-anchor="middle" style="font-family: Arial;font-size: 12.00px;" textLength="20.02px" lengthAdjust="spacingAndGlyphs">300</text></g>
<g><text x="1546.69" y="1118.08" text-anchor="middle" style="font-family: Arial;font-size: 12.00px;" textLength="20.02px" lengthAdjust="spacingAndGlyphs">350</text></g>
<line x1="59.04" y1="1053.90" x2="59.04" y2="81.09" style="stroke-width: 0.75;"/>
<line x1="59.04" y1="1053.90" x2="51.84" y2="1053.90" style="stroke-width: 0.75;"/>
<line x1="59.04" y1="891.76" x2="51.84" y2="891.76" style="stroke-width: 0.75;"/>
<line x1="59.04" y1="729.63" x2="51.84" y2="729.63" style="stroke-width: 0.75;"/>
<line x1="59.04" y1="567.49" x2="51.84" y2="567.49" style="stroke-width: 0.75;"/>
<line x1="59.04" y1="405.36" x2="51.84" y2="405.36" style="stroke-width: 0.75;"/>
<line x1="59.04" y1="243.22" x2="51.84" y2="243.22" style="stroke-width: 0.75;"/>
<line x1="59.04" y1="81.09" x2="51.84" y2="81.09" style="stroke-width: 0.75;"/>
<g><text transform="translate(41.76,1053.90) rotate(-90.00)" text-anchor="middle" style="font-family: Arial;font-size: 12.00px;" textLength="6.67px" lengthAdjust="spacingAndGlyphs">0</text></g>
<g><text transform="translate(41.76,891.76) rotate(-90.00)" text-anchor="middle" style="font-family: Arial;font-size: 12.00px;" textLength="13.35px" lengthAdjust="spacingAndGlyphs">10</text></g>
<g><text transform="translate(41.76,729.63) rotate(-90.00)" text-anchor="middle" style="font-family: Arial;font-size: 12.00px;" textLength="13.35px" lengthAdjust="spacingAndGlyphs">20</text></g>
<g><text transform="translate(41.76,567.49) rotate(-90.00)" text-anchor="middle" style="font-family: Arial;font-size: 12.00px;" textLength="13.35px" lengthAdjust="spacingAndGlyphs">30</text></g>
<g><text transform="translate(41.76,405.36) rotate(-90.00)" text-anchor="middle" style="font-family: Arial;font-size: 12.00px;" textLength="13.35px" lengthAdjust="spacingAndGlyphs">40</text></g>
<g><text transform="translate(41.76,243.22) rotate(-90.00)" text-anchor="middle" style="font-family: Arial;font-size: 12.00px;" textLength="13.35px" lengthAdjust="spacingAndGlyphs">50</text></g>
<g><text transform="translate(41.76,81.09) rotate(-90.00)" text-anchor="middle" style="font-family: Arial;font-size: 12.00px;" textLength="13.35px" lengthAdjust="spacingAndGlyphs">60</text></g>
<polygon points="59.04,1092.16 1608.16,1092.16 1608.16,59.04 59.04,59.04" style="stroke-width: 0.75;" />
<g><text x="833.60" y="1146.88" text-anchor="middle" style="font-family: Arial;font-size: 12.00px;" textLength="29.36px" lengthAdjust="spacingAndGlyphs">Index</text></g>
<g><text transform="translate(12.96,575.60) rotate(-90.00)" text-anchor="middle" style="font-family: Arial;font-size: 12.00px;" textLength="54.04px" lengthAdjust="spacingAndGlyphs">receive$C</text></g>
</g>
</svg>