<svg xmlns="http://www.w3.org/2000/svg" xmlns:xlink="http://www.w3.org/1999/xlink" class="httpgd" width="2048.00" height="1457.00" viewBox="0 0 1638.40 1165.60">
<defs>
  <style type='text/css'><![CDATA[
    .httpgd line, .httpgd polyline, .httpgd polygon, .httpgd path, .httpgd rect, .httpgd circle {
      fill: none;
      stroke: #000000;
      stroke-linecap: round;
      stroke-linejoin: round;
      stroke-miterlimit: 10.00;
    }
  ]]></style>
<clipPath id="c0"><rect x="0.00" y="0.00" width="1638.40" height="1165.60"/></clipPath>
<clipPath id="c1"><rect x="59.04" y="59.04" width="1549.12" height="1033.12"/></clipPath>
<clipPath id="c2"><rect x="0.00" y="0.00" width="1638.40" height="1165.60"/></clipPath>
<clipPath id="c3"><rect x="59.04" y="59.04" width="1549.12" height="1033.12"/></clipPath>
</defs>
<rect width="100%" height="100%" style="stroke: none;fill: #FFFFFF;"/>
<g clip-path="url(#c0)">
</g><g clip-path="url(#c1)">
<polyline points="116.41,1053.90 118.16,1053.90 119.90,1053.90 121.64,1053.90 123.39,1053.90 125.13,1053.90 126.87,1053.90 128.61,1053.90 130.36,1053.90 132.10,1053.90 133.84,1053.90 135.59,1053.90 137.33,1053.90 139.07,1053.90 140.81,1053.90 142.56,1053.90 144.30,1053.90 146.04,1053.90 147.79,1053.90 149.53,1053.90 151.27,1053.90 153.01,1053.90 154.76,1053.90 156.50,1053.90 158.24,1053.90 159.99,1053.90 161.73,1053.90 163.47,1053.90 165.21,1053.90 166.96,1053.90 168.70,1053.90 170.44,1053.90 172.19,1053.90 173.93,1053.90 175.67,1053.90 177.41,1053.90 179.16,1053.90 180.90,1053.90 182.64,1053.90 184.39,1053.90 186.13,1053.90 187.87,1053.90 189.61,1053.90 191.36,1053.90 193.10,1053.90 194.84,1053.90 196.59,1053.90 198.33,1053.90 200.07,1053.90 201.81,1053.90 203.56,1053.90 205.30,1053.90 207.04,1053.90 208.79,1053.90 210.53,1053.90 212.27,1053.90 214.01,1053.90 215.76,1053.90 217.50,1053.90 219.24,1053.90 220.99,1053.90 222.73,1053.90 224.47,1053.90 226.21,1053.90 227.96,1053.90 229.70,1053.90 231.44,1053.90 233.19,1053.90 234.93,1053.90 236.67,1053.90 238.41,1053.90 240.16,1053.90 241.90,1053.90 243.64,1053.90 245.39,1053.90 247.13,1053.90 248.87,1053.90 250.61,1053.90 252.36,1053.90 254.10,1053.90 255.84,1053.90 257.59,1053.90 259.33,1053.90 261.07,1053.90 262.81,1053.90 264.56,1053.90 266.30,1053.90 268.04,1053.90 269.79,1053.90 271.53,1053.90 273.27,1053.90 275.01,1053.90 276.76,1053.90 278.50,1053.90 280.24,1053.90 281.99,475.50 283.73,475.50 285.47,1053.90 287.21,475.50 288.96,475.50 290.70,475.50 292.44,475.50 294.19,475.50 295.93,475.50 297.67,475.50 299.41,475.50 301.16,475.50 302.90,475.50 304.64,475.50 306.39,475.50 308.13,1053.90 309.87,475.50 311.61,475.50 313.36,475.50 315.10,1053.90 316.84,475.50 318.59,1053.90 320.33,1053.90 322.07,1053.90 323.81,475.50 325.56,1053.90 327.30,1053.90 329.04,475.50 330.79,475.50 332.53,475.50 334.27,475.50 336.01,475.50 337.76,475.50 339.50,475.50 341.24,475.50 342.99,475.50 344.73,475.50 346.47,475.50 348.21,1053.90 349.96,475.50 351.70,1053.90 353.44,475.50 355.19,475.50 356.93,475.50 358.67,475.50 360.41,475.50 362.16,475.50 363.90,475.50 365.64,475.50 367.39,475.50 369.13,475.50 370.87,1053.90 372.61,1053.90 374.36,1053.90 376.10,475.50 377.84,475.50 379.59,475.50 381.33,1053.90 383.07,475.50 384.81,1053.90 386.56,1053.90 388.30,1053.90 390.04,475.50 391.79,475.50 393.53,475.50 395.27,475.50 397.01,475.50 398.76,475.50 400.50,475.50 402.24,1053.90 403.99,1053.90 405.73,1053.90 407.47,475.50 409.21,475.50 410.96,475.50 412.70,1053.90 414.44,1053.90 416.19,1053.90 417.93,475.50 419.67,475.50 421.41,475.50 423.16,475.50 424.90,475.50 426.64,475.50 428.39,475.50 430.13,475.50 431.87,475.50 433.61,475.50 435.36,475.50 437.10,475.50 438.84,475.50 440.59,475.50 442.33,1053.90 444.07,475.50 445.81,475.50 447.56,1053.90 449.30,1053.90 451.04,1053.90 452.79,475.50 454.53,1053.90 456.27,475.50 458.01,1053.90 459.76,1053.90 461.50,1053.90 463.24,475.50 464.99,1053.90 466.73,1053.90 468.47,475.50 470.21,1053.90 471.96,475.50 473.70,1053.90 475.44,1053.90 477.19,475.50 478.93,475.50 480.67,475.50 482.41,475.50 484.16,475.50 485.90,475.50 487.64,1053.90 489.39,1053.90 491.13,1053.90 492.87,1053.90 494.61,1053.90 496.36,1053.90 498.10,475.50 499.84,1053.90 501.59,475.50 503.33,475.50 505.07,1053.90 506.81,1053.90 508.56,475.50 510.30,475.50 512.04,1053.90 513.79,475.50 515.53,475.50 517.27,475.50 519.01,475.50 520.76,475.50 522.50,475.50 524.24,475.50 525.99,475.50 527.73,1053.90 529.47,1053.90 531.21,1053.90 532.96,475.50 534.70,475.50 536.44,1053.90 538.19,475.50 539.93,1053.90 541.67,1053.90 543.41,1053.90 545.16,1053.90 546.90,475.50 548.64,1053.90 550.39,475.50 552.13,475.50 553.87,475.50 555.61,475.50 557.36,475.50 559.10,475.50 560.84,475.50 562.59,475.50 564.33,475.50 566.07,475.50 567.81,475.50 569.56,475.50 571.30,1053.90 573.04,1053.90 574.79,475.50 576.53,475.50 578.27,1053.90 580.01,475.50 581.76,1053.90 583.50,475.50 585.24,1053.90 586.99,1053.90 588.73,475.50 590.47,1053.90 592.21,1053.90 593.96,475.50 595.70,475.50 597.44,1053.90 599.19,1053.90 600.93,475.50 602.67,475.50 604.41,1053.90 606.16,475.50 607.90,475.50 609.64,475.50 611.39,1053.90 613.13,475.50 614.87,1053.90 616.61,1053.90 618.36,1053.90 620.10,475.50 621.84,1053.90 623.59,1053.90 625.33,1053.90 627.07,1053.90 628.81,1053.90 630.56,1053.90 632.30,1053.90 634.04,475.50 635.79,475.50 637.53,475.50 639.27,1053.90 641.01,475.50 642.76,475.50 644.50,475.50 646.24,475.50 647.99,475.50 649.73,475.50 651.47,475.50 653.21,1053.90 654.96,1053.90 656.70,1053.90 658.44,475.50 660.19,475.50 661.93,1053.90 663.67,1053.90 665.41,1053.90 667.16,475.50 668.90,475.50 670.64,475.50 672.39,475.50 674.13,475.50 675.87,475.50 677.61,475.50 679.36,475.50 681.10,475.50 682.84,475.50 684.59,475.50 686.33,475.50 688.07,475.50 689.81,475.50 691.56,475.50 693.30,475.50 695.04,475.50 696.79,475.50 698.53,475.50 700.27,475.50 702.01,475.50 703.76,475.50 705.50,475.50 707.24,475.50 708.99,475.50 710.73,475.50 712.47,475.50 714.21,475.50 715.96,475.50 717.70,475.50 719.44,475.50 721.19,475.50 722.93,475.50 724.67,475.50 726.41,475.50 728.16,475.50 729.90,475.50 731.64,475.50 733.39,475.50 735.13,1053.90 736.87,1053.90 738.61,1053.90 740.36,1053.90 742.10,475.50 743.84,475.50 745.59,475.50 747.33,475.50 749.07,475.50 750.81,475.50 752.56,1053.90 754.30,475.50 756.04,475.50 757.79,1053.90 759.53,475.50 761.27,475.50 763.01,475.50 764.76,475.50 766.50,475.50 768.24,1053.90 769.99,475.50 771.73,475.50 773.47,1053.90 775.21,1053.90 776.96,1053.90 778.70,475.50 780.44,475.50 782.19,1053.90 783.93,1053.90 785.67,475.50 787.41,475.50 789.16,475.50 790.90,1053.90 792.64,475.50 794.39,475.50 796.13,1053.90 797.87,475.50 799.61,475.50 801.36,475.50 803.10,475.50 804.84,475.50 806.59,475.50 808.33,475.50 810.07,1053.90 811.81,475.50 813.56,1053.90 815.30,475.50 817.04,475.50 818.79,475.50 820.53,1053.90 822.27,1053.90 824.01,1053.90 825.76,475.50 827.50,475.50 829.24,475.50 830.99,475.50 832.73,475.50 834.47,475.50 836.21,475.50 837.96,475.50 839.70,475.50 841.44,475.50 843.19,475.50 844.93,475.50 846.67,475.50 848.41,475.50 850.16,475.50 851.90,475.50 853.64,1053.90 855.39,475.50 857.13,475.50 858.87,475.50 860.61,475.50 862.36,475.50 864.10,1053.90 865.84,1053.90 867.59,475.50 869.33,475.50 871.07,475.50 872.81,475.50 874.56,475.50 876.30,475.50 878.04,475.50 879.79,475.50 881.53,475.50 883.27,475.50 885.01,475.50 886.76,475.50 888.50,475.50 890.24,475.50 891.99,475.50 893.73,475.50 895.47,475.50 897.21,475.50 898.96,475.50 900.70,475.50 902.44,475.50 904.19,475.50 905.93,475.50 907.67,475.50 909.41,475.50 911.16,475.50 912.90,475.50 914.64,475.50 916.39,475.50 918.13,475.50 919.87,475.50 921.61,475.50 923.36,475.50 925.10,475.50 926.84,475.50 928.59,475.50 930.33,475.50 932.07,475.50 933.81,475.50 935.56,475.50 937.30,475.50 939.04,475.50 940.79,475.50 942.53,475.50 944.27,475.50 946.01,475.50 947.76,475.50 949.50,475.50 951.24,475.50 952.99,475.50 954.73,475.50 956.47,475.50 958.21,475.50 959.96,475.50 961.70,475.50 963.44,475.50 965.19,475.50 966.93,475.50 968.67,475.50 970.41,475.50 972.16,475.50 973.90,475.50 975.64,475.50 977.39,475.50 979.13,475.50 980.87,475.50 982.61,475.50 984.36,475.50 986.10,475.50 987.84,475.50 989.59,475.50 991.33,475.50 993.07,475.50 994.81,475.50 996.56,475.50 998.30,475.50 1000.04,475.50 1001.79,475.50 1003.53,475.50 1005.27,475.50 1007.01,475.50 1008.76,475.50 1010.50,475.50 1012.24,475.50 1013.99,475.50 1015.73,475.50 1017.47,475.50 1019.21,475.50 1020.96,475.50 1022.70,475.50 1024.44,475.50 1026.19,475.50 1027.93,475.50 1029.67,475.50 1031.41,475.50 1033.16,475.50 1034.90,475.50 1036.64,475.50 1038.39,475.50 1040.13,475.50 1041.87,475.50 1043.61,475.50 1045.36,1053.90 1047.10,1053.90 1048.84,475.50 1050.59,1053.90 1052.33,1053.90 1054.07,475.50 1055.81,1053.90 1057.56,1053.90 1059.30,1053.90 1061.04,475.50 1062.79,475.50 1064.53,475.50 1066.27,475.50 1068.01,475.50 1069.76,475.50 1071.50,475.50 1073.24,475.50 1074.99,475.50 1076.73,1053.90 1078.47,1053.90 1080.21,1053.90 1081.96,475.50 1083.70,475.50 1085.44,475.50 1087.19,475.50 1088.93,475.50 1090.67,475.50 1092.41,475.50 1094.16,1053.90 1095.90,475.50 1097.64,475.50 1099.39,475.50 1101.13,475.50 1102.87,475.50 1104.61,475.50 1106.36,475.50 1108.10,475.50 1109.84,1053.90 1111.59,1053.90 1113.33,475.50 1115.07,475.50 1116.81,475.50 1118.56,1053.90 1120.30,475.50 1122.04,1053.90 1123.79,1053.90 1125.53,475.50 1127.27,475.50 1129.01,475.50 1130.76,475.50 1132.50,1053.90 1134.24,475.50 1135.99,1053.90 1137.73,1053.90 1139.47,475.50 1141.21,1053.90 1142.96,475.50 1144.70,1053.90 1146.44,1053.90 1148.19,475.50 1149.93,475.50 1151.67,475.50 1153.41,475.50 1155.16,475.50 1156.90,475.50 1158.64,1053.90 1160.39,475.50 1162.13,475.50 1163.87,1053.90 1165.61,1053.90 1167.36,1053.90 1169.10,1053.90 1170.84,475.50 1172.59,1053.90 1174.33,1053.90 1176.07,1053.90 1177.81,475.50 1179.56,1053.90 1181.30,475.50 1183.04,475.50 1184.79,475.50 1186.53,1053.90 1188.27,1053.90 1190.01,475.50 1191.76,1053.90 1193.50,475.50 1195.24,1053.90 1196.99,475.50 1198.73,1053.90 1200.47,1053.90 1202.21,1053.90 1203.96,475.50 1205.70,1053.90 1207.44,475.50 1209.19,1053.90 1210.93,475.50 1212.67,1053.90 1214.41,1053.90 1216.16,1053.90 1217.90,1053.90 1219.64,1053.90 1221.39,475.50 1223.13,475.50 1224.87,475.50 1226.61,475.50 1228.36,475.50 1230.10,475.50 1231.84,475.50 1233.59,475.50 1235.33,475.50 1237.07,475.50 1238.81,475.50 1240.56,475.50 1242.30,475.50 1244.04,475.50 1245.79,475.50 1247.53,475.50 1249.27,475.50 1251.01,475.50 1252.76,475.50 1254.50,475.50 1256.24,475.50 1257.99,475.50 1259.73,475.50 1261.47,475.50 1263.21,475.50 1264.96,475.50 1266.70,475.50 1268.44,475.50 1270.19,475.50 1271.93,475.50 1273.67,475.50 1275.41,475.50 1277.16,475.50 1278.90,475.50 1280.64,475.50 1282.39,475.50 1284.13,475.50 1285.87,475.50 1287.61,475.50 1289.36,475.50 1291.10,475.50 1292.84,1053.90 1294.59,1053.90 1296.33,475.50 1298.07,475.50 1299.81,1053.90 1301.56,1053.90 1303.30,1053.90 1305.04,475.50 1306.79,475.50 1308.53,475.50 1310.27,475.50 1312.01,475.50 1313.76,475.50 1315.50,475.50 1317.24,475.50 1318.99,475.50 1320.73,475.50 1322.47,475.50 1324.21,475.50 1325.96,1053.90 1327.70,475.50 1329.44,475.50 1331.19,475.50 1332.93,1053.90 1334.67,475.50 1336.41,475.50 1338.16,475.50 1339.90,1053.90 1341.64,475.50 1343.39,1053.90 1345.13,475.50 1346.87,475.50 1348.61,475.50 1350.36,475.50 1352.10,475.50 1353.84,475.50 1355.59,1053.90 1357.33,1053.90 1359.07,475.50 1360.81,1053.90 1362.56,1053.90 1364.30,475.50 1366.04,1053.90 1367.79,1053.90 1369.53,475.50 1371.27,475.50 1373.01,475.50 1374.76,475.50 1376.50,475.50 1378.24,475.50 1379.99,1053.90 1381.73,475.50 1383.47,475.50 1385.21,475.50 1386.96,475.50 1388.70,475.50 1390.44,475.50 1392.19,1053.90 1393.93,1053.90 1395.67,1053.90 1397.41,1053.90 1399.16,475.50 1400.90,1053.90 1402.64,1053.90 1404.39,1053.90 1406.13,1053.90 1407.87,475.50 1409.61,475.50 1411.36,475.50 1413.10,475.50 1414.84,475.50 1416.59,475.50 1418.33,475.50 1420.07,475.50 1421.81,475.50 1423.56,475.50 1425.30,475.50 1427.04,475.50 1428.79,1053.90 1430.53,475.50 1432.27,475.50 1434.01,475.50 1435.76,475.50 1437.50,1053.90 1439.24,475.50 1440.99,475.50 1442.73,475.50 1444.47,475.50 1446.21,1053.90 1447.96,475.50 1449.70,1053.90 1451.44,475.50 1453.19,475.50 1454.93,475.50 1456.67,475.50 1458.41,1053.90 1460.16,475.50 1461.90,1053.90 1463.64,475.50 1465.39,475.50 1467.13,1053.90 1468.87,475.50 1470.61,1053.90 1472.36,475.50 1474.10,475.50 1475.84,1053.90 1477.59,1053.90 1479.33,475.50 1481.07,1053.90 1482.81,475.50 1484.56,475.50 1486.30,475.50 1488.04,1053.90 1489.79,1053.90 1491.53,475.50 1493.27,1053.90 1495.01,475.50 1496.76,1053.90 1498.50,1053.90 1500.24,1053.90 1501.99,475.50 1503.73,1053.90 1505.47,1053.90 1507.21,1053.90 1508.96,475.50 1510.70,475.50 1512.44,475.50 1514.19,475.50 1515.93,475.50 1517.67,1053.90 1519.41,475.50 1521.16,475.50 1522.90,1053.90 1524.64,1053.90 1526.39,1053.90 1528.13,475.50 1529.87,475.50 1531.61,475.50 1533.36,475.50 1535.10,475.50 1536.84,475.50 1538.59,475.50 1540.33,475.50 1542.07,1053.90 1543.81,475.50 1545.56,475.50 1547.30,475.50" style="stroke-width: 0.75;"/>
</g><g clip-path="url(#c2)">
<g><text x="833.60" y="34.67" text-anchor="middle" style="font-family: Arial;font-size: 14.40px;font-weight: bold;" textLength="184.74px" lengthAdjust="spacingAndGlyphs">Forecasts from ETS(A,N,N)</text></g>
<line x1="148.66" y1="1092.16" x2="1576.06" y2="1092.16" style="stroke-width: 0.75;"/>
<line x1="148.66" y1="1092.16" x2="148.66" y2="1099.36" style="stroke-width: 0.75;"/>
<line x1="386.56" y1="1092.16" x2="386.56" y2="1099.36" style="stroke-width: 0.75;"/>
<line x1="624.46" y1="1092.16" x2="624.46" y2="1099.36" style="stroke-width: 0.75;"/>
<line x1="862.36" y1="1092.16" x2="862.36" y2="1099.36" style="stroke-width: 0.75;"/>
<line x1="1100.26" y1="1092.16" x2="1100.26" y2="1099.36" style="stroke-width: 0.75;"/>
<line x1="1338.16" y1="1092.16" x2="1338.16" y2="1099.36" style="stroke-width: 0.75;"/>
<line x1="1576.06" y1="1092.16" x2="1576.06" y2="1099.36" style="stroke-width: 0.75;"/>
<g><text x="148.66" y="1118.08" text-anchor="middle" style="font-family: Arial;font-size: 12.00px;" textLength="36.71px" lengthAdjust="spacingAndGlyphs">2020.5</text></g>
<g><text x="386.56" y="1118.08" text-anchor="middle" style="font-family: Arial;font-size: 12.00px;" textLength="36.71px" lengthAdjust="spacingAndGlyphs">2021.0</text></g>
<g><text x="624.46" y="1118.08" text-anchor="middle" style="font-family: Arial;font-size: 12.00px;" textLength="36.71px" lengthAdjust="spacingAndGlyphs">2021.5</text></g>
<g><text x="862.36" y="1118.08" text-anchor="middle" style="font-family: Arial;font-size: 12.00px;" textLength="36.71px" lengthAdjust="spacingAndGlyphs">2022.0</text></g>
<g><text x="1100.26" y="1118.08" text-anchor="middle" style="font-family: Arial;font-size: 12.00px;" textLength="36.71px" lengthAdjust="spacingAndGlyphs">2022.5</text></g>
<g><text x="1338.16" y="1118.08" text-anchor="middle" style="font-family: Arial;font-size: 12.00px;" textLength="36.71px" lengthAdjust="spacingAndGlyphs">2023.0</text></g>
<g><text x="1576.06" y="1118.08" text-anchor="middle" style="font-family: Arial;font-size: 12.00px;" textLength="36.71px" lengthAdjust="spacingAndGlyphs">2023.5</text></g>
<line x1="59.04" y1="1053.90" x2="59.04" y2="186.31" style="stroke-width: 0.75;"/>
<line x1="59.04" y1="1053.90" x2="51.84" y2="1053.90" style="stroke-width: 0.75;"/>
<line x1="59.04" y1="764.70" x2="51.84" y2="764.70" style="stroke-width: 0.75;"/>
<line x1="59.04" y1="475.50" x2="51.84" y2="475.50" style="stroke-width: 0.75;"/>
<line x1="59.04" y1="186.31" x2="51.84" y2="186.31" style="stroke-width: 0.75;"/>
<g><text transform="translate(41.76,1053.90) rotate(-90.00)" text-anchor="middle" style="font-family: Arial;font-size: 12.00px;" textLength="16.68px" lengthAdjust="spacingAndGlyphs">0.0</text></g>
<g><text transform="translate(41.76,764.70) rotate(-90.00)" text-anchor="middle" style="font-family: Arial;font-size: 12.00px;" textLength="16.68px" lengthAdjust="spacingAndGlyphs">0.5</text></g>
<g><text transform="translate(41.76,475.50) rotate(-90.00)" text-anchor="middle" style="font-family: Arial;font-size: 12.00px;" textLength="16.68px" lengthAdjust="spacingAndGlyphs">1.0</text></g>
<g><text transform="translate(41.76,186.31) rotate(-90.00)" text-anchor="middle" style="font-family: Arial;font-size: 12.00px;" textLength="16.68px" lengthAdjust="spacingAndGlyphs">1.5</text></g>
<polygon points="59.04,1092.16 1608.16,1092.16 1608.16,59.04 59.04,59.04" style="stroke-width: 0.75;" />
</g><g clip-path="url(#c3)">
<polygon points="1548.17,1033.27 1549.91,1033.27 1549.91,103.91 1548.17,103.91" style="stroke-width: 0.75;stroke: none;fill: #DBDBDF;" />
<polygon points="1549.91,1039.87 1551.66,1039.87 1551.66,97.30 1549.91,97.30" style="stroke-width: 0.75;stroke: none;fill: #DBDBDF;" />
<polygon points="1548.17,872.43 1549.91,872.43 1549.91,264.75 1548.17,264.75" style="stroke-width: 0.75;stroke: none;fill: #B1B5CE;" />
<polygon points="1549.91,876.74 1551.66,876.74 1551.66,260.43 1549.91,260.43" style="stroke-width: 0.75;stroke: none;fill: #B1B5CE;" />
<circle cx="1549.04" cy="568.59" r="2.70" style="stroke-width: 0.75;stroke: #2297E6;fill: #2297E6;"/>
<circle cx="1550.79" cy="568.59" r="2.70" style="stroke-width: 0.75;stroke: #2297E6;fill: #2297E6;"/>
</g>
</svg>