<svg xmlns="http://www.w3.org/2000/svg" xmlns:xlink="http://www.w3.org/1999/xlink" class="httpgd" width="2048.00" height="1457.00" viewBox="0 0 1638.40 1165.60">
<defs>
  <style type='text/css'><![CDATA[
    .httpgd line, .httpgd polyline, .httpgd polygon, .httpgd path, .httpgd rect, .httpgd circle {
      fill: none;
      stroke: #000000;
      stroke-linecap: round;
      stroke-linejoin: round;
      stroke-miterlimit: 10.00;
    }
  ]]></style>
<clipPath id="c0"><rect x="0.00" y="0.00" width="1638.40" height="1165.60"/></clipPath>
<clipPath id="c1"><rect x="59.04" y="59.04" width="1549.12" height="1033.12"/></clipPath>
<clipPath id="c2"><rect x="0.00" y="0.00" width="1638.40" height="1165.60"/></clipPath>
</defs>
<rect width="100%" height="100%" style="stroke: none;fill: #FFFFFF;"/>
<g clip-path="url(#c0)">
</g><g clip-path="url(#c1)">
<circle cx="116.41" cy="631.87" r="2.70" style="stroke-width: 0.75;"/>
<circle cx="124.80" cy="695.17" r="2.70" style="stroke-width: 0.75;"/>
<circle cx="133.19" cy="688.14" r="2.70" style="stroke-width: 0.75;"/>
<circle cx="141.58" cy="716.28" r="2.70" style="stroke-width: 0.75;"/>
<circle cx="149.97" cy="723.31" r="2.70" style="stroke-width: 0.75;"/>
<circle cx="158.36" cy="716.28" r="2.70" style="stroke-width: 0.75;"/>
<circle cx="166.74" cy="617.80" r="2.70" style="stroke-width: 0.75;"/>
<circle cx="175.13" cy="519.33" r="2.70" style="stroke-width: 0.75;"/>
<circle cx="183.52" cy="448.99" r="2.70" style="stroke-width: 0.75;"/>
<circle cx="191.91" cy="287.22" r="2.70" style="stroke-width: 0.75;"/>
<circle cx="200.30" cy="237.98" r="2.70" style="stroke-width: 0.75;"/>
<circle cx="208.68" cy="209.84" r="2.70" style="stroke-width: 0.75;"/>
<circle cx="217.07" cy="259.08" r="2.70" style="stroke-width: 0.75;"/>
<circle cx="225.46" cy="350.52" r="2.70" style="stroke-width: 0.75;"/>
<circle cx="233.85" cy="329.42" r="2.70" style="stroke-width: 0.75;"/>
<circle cx="242.24" cy="259.08" r="2.70" style="stroke-width: 0.75;"/>
<circle cx="250.62" cy="160.61" r="2.70" style="stroke-width: 0.75;"/>
<circle cx="259.01" cy="146.54" r="2.70" style="stroke-width: 0.75;"/>
<circle cx="267.40" cy="343.49" r="2.70" style="stroke-width: 0.75;"/>
<circle cx="275.79" cy="336.45" r="2.70" style="stroke-width: 0.75;"/>
<circle cx="284.18" cy="498.23" r="2.70" style="stroke-width: 0.75;"/>
<circle cx="292.57" cy="385.69" r="2.70" style="stroke-width: 0.75;"/>
<circle cx="300.95" cy="554.50" r="2.70" style="stroke-width: 0.75;"/>
<circle cx="309.34" cy="631.87" r="2.70" style="stroke-width: 0.75;"/>
<circle cx="317.73" cy="652.97" r="2.70" style="stroke-width: 0.75;"/>
<circle cx="326.12" cy="709.24" r="2.70" style="stroke-width: 0.75;"/>
<circle cx="334.51" cy="716.28" r="2.70" style="stroke-width: 0.75;"/>
<circle cx="342.89" cy="744.41" r="2.70" style="stroke-width: 0.75;"/>
<circle cx="351.28" cy="737.38" r="2.70" style="stroke-width: 0.75;"/>
<circle cx="359.67" cy="758.48" r="2.70" style="stroke-width: 0.75;"/>
<circle cx="368.06" cy="624.84" r="2.70" style="stroke-width: 0.75;"/>
<circle cx="376.45" cy="406.79" r="2.70" style="stroke-width: 0.75;"/>
<circle cx="384.84" cy="343.49" r="2.70" style="stroke-width: 0.75;"/>
<circle cx="393.22" cy="378.65" r="2.70" style="stroke-width: 0.75;"/>
<circle cx="401.61" cy="259.08" r="2.70" style="stroke-width: 0.75;"/>
<circle cx="410.00" cy="132.47" r="2.70" style="stroke-width: 0.75;"/>
<circle cx="418.39" cy="259.08" r="2.70" style="stroke-width: 0.75;"/>
<circle cx="426.78" cy="399.76" r="2.70" style="stroke-width: 0.75;"/>
<circle cx="435.16" cy="434.92" r="2.70" style="stroke-width: 0.75;"/>
<circle cx="443.55" cy="378.65" r="2.70" style="stroke-width: 0.75;"/>
<circle cx="451.94" cy="716.28" r="2.70" style="stroke-width: 0.75;"/>
<circle cx="460.33" cy="737.38" r="2.70" style="stroke-width: 0.75;"/>
<circle cx="468.72" cy="709.24" r="2.70" style="stroke-width: 0.75;"/>
<circle cx="477.10" cy="1053.90" r="2.70" style="stroke-width: 0.75;"/>
<circle cx="485.49" cy="406.79" r="2.70" style="stroke-width: 0.75;"/>
<circle cx="493.88" cy="343.49" r="2.70" style="stroke-width: 0.75;"/>
<circle cx="502.27" cy="174.68" r="2.70" style="stroke-width: 0.75;"/>
<circle cx="510.66" cy="216.88" r="2.70" style="stroke-width: 0.75;"/>
<circle cx="519.05" cy="463.06" r="2.70" style="stroke-width: 0.75;"/>
<circle cx="527.43" cy="399.76" r="2.70" style="stroke-width: 0.75;"/>
<circle cx="535.82" cy="343.49" r="2.70" style="stroke-width: 0.75;"/>
<circle cx="544.21" cy="223.91" r="2.70" style="stroke-width: 0.75;"/>
<circle cx="552.60" cy="153.57" r="2.70" style="stroke-width: 0.75;"/>
<circle cx="560.99" cy="392.72" r="2.70" style="stroke-width: 0.75;"/>
<circle cx="569.37" cy="399.76" r="2.70" style="stroke-width: 0.75;"/>
<circle cx="577.76" cy="343.49" r="2.70" style="stroke-width: 0.75;"/>
<circle cx="586.15" cy="329.42" r="2.70" style="stroke-width: 0.75;"/>
<circle cx="594.54" cy="596.70" r="2.70" style="stroke-width: 0.75;"/>
<circle cx="602.93" cy="624.84" r="2.70" style="stroke-width: 0.75;"/>
<circle cx="611.31" cy="702.21" r="2.70" style="stroke-width: 0.75;"/>
<circle cx="619.70" cy="1053.90" r="2.70" style="stroke-width: 0.75;"/>
<circle cx="628.09" cy="505.26" r="2.70" style="stroke-width: 0.75;"/>
<circle cx="636.48" cy="709.24" r="2.70" style="stroke-width: 0.75;"/>
<circle cx="644.87" cy="652.97" r="2.70" style="stroke-width: 0.75;"/>
<circle cx="653.26" cy="652.97" r="2.70" style="stroke-width: 0.75;"/>
<circle cx="661.64" cy="638.90" r="2.70" style="stroke-width: 0.75;"/>
<circle cx="670.03" cy="716.28" r="2.70" style="stroke-width: 0.75;"/>
<circle cx="678.42" cy="737.38" r="2.70" style="stroke-width: 0.75;"/>
<circle cx="686.81" cy="758.48" r="2.70" style="stroke-width: 0.75;"/>
<circle cx="695.20" cy="378.65" r="2.70" style="stroke-width: 0.75;"/>
<circle cx="703.58" cy="463.06" r="2.70" style="stroke-width: 0.75;"/>
<circle cx="711.97" cy="301.28" r="2.70" style="stroke-width: 0.75;"/>
<circle cx="720.36" cy="378.65" r="2.70" style="stroke-width: 0.75;"/>
<circle cx="728.75" cy="266.11" r="2.70" style="stroke-width: 0.75;"/>
<circle cx="737.14" cy="280.18" r="2.70" style="stroke-width: 0.75;"/>
<circle cx="745.52" cy="392.72" r="2.70" style="stroke-width: 0.75;"/>
<circle cx="753.91" cy="434.92" r="2.70" style="stroke-width: 0.75;"/>
<circle cx="762.30" cy="329.42" r="2.70" style="stroke-width: 0.75;"/>
<circle cx="770.69" cy="378.65" r="2.70" style="stroke-width: 0.75;"/>
<circle cx="779.08" cy="547.46" r="2.70" style="stroke-width: 0.75;"/>
<circle cx="787.47" cy="624.84" r="2.70" style="stroke-width: 0.75;"/>
<circle cx="795.85" cy="652.97" r="2.70" style="stroke-width: 0.75;"/>
<circle cx="804.24" cy="652.97" r="2.70" style="stroke-width: 0.75;"/>
<circle cx="812.63" cy="716.28" r="2.70" style="stroke-width: 0.75;"/>
<circle cx="821.02" cy="716.28" r="2.70" style="stroke-width: 0.75;"/>
<circle cx="829.41" cy="716.28" r="2.70" style="stroke-width: 0.75;"/>
<circle cx="837.79" cy="744.41" r="2.70" style="stroke-width: 0.75;"/>
<circle cx="846.18" cy="624.84" r="2.70" style="stroke-width: 0.75;"/>
<circle cx="854.57" cy="427.89" r="2.70" style="stroke-width: 0.75;"/>
<circle cx="862.96" cy="343.49" r="2.70" style="stroke-width: 0.75;"/>
<circle cx="871.35" cy="378.65" r="2.70" style="stroke-width: 0.75;"/>
<circle cx="879.73" cy="266.11" r="2.70" style="stroke-width: 0.75;"/>
<circle cx="888.12" cy="209.84" r="2.70" style="stroke-width: 0.75;"/>
<circle cx="896.51" cy="301.28" r="2.70" style="stroke-width: 0.75;"/>
<circle cx="904.90" cy="357.55" r="2.70" style="stroke-width: 0.75;"/>
<circle cx="913.29" cy="357.55" r="2.70" style="stroke-width: 0.75;"/>
<circle cx="921.68" cy="301.28" r="2.70" style="stroke-width: 0.75;"/>
<circle cx="930.06" cy="252.05" r="2.70" style="stroke-width: 0.75;"/>
<circle cx="938.45" cy="118.41" r="2.70" style="stroke-width: 0.75;"/>
<circle cx="946.84" cy="329.42" r="2.70" style="stroke-width: 0.75;"/>
<circle cx="955.23" cy="392.72" r="2.70" style="stroke-width: 0.75;"/>
<circle cx="963.62" cy="308.32" r="2.70" style="stroke-width: 0.75;"/>
<circle cx="972.00" cy="329.42" r="2.70" style="stroke-width: 0.75;"/>
<circle cx="980.39" cy="624.84" r="2.70" style="stroke-width: 0.75;"/>
<circle cx="988.78" cy="617.80" r="2.70" style="stroke-width: 0.75;"/>
<circle cx="997.17" cy="660.01" r="2.70" style="stroke-width: 0.75;"/>
<circle cx="1005.56" cy="702.21" r="2.70" style="stroke-width: 0.75;"/>
<circle cx="1013.94" cy="716.28" r="2.70" style="stroke-width: 0.75;"/>
<circle cx="1022.33" cy="716.28" r="2.70" style="stroke-width: 0.75;"/>
<circle cx="1030.72" cy="737.38" r="2.70" style="stroke-width: 0.75;"/>
<circle cx="1039.11" cy="744.41" r="2.70" style="stroke-width: 0.75;"/>
<circle cx="1047.50" cy="603.74" r="2.70" style="stroke-width: 0.75;"/>
<circle cx="1055.89" cy="441.96" r="2.70" style="stroke-width: 0.75;"/>
<circle cx="1064.27" cy="322.38" r="2.70" style="stroke-width: 0.75;"/>
<circle cx="1072.66" cy="392.72" r="2.70" style="stroke-width: 0.75;"/>
<circle cx="1081.05" cy="266.11" r="2.70" style="stroke-width: 0.75;"/>
<circle cx="1089.44" cy="153.57" r="2.70" style="stroke-width: 0.75;"/>
<circle cx="1097.83" cy="223.91" r="2.70" style="stroke-width: 0.75;"/>
<circle cx="1106.21" cy="491.19" r="2.70" style="stroke-width: 0.75;"/>
<circle cx="1114.60" cy="695.17" r="2.70" style="stroke-width: 0.75;"/>
<circle cx="1122.99" cy="505.26" r="2.70" style="stroke-width: 0.75;"/>
<circle cx="1131.38" cy="413.82" r="2.70" style="stroke-width: 0.75;"/>
<circle cx="1139.77" cy="378.65" r="2.70" style="stroke-width: 0.75;"/>
<circle cx="1148.15" cy="420.86" r="2.70" style="stroke-width: 0.75;"/>
<circle cx="1156.54" cy="505.26" r="2.70" style="stroke-width: 0.75;"/>
<circle cx="1164.93" cy="561.53" r="2.70" style="stroke-width: 0.75;"/>
<circle cx="1173.32" cy="652.97" r="2.70" style="stroke-width: 0.75;"/>
<circle cx="1181.71" cy="667.04" r="2.70" style="stroke-width: 0.75;"/>
<circle cx="1190.10" cy="667.04" r="2.70" style="stroke-width: 0.75;"/>
<circle cx="1198.48" cy="695.17" r="2.70" style="stroke-width: 0.75;"/>
<circle cx="1206.87" cy="744.41" r="2.70" style="stroke-width: 0.75;"/>
<circle cx="1215.26" cy="744.41" r="2.70" style="stroke-width: 0.75;"/>
<circle cx="1223.65" cy="723.31" r="2.70" style="stroke-width: 0.75;"/>
<circle cx="1232.04" cy="610.77" r="2.70" style="stroke-width: 0.75;"/>
<circle cx="1240.42" cy="406.79" r="2.70" style="stroke-width: 0.75;"/>
<circle cx="1248.81" cy="343.49" r="2.70" style="stroke-width: 0.75;"/>
<circle cx="1257.20" cy="392.72" r="2.70" style="stroke-width: 0.75;"/>
<circle cx="1265.59" cy="322.38" r="2.70" style="stroke-width: 0.75;"/>
<circle cx="1273.98" cy="97.30" r="2.70" style="stroke-width: 0.75;"/>
<circle cx="1282.36" cy="209.84" r="2.70" style="stroke-width: 0.75;"/>
<circle cx="1290.75" cy="406.79" r="2.70" style="stroke-width: 0.75;"/>
<circle cx="1299.14" cy="301.28" r="2.70" style="stroke-width: 0.75;"/>
<circle cx="1307.53" cy="371.62" r="2.70" style="stroke-width: 0.75;"/>
<circle cx="1315.92" cy="540.43" r="2.70" style="stroke-width: 0.75;"/>
<circle cx="1324.31" cy="610.77" r="2.70" style="stroke-width: 0.75;"/>
<circle cx="1332.69" cy="674.07" r="2.70" style="stroke-width: 0.75;"/>
<circle cx="1341.08" cy="681.11" r="2.70" style="stroke-width: 0.75;"/>
<circle cx="1349.47" cy="730.34" r="2.70" style="stroke-width: 0.75;"/>
<circle cx="1357.86" cy="716.28" r="2.70" style="stroke-width: 0.75;"/>
<circle cx="1366.25" cy="688.14" r="2.70" style="stroke-width: 0.75;"/>
<circle cx="1374.63" cy="737.38" r="2.70" style="stroke-width: 0.75;"/>
<circle cx="1383.02" cy="744.41" r="2.70" style="stroke-width: 0.75;"/>
<circle cx="1391.41" cy="737.38" r="2.70" style="stroke-width: 0.75;"/>
<circle cx="1399.80" cy="758.48" r="2.70" style="stroke-width: 0.75;"/>
<circle cx="1408.19" cy="716.28" r="2.70" style="stroke-width: 0.75;"/>
<circle cx="1416.58" cy="751.44" r="2.70" style="stroke-width: 0.75;"/>
<circle cx="1424.96" cy="716.28" r="2.70" style="stroke-width: 0.75;"/>
<circle cx="1433.35" cy="730.34" r="2.70" style="stroke-width: 0.75;"/>
<circle cx="1441.74" cy="744.41" r="2.70" style="stroke-width: 0.75;"/>
<circle cx="1450.13" cy="652.97" r="2.70" style="stroke-width: 0.75;"/>
<circle cx="1458.52" cy="744.41" r="2.70" style="stroke-width: 0.75;"/>
<circle cx="1466.90" cy="631.87" r="2.70" style="stroke-width: 0.75;"/>
<circle cx="1475.29" cy="652.97" r="2.70" style="stroke-width: 0.75;"/>
<circle cx="1483.68" cy="716.28" r="2.70" style="stroke-width: 0.75;"/>
<circle cx="1492.07" cy="484.16" r="2.70" style="stroke-width: 0.75;"/>
<circle cx="1500.46" cy="259.08" r="2.70" style="stroke-width: 0.75;"/>
<circle cx="1508.84" cy="463.06" r="2.70" style="stroke-width: 0.75;"/>
<circle cx="1517.23" cy="357.55" r="2.70" style="stroke-width: 0.75;"/>
<circle cx="1525.62" cy="575.60" r="2.70" style="stroke-width: 0.75;"/>
<circle cx="1534.01" cy="652.97" r="2.70" style="stroke-width: 0.75;"/>
<circle cx="1542.40" cy="526.36" r="2.70" style="stroke-width: 0.75;"/>
<circle cx="1550.79" cy="357.55" r="2.70" style="stroke-width: 0.75;"/>
</g><g clip-path="url(#c2)">
<line x1="108.03" y1="1092.16" x2="1366.25" y2="1092.16" style="stroke-width: 0.75;"/>
<line x1="108.03" y1="1092.16" x2="108.03" y2="1099.36" style="stroke-width: 0.75;"/>
<line x1="527.43" y1="1092.16" x2="527.43" y2="1099.36" style="stroke-width: 0.75;"/>
<line x1="946.84" y1="1092.16" x2="946.84" y2="1099.36" style="stroke-width: 0.75;"/>
<line x1="1366.25" y1="1092.16" x2="1366.25" y2="1099.36" style="stroke-width: 0.75;"/>
<g><text x="108.03" y="1118.08" text-anchor="middle" style="font-family: Arial;font-size: 12.00px;" textLength="6.67px" lengthAdjust="spacingAndGlyphs">0</text></g>
<g><text x="527.43" y="1118.08" text-anchor="middle" style="font-family: Arial;font-size: 12.00px;" textLength="13.35px" lengthAdjust="spacingAndGlyphs">50</text></g>
<g><text x="946.84" y="1118.08" text-anchor="middle" style="font-family: Arial;font-size: 12.00px;" textLength="20.02px" lengthAdjust="spacingAndGlyphs">100</text></g>
<g><text x="1366.25" y="1118.08" text-anchor="middle" style="font-family: Arial;font-size: 12.00px;" textLength="20.02px" lengthAdjust="spacingAndGlyphs">150</text></g>
<line x1="59.04" y1="1053.90" x2="59.04" y2="69.17" style="stroke-width: 0.75;"/>
<line x1="59.04" y1="1053.90" x2="51.84" y2="1053.90" style="stroke-width: 0.75;"/>
<line x1="59.04" y1="913.22" x2="51.84" y2="913.22" style="stroke-width: 0.75;"/>
<line x1="59.04" y1="772.55" x2="51.84" y2="772.55" style="stroke-width: 0.75;"/>
<line x1="59.04" y1="631.87" x2="51.84" y2="631.87" style="stroke-width: 0.75;"/>
<line x1="59.04" y1="491.19" x2="51.84" y2="491.19" style="stroke-width: 0.75;"/>
<line x1="59.04" y1="350.52" x2="51.84" y2="350.52" style="stroke-width: 0.75;"/>
<line x1="59.04" y1="209.84" x2="51.84" y2="209.84" style="stroke-width: 0.75;"/>
<line x1="59.04" y1="69.17" x2="51.84" y2="69.17" style="stroke-width: 0.75;"/>
<g><text transform="translate(41.76,1053.90) rotate(-90.00)" text-anchor="middle" style="font-family: Arial;font-size: 12.00px;" textLength="6.67px" lengthAdjust="spacingAndGlyphs">0</text></g>
<g><text transform="translate(41.76,913.22) rotate(-90.00)" text-anchor="middle" style="font-family: Arial;font-size: 12.00px;" textLength="13.35px" lengthAdjust="spacingAndGlyphs">20</text></g>
<g><text transform="translate(41.76,772.55) rotate(-90.00)" text-anchor="middle" style="font-family: Arial;font-size: 12.00px;" textLength="13.35px" lengthAdjust="spacingAndGlyphs">40</text></g>
<g><text transform="translate(41.76,631.87) rotate(-90.00)" text-anchor="middle" style="font-family: Arial;font-size: 12.00px;" textLength="13.35px" lengthAdjust="spacingAndGlyphs">60</text></g>
<g><text transform="translate(41.76,491.19) rotate(-90.00)" text-anchor="middle" style="font-family: Arial;font-size: 12.00px;" textLength="13.35px" lengthAdjust="spacingAndGlyphs">80</text></g>
<g><text transform="translate(41.76,350.52) rotate(-90.00)" text-anchor="middle" style="font-family: Arial;font-size: 12.00px;" textLength="20.02px" lengthAdjust="spacingAndGlyphs">100</text></g>
<g><text transform="translate(41.76,209.84) rotate(-90.00)" text-anchor="middle" style="font-family: Arial;font-size: 12.00px;" textLength="20.02px" lengthAdjust="spacingAndGlyphs">120</text></g>
<g><text transform="translate(41.76,69.17) rotate(-90.00)" text-anchor="middle" style="font-family: Arial;font-size: 12.00px;" textLength="20.02px" lengthAdjust="spacingAndGlyphs">140</text></g>
<polygon points="59.04,1092.16 1608.16,1092.16 1608.16,59.04 59.04,59.04" style="stroke-width: 0.75;" />
<g><text x="833.60" y="1146.88" text-anchor="middle" style="font-family: Arial;font-size: 12.00px;" textLength="29.36px" lengthAdjust="spacingAndGlyphs">Index</text></g>
<g><text transform="translate(12.96,575.60) rotate(-90.00)" text-anchor="middle" style="font-family: Arial;font-size: 12.00px;" textLength="53.37px" lengthAdjust="spacingAndGlyphs">receive$P</text></g>
</g>
</svg>