<svg xmlns="http://www.w3.org/2000/svg" xmlns:xlink="http://www.w3.org/1999/xlink" class="httpgd" width="2048.00" height="1457.00" viewBox="0 0 1638.40 1165.60">
<defs>
  <style type='text/css'><![CDATA[
    .httpgd line, .httpgd polyline, .httpgd polygon, .httpgd path, .httpgd rect, .httpgd circle {
      fill: none;
      stroke: #000000;
      stroke-linecap: round;
      stroke-linejoin: round;
      stroke-miterlimit: 10.00;
    }
  ]]></style>
<clipPath id="c0"><rect x="0.00" y="0.00" width="1638.40" height="1165.60"/></clipPath>
<clipPath id="c1"><rect x="59.04" y="59.04" width="1549.12" height="1033.12"/></clipPath>
<clipPath id="c2"><rect x="0.00" y="0.00" width="1638.40" height="1165.60"/></clipPath>
<clipPath id="c3"><rect x="59.04" y="59.04" width="1549.12" height="1033.12"/></clipPath>
</defs>
<rect width="100%" height="100%" style="stroke: none;fill: #FFFFFF;"/>
<g clip-path="url(#c0)">
</g><g clip-path="url(#c1)">
<polyline points="116.41,505.00 118.16,505.00 119.90,505.00 121.64,505.00 123.39,505.00 125.13,505.00 126.87,505.00 128.61,505.00 130.36,505.00 132.10,505.00 133.84,505.00 135.59,505.00 137.33,505.00 139.07,505.00 140.81,505.00 142.56,1053.90 144.30,505.00 146.04,1053.90 147.79,1053.90 149.53,505.00 151.27,505.00 153.01,505.00 154.76,505.00 156.50,505.00 158.24,505.00 159.99,505.00 161.73,505.00 163.47,505.00 165.21,505.00 166.96,505.00 168.70,505.00 170.44,505.00 172.19,505.00 173.93,505.00 175.67,505.00 177.41,1053.90 179.16,505.00 180.90,505.00 182.64,505.00 184.39,505.00 186.13,505.00 187.87,505.00 189.61,505.00 191.36,505.00 193.10,505.00 194.84,1053.90 196.59,1053.90 198.33,1053.90 200.07,505.00 201.81,505.00 203.56,505.00 205.30,505.00 207.04,505.00 208.79,1053.90 210.53,505.00 212.27,505.00 214.01,505.00 215.76,505.00 217.50,1053.90 219.24,505.00 220.99,505.00 222.73,505.00 224.47,505.00 226.21,505.00 227.96,505.00 229.70,505.00 231.44,505.00 233.19,505.00 234.93,1053.90 236.67,1053.90 238.41,1053.90 240.16,1053.90 241.90,1053.90 243.64,1053.90 245.39,1053.90 247.13,1053.90 248.87,1053.90 250.61,505.00 252.36,505.00 254.10,505.00 255.84,505.00 257.59,505.00 259.33,505.00 261.07,1053.90 262.81,1053.90 264.56,505.00 266.30,1053.90 268.04,1053.90 269.79,505.00 271.53,505.00 273.27,505.00 275.01,505.00 276.76,505.00 278.50,505.00 280.24,505.00 281.99,505.00 283.73,505.00 285.47,505.00 287.21,505.00 288.96,505.00 290.70,505.00 292.44,505.00 294.19,505.00 295.93,505.00 297.67,505.00 299.41,505.00 301.16,505.00 302.90,505.00 304.64,505.00 306.39,1053.90 308.13,505.00 309.87,1053.90 311.61,505.00 313.36,505.00 315.10,505.00 316.84,505.00 318.59,505.00 320.33,505.00 322.07,505.00 323.81,505.00 325.56,505.00 327.30,505.00 329.04,505.00 330.79,505.00 332.53,505.00 334.27,505.00 336.01,1053.90 337.76,1053.90 339.50,1053.90 341.24,1053.90 342.99,1053.90 344.73,1053.90 346.47,1053.90 348.21,1053.90 349.96,1053.90 351.70,1053.90 353.44,1053.90 355.19,1053.90 356.93,1053.90 358.67,505.00 360.41,1053.90 362.16,1053.90 363.90,1053.90 365.64,505.00 367.39,505.00 369.13,505.00 370.87,505.00 372.61,505.00 374.36,505.00 376.10,505.00 377.84,1053.90 379.59,1053.90 381.33,1053.90 383.07,1053.90 384.81,1053.90 386.56,1053.90 388.30,1053.90 390.04,505.00 391.79,505.00 393.53,505.00 395.27,505.00 397.01,1053.90 398.76,1053.90 400.50,1053.90 402.24,1053.90 403.99,1053.90 405.73,505.00 407.47,505.00 409.21,505.00 410.96,505.00 412.70,505.00 414.44,1053.90 416.19,505.00 417.93,505.00 419.67,505.00 421.41,505.00 423.16,505.00 424.90,505.00 426.64,505.00 428.39,505.00 430.13,505.00 431.87,505.00 433.61,505.00 435.36,505.00 437.10,505.00 438.84,1053.90 440.59,1053.90 442.33,1053.90 444.07,505.00 445.81,505.00 447.56,505.00 449.30,505.00 451.04,505.00 452.79,505.00 454.53,505.00 456.27,505.00 458.01,505.00 459.76,505.00 461.50,505.00 463.24,505.00 464.99,505.00 466.73,505.00 468.47,505.00 470.21,1053.90 471.96,505.00 473.70,505.00 475.44,505.00 477.19,1053.90 478.93,505.00 480.67,1053.90 482.41,1053.90 484.16,1053.90 485.90,1053.90 487.64,1053.90 489.39,505.00 491.13,505.00 492.87,505.00 494.61,505.00 496.36,505.00 498.10,505.00 499.84,505.00 501.59,505.00 503.33,505.00 505.07,505.00 506.81,505.00 508.56,505.00 510.30,505.00 512.04,505.00 513.79,505.00 515.53,505.00 517.27,505.00 519.01,505.00 520.76,1053.90 522.50,505.00 524.24,1053.90 525.99,505.00 527.73,1053.90 529.47,505.00 531.21,505.00 532.96,505.00 534.70,505.00 536.44,505.00 538.19,505.00 539.93,505.00 541.67,505.00 543.41,505.00 545.16,505.00 546.90,505.00 548.64,505.00 550.39,505.00 552.13,505.00 553.87,505.00 555.61,505.00 557.36,1053.90 559.10,505.00 560.84,505.00 562.59,505.00 564.33,1053.90 566.07,1053.90 567.81,1053.90 569.56,1053.90 571.30,505.00 573.04,505.00 574.79,505.00 576.53,505.00 578.27,505.00 580.01,505.00 581.76,505.00 583.50,505.00 585.24,505.00 586.99,505.00 588.73,505.00 590.47,505.00 592.21,505.00 593.96,505.00 595.70,505.00 597.44,505.00 599.19,505.00 600.93,505.00 602.67,505.00 604.41,1053.90 606.16,505.00 607.90,505.00 609.64,1053.90 611.39,1053.90 613.13,505.00 614.87,505.00 616.61,505.00 618.36,505.00 620.10,505.00 621.84,505.00 623.59,505.00 625.33,505.00 627.07,505.00 628.81,505.00 630.56,505.00 632.30,505.00 634.04,505.00 635.79,505.00 637.53,505.00 639.27,505.00 641.01,505.00 642.76,1053.90 644.50,505.00 646.24,505.00 647.99,1053.90 649.73,505.00 651.47,1053.90 653.21,505.00 654.96,505.00 656.70,505.00 658.44,505.00 660.19,505.00 661.93,505.00 663.67,505.00 665.41,505.00 667.16,505.00 668.90,505.00 670.64,505.00 672.39,505.00 674.13,505.00 675.87,505.00 677.61,505.00 679.36,505.00 681.10,1053.90 682.84,1053.90 684.59,1053.90 686.33,1053.90 688.07,1053.90 689.81,1053.90 691.56,1053.90 693.30,1053.90 695.04,1053.90 696.79,1053.90 698.53,1053.90 700.27,1053.90 702.01,1053.90 703.76,1053.90 705.50,1053.90 707.24,1053.90 708.99,1053.90 710.73,1053.90 712.47,1053.90 714.21,1053.90 715.96,1053.90 717.70,1053.90 719.44,1053.90 721.19,1053.90 722.93,1053.90 724.67,1053.90 726.41,1053.90 728.16,1053.90 729.90,1053.90 731.64,1053.90 733.39,505.00 735.13,505.00 736.87,505.00 738.61,505.00 740.36,505.00 742.10,505.00 743.84,505.00 745.59,505.00 747.33,505.00 749.07,505.00 750.81,505.00 752.56,505.00 754.30,505.00 756.04,505.00 757.79,505.00 759.53,505.00 761.27,1053.90 763.01,1053.90 764.76,1053.90 766.50,505.00 768.24,1053.90 769.99,505.00 771.73,505.00 773.47,505.00 775.21,505.00 776.96,505.00 778.70,505.00 780.44,505.00 782.19,505.00 783.93,505.00 785.67,505.00 787.41,505.00 789.16,505.00 790.90,505.00 792.64,505.00 794.39,505.00 796.13,505.00 797.87,505.00 799.61,505.00 801.36,505.00 803.10,505.00 804.84,505.00 806.59,1053.90 808.33,1053.90 810.07,1053.90 811.81,505.00 813.56,505.00 815.30,505.00 817.04,505.00 818.79,505.00 820.53,505.00 822.27,505.00 824.01,505.00 825.76,505.00 827.50,505.00 829.24,505.00 830.99,505.00 832.73,505.00 834.47,505.00 836.21,505.00 837.96,505.00 839.70,505.00 841.44,505.00 843.19,505.00 844.93,505.00 846.67,1053.90 848.41,505.00 850.16,505.00 851.90,505.00 853.64,505.00 855.39,505.00 857.13,505.00 858.87,505.00 860.61,505.00 862.36,505.00 864.10,505.00 865.84,505.00 867.59,1053.90 869.33,1053.90 871.07,1053.90 872.81,1053.90 874.56,1053.90 876.30,1053.90 878.04,1053.90 879.79,1053.90 881.53,1053.90 883.27,1053.90 885.01,1053.90 886.76,1053.90 888.50,1053.90 890.24,1053.90 891.99,1053.90 893.73,1053.90 895.47,1053.90 897.21,1053.90 898.96,1053.90 900.70,1053.90 902.44,1053.90 904.19,1053.90 905.93,1053.90 907.67,1053.90 909.41,1053.90 911.16,1053.90 912.90,1053.90 914.64,1053.90 916.39,1053.90 918.13,1053.90 919.87,1053.90 921.61,1053.90 923.36,1053.90 925.10,1053.90 926.84,1053.90 928.59,1053.90 930.33,1053.90 932.07,1053.90 933.81,1053.90 935.56,1053.90 937.30,1053.90 939.04,1053.90 940.79,1053.90 942.53,1053.90 944.27,1053.90 946.01,1053.90 947.76,1053.90 949.50,1053.90 951.24,1053.90 952.99,1053.90 954.73,1053.90 956.47,1053.90 958.21,1053.90 959.96,1053.90 961.70,1053.90 963.44,1053.90 965.19,1053.90 966.93,1053.90 968.67,1053.90 970.41,505.00 972.16,1053.90 973.90,1053.90 975.64,1053.90 977.39,1053.90 979.13,1053.90 980.87,1053.90 982.61,1053.90 984.36,1053.90 986.10,1053.90 987.84,1053.90 989.59,1053.90 991.33,1053.90 993.07,1053.90 994.81,1053.90 996.56,1053.90 998.30,1053.90 1000.04,1053.90 1001.79,1053.90 1003.53,1053.90 1005.27,1053.90 1007.01,1053.90 1008.76,1053.90 1010.50,1053.90 1012.24,1053.90 1013.99,1053.90 1015.73,1053.90 1017.47,1053.90 1019.21,1053.90 1020.96,1053.90 1022.70,1053.90 1024.44,1053.90 1026.19,1053.90 1027.93,1053.90 1029.67,1053.90 1031.41,1053.90 1033.16,1053.90 1034.90,1053.90 1036.64,1053.90 1038.39,1053.90 1040.13,1053.90 1041.87,1053.90 1043.61,505.00 1045.36,505.00 1047.10,505.00 1048.84,505.00 1050.59,505.00 1052.33,505.00 1054.07,505.00 1055.81,505.00 1057.56,505.00 1059.30,505.00 1061.04,505.00 1062.79,505.00 1064.53,505.00 1066.27,1053.90 1068.01,505.00 1069.76,1053.90 1071.50,1053.90 1073.24,1053.90 1074.99,1053.90 1076.73,1053.90 1078.47,1053.90 1080.21,1053.90 1081.96,1053.90 1083.70,505.00 1085.44,1053.90 1087.19,505.00 1088.93,505.00 1090.67,505.00 1092.41,505.00 1094.16,505.00 1095.90,505.00 1097.64,505.00 1099.39,505.00 1101.13,505.00 1102.87,1053.90 1104.61,505.00 1106.36,505.00 1108.10,1053.90 1109.84,505.00 1111.59,505.00 1113.33,505.00 1115.07,1053.90 1116.81,505.00 1118.56,1053.90 1120.30,505.00 1122.04,505.00 1123.79,505.00 1125.53,505.00 1127.27,505.00 1129.01,505.00 1130.76,505.00 1132.50,505.00 1134.24,505.00 1135.99,505.00 1137.73,505.00 1139.47,505.00 1141.21,505.00 1142.96,505.00 1144.70,505.00 1146.44,505.00 1148.19,505.00 1149.93,1053.90 1151.67,1053.90 1153.41,505.00 1155.16,505.00 1156.90,505.00 1158.64,505.00 1160.39,505.00 1162.13,505.00 1163.87,505.00 1165.61,505.00 1167.36,505.00 1169.10,505.00 1170.84,505.00 1172.59,505.00 1174.33,505.00 1176.07,505.00 1177.81,505.00 1179.56,505.00 1181.30,505.00 1183.04,505.00 1184.79,505.00 1186.53,505.00 1188.27,505.00 1190.01,505.00 1191.76,505.00 1193.50,1053.90 1195.24,1053.90 1196.99,1053.90 1198.73,1053.90 1200.47,1053.90 1202.21,505.00 1203.96,505.00 1205.70,505.00 1207.44,505.00 1209.19,505.00 1210.93,505.00 1212.67,505.00 1214.41,505.00 1216.16,505.00 1217.90,505.00 1219.64,505.00 1221.39,505.00 1223.13,1053.90 1224.87,1053.90 1226.61,1053.90 1228.36,1053.90 1230.10,1053.90 1231.84,1053.90 1233.59,1053.90 1235.33,1053.90 1237.07,1053.90 1238.81,1053.90 1240.56,1053.90 1242.30,1053.90 1244.04,1053.90 1245.79,1053.90 1247.53,1053.90 1249.27,1053.90 1251.01,1053.90 1252.76,1053.90 1254.50,1053.90 1256.24,1053.90 1257.99,1053.90 1259.73,1053.90 1261.47,1053.90 1263.21,1053.90 1264.96,1053.90 1266.70,1053.90 1268.44,1053.90 1270.19,1053.90 1271.93,1053.90 1273.67,1053.90 1275.41,1053.90 1277.16,1053.90 1278.90,1053.90 1280.64,1053.90 1282.39,1053.90 1284.13,1053.90 1285.87,1053.90 1287.61,1053.90 1289.36,1053.90 1291.10,1053.90 1292.84,505.00 1294.59,505.00 1296.33,505.00 1298.07,505.00 1299.81,505.00 1301.56,505.00 1303.30,505.00 1305.04,505.00 1306.79,505.00 1308.53,505.00 1310.27,505.00 1312.01,505.00 1313.76,505.00 1315.50,505.00 1317.24,505.00 1318.99,1053.90 1320.73,505.00 1322.47,1053.90 1324.21,1053.90 1325.96,1053.90 1327.70,505.00 1329.44,505.00 1331.19,505.00 1332.93,505.00 1334.67,505.00 1336.41,505.00 1338.16,505.00 1339.90,505.00 1341.64,505.00 1343.39,505.00 1345.13,505.00 1346.87,505.00 1348.61,505.00 1350.36,505.00 1352.10,505.00 1353.84,505.00 1355.59,505.00 1357.33,505.00 1359.07,505.00 1360.81,505.00 1362.56,505.00 1364.30,505.00 1366.04,505.00 1367.79,505.00 1369.53,505.00 1371.27,505.00 1373.01,505.00 1374.76,505.00 1376.50,505.00 1378.24,505.00 1379.99,1053.90 1381.73,505.00 1383.47,1053.90 1385.21,1053.90 1386.96,505.00 1388.70,505.00 1390.44,505.00 1392.19,505.00 1393.93,505.00 1395.67,505.00 1397.41,505.00 1399.16,505.00 1400.90,505.00 1402.64,505.00 1404.39,505.00 1406.13,505.00 1407.87,505.00 1409.61,505.00 1411.36,505.00 1413.10,505.00 1414.84,505.00 1416.59,505.00 1418.33,505.00 1420.07,1053.90 1421.81,505.00 1423.56,1053.90 1425.30,1053.90 1427.04,1053.90 1428.79,505.00 1430.53,505.00 1432.27,505.00 1434.01,505.00 1435.76,505.00 1437.50,505.00 1439.24,505.00 1440.99,505.00 1442.73,505.00 1444.47,505.00 1446.21,505.00 1447.96,505.00 1449.70,505.00 1451.44,505.00 1453.19,505.00 1454.93,505.00 1456.67,505.00 1458.41,1053.90 1460.16,505.00 1461.90,505.00 1463.64,505.00 1465.39,505.00 1467.13,505.00 1468.87,505.00 1470.61,505.00 1472.36,505.00 1474.10,505.00 1475.84,505.00 1477.59,505.00 1479.33,505.00 1481.07,1053.90 1482.81,1053.90 1484.56,1053.90 1486.30,505.00 1488.04,505.00 1489.79,505.00 1491.53,505.00 1493.27,505.00 1495.01,505.00 1496.76,505.00 1498.50,505.00 1500.24,505.00 1501.99,505.00 1503.73,505.00 1505.47,505.00 1507.21,505.00 1508.96,505.00 1510.70,505.00 1512.44,505.00 1514.19,505.00 1515.93,505.00 1517.67,505.00 1519.41,1053.90 1521.16,505.00 1522.90,1053.90 1524.64,505.00 1526.39,1053.90 1528.13,1053.90 1529.87,505.00 1531.61,505.00 1533.36,505.00 1535.10,505.00 1536.84,505.00 1538.59,505.00 1540.33,505.00 1542.07,505.00 1543.81,505.00 1545.56,505.00 1547.30,505.00" style="stroke-width: 0.75;"/>
</g><g clip-path="url(#c2)">
<g><text x="833.60" y="34.67" text-anchor="middle" style="font-family: Arial;font-size: 14.40px;font-weight: bold;" textLength="184.74px" lengthAdjust="spacingAndGlyphs">Forecasts from ETS(A,N,N)</text></g>
<line x1="148.66" y1="1092.16" x2="1576.06" y2="1092.16" style="stroke-width: 0.75;"/>
<line x1="148.66" y1="1092.16" x2="148.66" y2="1099.36" style="stroke-width: 0.75;"/>
<line x1="386.56" y1="1092.16" x2="386.56" y2="1099.36" style="stroke-width: 0.75;"/>
<line x1="624.46" y1="1092.16" x2="624.46" y2="1099.36" style="stroke-width: 0.75;"/>
<line x1="862.36" y1="1092.16" x2="862.36" y2="1099.36" style="stroke-width: 0.75;"/>
<line x1="1100.26" y1="1092.16" x2="1100.26" y2="1099.36" style="stroke-width: 0.75;"/>
<line x1="1338.16" y1="1092.16" x2="1338.16" y2="1099.36" style="stroke-width: 0.75;"/>
<line x1="1576.06" y1="1092.16" x2="1576.06" y2="1099.36" style="stroke-width: 0.75;"/>
<g><text x="148.66" y="1118.08" text-anchor="middle" style="font-family: Arial;font-size: 12.00px;" textLength="36.71px" lengthAdjust="spacingAndGlyphs">2020.5</text></g>
<g><text x="386.56" y="1118.08" text-anchor="middle" style="font-family: Arial;font-size: 12.00px;" textLength="36.71px" lengthAdjust="spacingAndGlyphs">2021.0</text></g>
<g><text x="624.46" y="1118.08" text-anchor="middle" style="font-family: Arial;font-size: 12.00px;" textLength="36.71px" lengthAdjust="spacingAndGlyphs">2021.5</text></g>
<g><text x="862.36" y="1118.08" text-anchor="middle" style="font-family: Arial;font-size: 12.00px;" textLength="36.71px" lengthAdjust="spacingAndGlyphs">2022.0</text></g>
<g><text x="1100.26" y="1118.08" text-anchor="middle" style="font-family: Arial;font-size: 12.00px;" textLength="36.71px" lengthAdjust="spacingAndGlyphs">2022.5</text></g>
<g><text x="1338.16" y="1118.08" text-anchor="middle" style="font-family: Arial;font-size: 12.00px;" textLength="36.71px" lengthAdjust="spacingAndGlyphs">2023.0</text></g>
<g><text x="1576.06" y="1118.08" text-anchor="middle" style="font-family: Arial;font-size: 12.00px;" textLength="36.71px" lengthAdjust="spacingAndGlyphs">2023.5</text></g>
<line x1="59.04" y1="1053.90" x2="59.04" y2="230.55" style="stroke-width: 0.75;"/>
<line x1="59.04" y1="1053.90" x2="51.84" y2="1053.90" style="stroke-width: 0.75;"/>
<line x1="59.04" y1="779.45" x2="51.84" y2="779.45" style="stroke-width: 0.75;"/>
<line x1="59.04" y1="505.00" x2="51.84" y2="505.00" style="stroke-width: 0.75;"/>
<line x1="59.04" y1="230.55" x2="51.84" y2="230.55" style="stroke-width: 0.75;"/>
<g><text transform="translate(41.76,1053.90) rotate(-90.00)" text-anchor="middle" style="font-family: Arial;font-size: 12.00px;" textLength="16.68px" lengthAdjust="spacingAndGlyphs">0.0</text></g>
<g><text transform="translate(41.76,779.45) rotate(-90.00)" text-anchor="middle" style="font-family: Arial;font-size: 12.00px;" textLength="16.68px" lengthAdjust="spacingAndGlyphs">0.5</text></g>
<g><text transform="translate(41.76,505.00) rotate(-90.00)" text-anchor="middle" style="font-family: Arial;font-size: 12.00px;" textLength="16.68px" lengthAdjust="spacingAndGlyphs">1.0</text></g>
<g><text transform="translate(41.76,230.55) rotate(-90.00)" text-anchor="middle" style="font-family: Arial;font-size: 12.00px;" textLength="16.68px" lengthAdjust="spacingAndGlyphs">1.5</text></g>
<polygon points="59.04,1092.16 1608.16,1092.16 1608.16,59.04 59.04,59.04" style="stroke-width: 0.75;" />
</g><g clip-path="url(#c3)">
<polygon points="1548.17,868.43 1549.91,868.43 1549.91,141.93 1548.17,141.93" style="stroke-width: 0.75;stroke: none;fill: #DBDBDF;" />
<polygon points="1549.91,913.05 1551.66,913.05 1551.66,97.30 1549.91,97.30" style="stroke-width: 0.75;stroke: none;fill: #DBDBDF;" />
<polygon points="1548.17,742.69 1549.91,742.69 1549.91,267.66 1548.17,267.66" style="stroke-width: 0.75;stroke: none;fill: #B1B5CE;" />
<polygon points="1549.91,771.87 1551.66,771.87 1551.66,238.48 1549.91,238.48" style="stroke-width: 0.75;stroke: none;fill: #B1B5CE;" />
<circle cx="1549.04" cy="505.18" r="2.70" style="stroke-width: 0.75;stroke: #2297E6;fill: #2297E6;"/>
<circle cx="1550.79" cy="505.18" r="2.70" style="stroke-width: 0.75;stroke: #2297E6;fill: #2297E6;"/>
</g>
</svg>