<svg xmlns="http://www.w3.org/2000/svg" xmlns:xlink="http://www.w3.org/1999/xlink" class="httpgd" width="2048.00" height="1457.00" viewBox="0 0 1638.40 1165.60">
<defs>
  <style type='text/css'><![CDATA[
    .httpgd line, .httpgd polyline, .httpgd polygon, .httpgd path, .httpgd rect, .httpgd circle {
      fill: none;
      stroke: #000000;
      stroke-linecap: round;
      stroke-linejoin: round;
      stroke-miterlimit: 10.00;
    }
  ]]></style>
<clipPath id="c0"><rect x="0.00" y="0.00" width="1638.40" height="1165.60"/></clipPath>
<clipPath id="c1"><rect x="59.04" y="59.04" width="1549.12" height="1033.12"/></clipPath>
<clipPath id="c2"><rect x="0.00" y="0.00" width="1638.40" height="1165.60"/></clipPath>
<clipPath id="c3"><rect x="59.04" y="59.04" width="1549.12" height="1033.12"/></clipPath>
</defs>
<rect width="100%" height="100%" style="stroke: none;fill: #FFFFFF;"/>
<g clip-path="url(#c0)">
</g><g clip-path="url(#c1)">
<polyline points="116.41,537.71 118.16,537.71 119.90,537.71 121.64,537.71 123.39,537.71 125.13,537.71 126.87,537.71 128.61,537.71 130.36,537.71 132.10,537.71 133.84,537.71 135.59,537.71 137.33,537.71 139.07,537.71 140.81,537.71 142.56,537.71 144.30,1053.90 146.04,537.71 147.79,537.71 149.53,537.71 151.27,537.71 153.01,537.71 154.76,537.71 156.50,537.71 158.24,537.71 159.99,537.71 161.73,537.71 163.47,537.71 165.21,537.71 166.96,537.71 168.70,537.71 170.44,537.71 172.19,537.71 173.93,537.71 175.67,1053.90 177.41,537.71 179.16,537.71 180.90,537.71 182.64,537.71 184.39,537.71 186.13,537.71 187.87,537.71 189.61,537.71 191.36,537.71 193.10,537.71 194.84,1053.90 196.59,1053.90 198.33,537.71 200.07,537.71 201.81,537.71 203.56,537.71 205.30,537.71 207.04,537.71 208.79,1053.90 210.53,1053.90 212.27,537.71 214.01,537.71 215.76,537.71 217.50,537.71 219.24,1053.90 220.99,537.71 222.73,537.71 224.47,537.71 226.21,537.71 227.96,537.71 229.70,537.71 231.44,537.71 233.19,537.71 234.93,1053.90 236.67,537.71 238.41,537.71 240.16,537.71 241.90,537.71 243.64,537.71 245.39,537.71 247.13,1053.90 248.87,1053.90 250.61,1053.90 252.36,1053.90 254.10,1053.90 255.84,1053.90 257.59,1053.90 259.33,1053.90 261.07,1053.90 262.81,1053.90 264.56,1053.90 266.30,1053.90 268.04,1053.90 269.79,1053.90 271.53,1053.90 273.27,1053.90 275.01,1053.90 276.76,1053.90 278.50,1053.90 280.24,1053.90 281.99,1053.90 283.73,1053.90 285.47,1053.90 287.21,537.71 288.96,537.71 290.70,537.71 292.44,537.71 294.19,537.71 295.93,537.71 297.67,537.71 299.41,537.71 301.16,537.71 302.90,537.71 304.64,537.71 306.39,537.71 308.13,537.71 309.87,537.71 311.61,537.71 313.36,537.71 315.10,537.71 316.84,537.71 318.59,537.71 320.33,537.71 322.07,537.71 323.81,537.71 325.56,537.71 327.30,537.71 329.04,537.71 330.79,537.71 332.53,537.71 334.27,537.71 336.01,537.71 337.76,537.71 339.50,537.71 341.24,537.71 342.99,537.71 344.73,537.71 346.47,537.71 348.21,537.71 349.96,537.71 351.70,537.71 353.44,537.71 355.19,537.71 356.93,537.71 358.67,537.71 360.41,537.71 362.16,537.71 363.90,1053.90 365.64,537.71 367.39,1053.90 369.13,1053.90 370.87,1053.90 372.61,1053.90 374.36,537.71 376.10,1053.90 377.84,537.71 379.59,1053.90 381.33,1053.90 383.07,1053.90 384.81,1053.90 386.56,1053.90 388.30,537.71 390.04,537.71 391.79,537.71 393.53,1053.90 395.27,1053.90 397.01,1053.90 398.76,1053.90 400.50,1053.90 402.24,1053.90 403.99,1053.90 405.73,1053.90 407.47,1053.90 409.21,1053.90 410.96,1053.90 412.70,537.71 414.44,1053.90 416.19,1053.90 417.93,1053.90 419.67,537.71 421.41,537.71 423.16,537.71 424.90,537.71 426.64,537.71 428.39,537.71 430.13,1053.90 431.87,537.71 433.61,1053.90 435.36,1053.90 437.10,1053.90 438.84,1053.90 440.59,1053.90 442.33,1053.90 444.07,1053.90 445.81,1053.90 447.56,537.71 449.30,1053.90 451.04,537.71 452.79,537.71 454.53,537.71 456.27,537.71 458.01,537.71 459.76,1053.90 461.50,537.71 463.24,537.71 464.99,1053.90 466.73,537.71 468.47,537.71 470.21,1053.90 471.96,1053.90 473.70,1053.90 475.44,537.71 477.19,537.71 478.93,1053.90 480.67,1053.90 482.41,1053.90 484.16,1053.90 485.90,1053.90 487.64,1053.90 489.39,537.71 491.13,1053.90 492.87,537.71 494.61,1053.90 496.36,537.71 498.10,537.71 499.84,1053.90 501.59,1053.90 503.33,537.71 505.07,1053.90 506.81,1053.90 508.56,537.71 510.30,1053.90 512.04,537.71 513.79,1053.90 515.53,1053.90 517.27,1053.90 519.01,1053.90 520.76,1053.90 522.50,1053.90 524.24,1053.90 525.99,537.71 527.73,1053.90 529.47,537.71 531.21,537.71 532.96,537.71 534.70,537.71 536.44,537.71 538.19,537.71 539.93,537.71 541.67,537.71 543.41,537.71 545.16,537.71 546.90,537.71 548.64,537.71 550.39,537.71 552.13,537.71 553.87,537.71 555.61,537.71 557.36,537.71 559.10,537.71 560.84,537.71 562.59,537.71 564.33,537.71 566.07,1053.90 567.81,1053.90 569.56,537.71 571.30,1053.90 573.04,1053.90 574.79,537.71 576.53,537.71 578.27,537.71 580.01,537.71 581.76,537.71 583.50,537.71 585.24,537.71 586.99,537.71 588.73,537.71 590.47,537.71 592.21,537.71 593.96,537.71 595.70,537.71 597.44,537.71 599.19,537.71 600.93,537.71 602.67,537.71 604.41,537.71 606.16,537.71 607.90,1053.90 609.64,537.71 611.39,1053.90 613.13,537.71 614.87,537.71 616.61,537.71 618.36,537.71 620.10,537.71 621.84,537.71 623.59,537.71 625.33,537.71 627.07,537.71 628.81,537.71 630.56,537.71 632.30,537.71 634.04,537.71 635.79,537.71 637.53,537.71 639.27,537.71 641.01,537.71 642.76,537.71 644.50,537.71 646.24,537.71 647.99,537.71 649.73,537.71 651.47,537.71 653.21,537.71 654.96,537.71 656.70,537.71 658.44,537.71 660.19,537.71 661.93,537.71 663.67,1053.90 665.41,1053.90 667.16,537.71 668.90,1053.90 670.64,1053.90 672.39,1053.90 674.13,537.71 675.87,1053.90 677.61,1053.90 679.36,1053.90 681.10,1053.90 682.84,1053.90 684.59,1053.90 686.33,1053.90 688.07,537.71 689.81,537.71 691.56,537.71 693.30,537.71 695.04,537.71 696.79,537.71 698.53,1053.90 700.27,1053.90 702.01,537.71 703.76,537.71 705.50,537.71 707.24,537.71 708.99,537.71 710.73,537.71 712.47,1053.90 714.21,1053.90 715.96,537.71 717.70,1053.90 719.44,1053.90 721.19,1053.90 722.93,1053.90 724.67,1053.90 726.41,1053.90 728.16,1053.90 729.90,1053.90 731.64,537.71 733.39,537.71 735.13,537.71 736.87,537.71 738.61,1053.90 740.36,1053.90 742.10,537.71 743.84,1053.90 745.59,537.71 747.33,537.71 749.07,1053.90 750.81,537.71 752.56,1053.90 754.30,537.71 756.04,537.71 757.79,537.71 759.53,537.71 761.27,537.71 763.01,1053.90 764.76,1053.90 766.50,1053.90 768.24,1053.90 769.99,1053.90 771.73,537.71 773.47,537.71 775.21,537.71 776.96,1053.90 778.70,537.71 780.44,537.71 782.19,1053.90 783.93,1053.90 785.67,537.71 787.41,1053.90 789.16,537.71 790.90,537.71 792.64,537.71 794.39,537.71 796.13,537.71 797.87,1053.90 799.61,537.71 801.36,1053.90 803.10,1053.90 804.84,1053.90 806.59,1053.90 808.33,1053.90 810.07,1053.90 811.81,1053.90 813.56,1053.90 815.30,537.71 817.04,537.71 818.79,537.71 820.53,537.71 822.27,1053.90 824.01,537.71 825.76,537.71 827.50,537.71 829.24,1053.90 830.99,1053.90 832.73,537.71 834.47,1053.90 836.21,537.71 837.96,1053.90 839.70,1053.90 841.44,1053.90 843.19,1053.90 844.93,1053.90 846.67,1053.90 848.41,1053.90 850.16,1053.90 851.90,1053.90 853.64,1053.90 855.39,537.71 857.13,1053.90 858.87,537.71 860.61,1053.90 862.36,1053.90 864.10,1053.90 865.84,1053.90 867.59,1053.90 869.33,1053.90 871.07,1053.90 872.81,1053.90 874.56,1053.90 876.30,537.71 878.04,537.71 879.79,537.71 881.53,1053.90 883.27,1053.90 885.01,537.71 886.76,537.71 888.50,537.71 890.24,537.71 891.99,1053.90 893.73,537.71 895.47,537.71 897.21,537.71 898.96,1053.90 900.70,1053.90 902.44,1053.90 904.19,1053.90 905.93,1053.90 907.67,1053.90 909.41,1053.90 911.16,1053.90 912.90,1053.90 914.64,537.71 916.39,537.71 918.13,537.71 919.87,537.71 921.61,537.71 923.36,537.71 925.10,1053.90 926.84,537.71 928.59,537.71 930.33,537.71 932.07,537.71 933.81,1053.90 935.56,537.71 937.30,537.71 939.04,1053.90 940.79,1053.90 942.53,1053.90 944.27,1053.90 946.01,1053.90 947.76,1053.90 949.50,1053.90 951.24,1053.90 952.99,1053.90 954.73,1053.90 956.47,1053.90 958.21,537.71 959.96,537.71 961.70,537.71 963.44,1053.90 965.19,537.71 966.93,537.71 968.67,537.71 970.41,537.71 972.16,537.71 973.90,537.71 975.64,537.71 977.39,537.71 979.13,1053.90 980.87,1053.90 982.61,1053.90 984.36,1053.90 986.10,1053.90 987.84,1053.90 989.59,1053.90 991.33,1053.90 993.07,1053.90 994.81,1053.90 996.56,1053.90 998.30,1053.90 1000.04,537.71 1001.79,537.71 1003.53,537.71 1005.27,1053.90 1007.01,537.71 1008.76,1053.90 1010.50,537.71 1012.24,537.71 1013.99,537.71 1015.73,1053.90 1017.47,1053.90 1019.21,1053.90 1020.96,1053.90 1022.70,1053.90 1024.44,537.71 1026.19,1053.90 1027.93,1053.90 1029.67,1053.90 1031.41,1053.90 1033.16,1053.90 1034.90,1053.90 1036.64,1053.90 1038.39,1053.90 1040.13,1053.90 1041.87,1053.90 1043.61,537.71 1045.36,537.71 1047.10,1053.90 1048.84,537.71 1050.59,537.71 1052.33,1053.90 1054.07,537.71 1055.81,1053.90 1057.56,1053.90 1059.30,537.71 1061.04,1053.90 1062.79,1053.90 1064.53,1053.90 1066.27,1053.90 1068.01,1053.90 1069.76,1053.90 1071.50,1053.90 1073.24,1053.90 1074.99,1053.90 1076.73,1053.90 1078.47,1053.90 1080.21,1053.90 1081.96,1053.90 1083.70,1053.90 1085.44,1053.90 1087.19,1053.90 1088.93,1053.90 1090.67,1053.90 1092.41,537.71 1094.16,537.71 1095.90,1053.90 1097.64,1053.90 1099.39,1053.90 1101.13,1053.90 1102.87,1053.90 1104.61,1053.90 1106.36,1053.90 1108.10,1053.90 1109.84,1053.90 1111.59,1053.90 1113.33,1053.90 1115.07,1053.90 1116.81,1053.90 1118.56,1053.90 1120.30,1053.90 1122.04,1053.90 1123.79,1053.90 1125.53,537.71 1127.27,1053.90 1129.01,537.71 1130.76,537.71 1132.50,537.71 1134.24,1053.90 1135.99,1053.90 1137.73,537.71 1139.47,1053.90 1141.21,537.71 1142.96,1053.90 1144.70,537.71 1146.44,1053.90 1148.19,1053.90 1149.93,1053.90 1151.67,1053.90 1153.41,1053.90 1155.16,1053.90 1156.90,1053.90 1158.64,1053.90 1160.39,1053.90 1162.13,1053.90 1163.87,1053.90 1165.61,1053.90 1167.36,1053.90 1169.10,1053.90 1170.84,537.71 1172.59,1053.90 1174.33,537.71 1176.07,1053.90 1177.81,1053.90 1179.56,537.71 1181.30,537.71 1183.04,1053.90 1184.79,1053.90 1186.53,1053.90 1188.27,537.71 1190.01,1053.90 1191.76,1053.90 1193.50,1053.90 1195.24,1053.90 1196.99,1053.90 1198.73,1053.90 1200.47,1053.90 1202.21,1053.90 1203.96,537.71 1205.70,1053.90 1207.44,537.71 1209.19,537.71 1210.93,537.71 1212.67,537.71 1214.41,537.71 1216.16,1053.90 1217.90,1053.90 1219.64,1053.90 1221.39,1053.90 1223.13,1053.90 1224.87,537.71 1226.61,537.71 1228.36,537.71 1230.10,1053.90 1231.84,1053.90 1233.59,1053.90 1235.33,1053.90 1237.07,1053.90 1238.81,1053.90 1240.56,1053.90 1242.30,1053.90 1244.04,1053.90 1245.79,537.71 1247.53,1053.90 1249.27,537.71 1251.01,1053.90 1252.76,537.71 1254.50,537.71 1256.24,537.71 1257.99,537.71 1259.73,537.71 1261.47,537.71 1263.21,537.71 1264.96,537.71 1266.70,537.71 1268.44,1053.90 1270.19,1053.90 1271.93,537.71 1273.67,1053.90 1275.41,1053.90 1277.16,1053.90 1278.90,1053.90 1280.64,1053.90 1282.39,1053.90 1284.13,537.71 1285.87,1053.90 1287.61,537.71 1289.36,1053.90 1291.10,537.71 1292.84,1053.90 1294.59,537.71 1296.33,1053.90 1298.07,1053.90 1299.81,1053.90 1301.56,1053.90 1303.30,537.71 1305.04,1053.90 1306.79,1053.90 1308.53,1053.90 1310.27,537.71 1312.01,1053.90 1313.76,1053.90 1315.50,1053.90 1317.24,1053.90 1318.99,537.71 1320.73,1053.90 1322.47,1053.90 1324.21,1053.90 1325.96,1053.90 1327.70,1053.90 1329.44,537.71 1331.19,1053.90 1332.93,537.71 1334.67,537.71 1336.41,537.71 1338.16,537.71 1339.90,537.71 1341.64,537.71 1343.39,537.71 1345.13,1053.90 1346.87,1053.90 1348.61,1053.90 1350.36,1053.90 1352.10,537.71 1353.84,537.71 1355.59,537.71 1357.33,537.71 1359.07,537.71 1360.81,1053.90 1362.56,537.71 1364.30,1053.90 1366.04,1053.90 1367.79,537.71 1369.53,1053.90 1371.27,1053.90 1373.01,1053.90 1374.76,1053.90 1376.50,537.71 1378.24,1053.90 1379.99,1053.90 1381.73,1053.90 1383.47,1053.90 1385.21,1053.90 1386.96,1053.90 1388.70,1053.90 1390.44,1053.90 1392.19,537.71 1393.93,1053.90 1395.67,1053.90 1397.41,1053.90 1399.16,537.71 1400.90,537.71 1402.64,1053.90 1404.39,537.71 1406.13,1053.90 1407.87,537.71 1409.61,1053.90 1411.36,1053.90 1413.10,537.71 1414.84,537.71 1416.59,537.71 1418.33,537.71 1420.07,1053.90 1421.81,1053.90 1423.56,1053.90 1425.30,1053.90 1427.04,1053.90 1428.79,1053.90 1430.53,1053.90 1432.27,537.71 1434.01,537.71 1435.76,537.71 1437.50,1053.90 1439.24,537.71 1440.99,537.71 1442.73,1053.90 1444.47,1053.90 1446.21,1053.90 1447.96,1053.90 1449.70,1053.90 1451.44,537.71 1453.19,537.71 1454.93,1053.90 1456.67,1053.90 1458.41,1053.90 1460.16,537.71 1461.90,1053.90 1463.64,1053.90 1465.39,537.71 1467.13,1053.90 1468.87,537.71 1470.61,537.71 1472.36,537.71 1474.10,537.71 1475.84,537.71 1477.59,537.71 1479.33,1053.90 1481.07,537.71 1482.81,537.71 1484.56,537.71 1486.30,537.71 1488.04,1053.90 1489.79,537.71 1491.53,1053.90 1493.27,1053.90 1495.01,537.71 1496.76,1053.90 1498.50,537.71 1500.24,537.71 1501.99,537.71 1503.73,537.71 1505.47,537.71 1507.21,537.71 1508.96,537.71 1510.70,537.71 1512.44,537.71 1514.19,537.71 1515.93,537.71 1517.67,537.71 1519.41,537.71 1521.16,537.71 1522.90,537.71 1524.64,537.71 1526.39,537.71 1528.13,537.71 1529.87,1053.90 1531.61,1053.90 1533.36,1053.90 1535.10,1053.90 1536.84,537.71 1538.59,537.71 1540.33,537.71 1542.07,537.71 1543.81,537.71 1545.56,537.71 1547.30,537.71" style="stroke-width: 0.75;"/>
</g><g clip-path="url(#c2)">
<g><text x="833.60" y="34.67" text-anchor="middle" style="font-family: Arial;font-size: 14.40px;font-weight: bold;" textLength="184.74px" lengthAdjust="spacingAndGlyphs">Forecasts from ETS(A,N,N)</text></g>
<line x1="148.66" y1="1092.16" x2="1576.06" y2="1092.16" style="stroke-width: 0.75;"/>
<line x1="148.66" y1="1092.16" x2="148.66" y2="1099.36" style="stroke-width: 0.75;"/>
<line x1="386.56" y1="1092.16" x2="386.56" y2="1099.36" style="stroke-width: 0.75;"/>
<line x1="624.46" y1="1092.16" x2="624.46" y2="1099.36" style="stroke-width: 0.75;"/>
<line x1="862.36" y1="1092.16" x2="862.36" y2="1099.36" style="stroke-width: 0.75;"/>
<line x1="1100.26" y1="1092.16" x2="1100.26" y2="1099.36" style="stroke-width: 0.75;"/>
<line x1="1338.16" y1="1092.16" x2="1338.16" y2="1099.36" style="stroke-width: 0.75;"/>
<line x1="1576.06" y1="1092.16" x2="1576.06" y2="1099.36" style="stroke-width: 0.75;"/>
<g><text x="148.66" y="1118.08" text-anchor="middle" style="font-family: Arial;font-size: 12.00px;" textLength="36.71px" lengthAdjust="spacingAndGlyphs">2020.5</text></g>
<g><text x="386.56" y="1118.08" text-anchor="middle" style="font-family: Arial;font-size: 12.00px;" textLength="36.71px" lengthAdjust="spacingAndGlyphs">2021.0</text></g>
<g><text x="624.46" y="1118.08" text-anchor="middle" style="font-family: Arial;font-size: 12.00px;" textLength="36.71px" lengthAdjust="spacingAndGlyphs">2021.5</text></g>
<g><text x="862.36" y="1118.08" text-anchor="middle" style="font-family: Arial;font-size: 12.00px;" textLength="36.71px" lengthAdjust="spacingAndGlyphs">2022.0</text></g>
<g><text x="1100.26" y="1118.08" text-anchor="middle" style="font-family: Arial;font-size: 12.00px;" textLength="36.71px" lengthAdjust="spacingAndGlyphs">2022.5</text></g>
<g><text x="1338.16" y="1118.08" text-anchor="middle" style="font-family: Arial;font-size: 12.00px;" textLength="36.71px" lengthAdjust="spacingAndGlyphs">2023.0</text></g>
<g><text x="1576.06" y="1118.08" text-anchor="middle" style="font-family: Arial;font-size: 12.00px;" textLength="36.71px" lengthAdjust="spacingAndGlyphs">2023.5</text></g>
<line x1="59.04" y1="1053.90" x2="59.04" y2="279.61" style="stroke-width: 0.75;"/>
<line x1="59.04" y1="1053.90" x2="51.84" y2="1053.90" style="stroke-width: 0.75;"/>
<line x1="59.04" y1="795.80" x2="51.84" y2="795.80" style="stroke-width: 0.75;"/>
<line x1="59.04" y1="537.71" x2="51.84" y2="537.71" style="stroke-width: 0.75;"/>
<line x1="59.04" y1="279.61" x2="51.84" y2="279.61" style="stroke-width: 0.75;"/>
<g><text transform="translate(41.76,1053.90) rotate(-90.00)" text-anchor="middle" style="font-family: Arial;font-size: 12.00px;" textLength="16.68px" lengthAdjust="spacingAndGlyphs">0.0</text></g>
<g><text transform="translate(41.76,795.80) rotate(-90.00)" text-anchor="middle" style="font-family: Arial;font-size: 12.00px;" textLength="16.68px" lengthAdjust="spacingAndGlyphs">0.5</text></g>
<g><text transform="translate(41.76,537.71) rotate(-90.00)" text-anchor="middle" style="font-family: Arial;font-size: 12.00px;" textLength="16.68px" lengthAdjust="spacingAndGlyphs">1.0</text></g>
<g><text transform="translate(41.76,279.61) rotate(-90.00)" text-anchor="middle" style="font-family: Arial;font-size: 12.00px;" textLength="16.68px" lengthAdjust="spacingAndGlyphs">1.5</text></g>
<polygon points="59.04,1092.16 1608.16,1092.16 1608.16,59.04 59.04,59.04" style="stroke-width: 0.75;" />
</g><g clip-path="url(#c3)">
<polygon points="1548.17,1011.13 1549.91,1011.13 1549.91,119.42 1548.17,119.42" style="stroke-width: 0.75;stroke: none;fill: #DBDBDF;" />
<polygon points="1549.91,1033.24 1551.66,1033.24 1551.66,97.30 1549.91,97.30" style="stroke-width: 0.75;stroke: none;fill: #DBDBDF;" />
<polygon points="1548.17,856.80 1549.91,856.80 1549.91,273.74 1548.17,273.74" style="stroke-width: 0.75;stroke: none;fill: #B1B5CE;" />
<polygon points="1549.91,871.26 1551.66,871.26 1551.66,259.28 1549.91,259.28" style="stroke-width: 0.75;stroke: none;fill: #B1B5CE;" />
<circle cx="1549.04" cy="565.27" r="2.70" style="stroke-width: 0.75;stroke: #2297E6;fill: #2297E6;"/>
<circle cx="1550.79" cy="565.27" r="2.70" style="stroke-width: 0.75;stroke: #2297E6;fill: #2297E6;"/>
</g>
</svg>