<svg xmlns="http://www.w3.org/2000/svg" xmlns:xlink="http://www.w3.org/1999/xlink" class="httpgd" width="2048.00" height="1457.00" viewBox="0 0 1638.40 1165.60">
<defs>
  <style type='text/css'><![CDATA[
    .httpgd line, .httpgd polyline, .httpgd polygon, .httpgd path, .httpgd rect, .httpgd circle {
      fill: none;
      stroke: #000000;
      stroke-linecap: round;
      stroke-linejoin: round;
      stroke-miterlimit: 10.00;
    }
  ]]></style>
<clipPath id="c0"><rect x="0.00" y="0.00" width="1638.40" height="1165.60"/></clipPath>
<clipPath id="c1"><rect x="59.04" y="59.04" width="1549.12" height="1033.12"/></clipPath>
<clipPath id="c2"><rect x="0.00" y="0.00" width="1638.40" height="1165.60"/></clipPath>
<clipPath id="c3"><rect x="59.04" y="59.04" width="1549.12" height="1033.12"/></clipPath>
</defs>
<rect width="100%" height="100%" style="stroke: none;fill: #FFFFFF;"/>
<g clip-path="url(#c0)">
</g><g clip-path="url(#c1)">
<polyline points="116.41,522.18 118.16,522.18 119.90,522.18 121.64,522.18 123.39,522.18 125.13,522.18 126.87,522.18 128.61,522.18 130.36,522.18 132.10,522.18 133.84,522.18 135.59,522.18 137.33,522.18 139.07,522.18 140.81,522.18 142.56,522.18 144.30,522.18 146.04,1053.90 147.79,522.18 149.53,522.18 151.27,522.18 153.01,522.18 154.76,522.18 156.50,522.18 158.24,522.18 159.99,522.18 161.73,522.18 163.47,522.18 165.21,522.18 166.96,1053.90 168.70,522.18 170.44,522.18 172.19,522.18 173.93,522.18 175.67,522.18 177.41,1053.90 179.16,1053.90 180.90,522.18 182.64,522.18 184.39,522.18 186.13,522.18 187.87,522.18 189.61,522.18 191.36,522.18 193.10,522.18 194.84,1053.90 196.59,1053.90 198.33,1053.90 200.07,1053.90 201.81,522.18 203.56,522.18 205.30,1053.90 207.04,522.18 208.79,1053.90 210.53,1053.90 212.27,522.18 214.01,522.18 215.76,522.18 217.50,522.18 219.24,522.18 220.99,522.18 222.73,522.18 224.47,522.18 226.21,522.18 227.96,522.18 229.70,522.18 231.44,522.18 233.19,522.18 234.93,1053.90 236.67,1053.90 238.41,1053.90 240.16,1053.90 241.90,1053.90 243.64,1053.90 245.39,1053.90 247.13,1053.90 248.87,1053.90 250.61,1053.90 252.36,1053.90 254.10,1053.90 255.84,1053.90 257.59,1053.90 259.33,1053.90 261.07,1053.90 262.81,1053.90 264.56,1053.90 266.30,1053.90 268.04,1053.90 269.79,1053.90 271.53,1053.90 273.27,1053.90 275.01,1053.90 276.76,1053.90 278.50,1053.90 280.24,1053.90 281.99,1053.90 283.73,1053.90 285.47,1053.90 287.21,522.18 288.96,522.18 290.70,522.18 292.44,522.18 294.19,522.18 295.93,522.18 297.67,522.18 299.41,522.18 301.16,522.18 302.90,522.18 304.64,522.18 306.39,522.18 308.13,1053.90 309.87,522.18 311.61,522.18 313.36,522.18 315.10,522.18 316.84,522.18 318.59,522.18 320.33,522.18 322.07,522.18 323.81,522.18 325.56,522.18 327.30,522.18 329.04,522.18 330.79,522.18 332.53,522.18 334.27,522.18 336.01,1053.90 337.76,1053.90 339.50,1053.90 341.24,1053.90 342.99,1053.90 344.73,1053.90 346.47,1053.90 348.21,1053.90 349.96,1053.90 351.70,1053.90 353.44,1053.90 355.19,1053.90 356.93,1053.90 358.67,1053.90 360.41,1053.90 362.16,1053.90 363.90,1053.90 365.64,1053.90 367.39,522.18 369.13,522.18 370.87,522.18 372.61,522.18 374.36,1053.90 376.10,522.18 377.84,1053.90 379.59,1053.90 381.33,1053.90 383.07,1053.90 384.81,1053.90 386.56,1053.90 388.30,522.18 390.04,522.18 391.79,1053.90 393.53,1053.90 395.27,1053.90 397.01,1053.90 398.76,1053.90 400.50,1053.90 402.24,1053.90 403.99,1053.90 405.73,1053.90 407.47,1053.90 409.21,522.18 410.96,1053.90 412.70,522.18 414.44,1053.90 416.19,1053.90 417.93,522.18 419.67,522.18 421.41,522.18 423.16,1053.90 424.90,1053.90 426.64,522.18 428.39,522.18 430.13,522.18 431.87,522.18 433.61,1053.90 435.36,1053.90 437.10,1053.90 438.84,1053.90 440.59,1053.90 442.33,1053.90 444.07,1053.90 445.81,1053.90 447.56,522.18 449.30,522.18 451.04,1053.90 452.79,522.18 454.53,522.18 456.27,522.18 458.01,522.18 459.76,522.18 461.50,522.18 463.24,1053.90 464.99,522.18 466.73,522.18 468.47,522.18 470.21,1053.90 471.96,522.18 473.70,1053.90 475.44,1053.90 477.19,1053.90 478.93,1053.90 480.67,1053.90 482.41,1053.90 484.16,1053.90 485.90,1053.90 487.64,1053.90 489.39,522.18 491.13,1053.90 492.87,522.18 494.61,522.18 496.36,522.18 498.10,522.18 499.84,522.18 501.59,522.18 503.33,522.18 505.07,522.18 506.81,1053.90 508.56,522.18 510.30,1053.90 512.04,1053.90 513.79,1053.90 515.53,1053.90 517.27,522.18 519.01,522.18 520.76,1053.90 522.50,1053.90 524.24,1053.90 525.99,1053.90 527.73,1053.90 529.47,1053.90 531.21,522.18 532.96,522.18 534.70,522.18 536.44,522.18 538.19,522.18 539.93,522.18 541.67,522.18 543.41,522.18 545.16,522.18 546.90,522.18 548.64,522.18 550.39,522.18 552.13,522.18 553.87,522.18 555.61,522.18 557.36,522.18 559.10,522.18 560.84,522.18 562.59,522.18 564.33,522.18 566.07,1053.90 567.81,1053.90 569.56,1053.90 571.30,1053.90 573.04,522.18 574.79,522.18 576.53,522.18 578.27,522.18 580.01,522.18 581.76,522.18 583.50,522.18 585.24,522.18 586.99,522.18 588.73,522.18 590.47,522.18 592.21,522.18 593.96,522.18 595.70,522.18 597.44,522.18 599.19,522.18 600.93,522.18 602.67,522.18 604.41,522.18 606.16,522.18 607.90,522.18 609.64,522.18 611.39,1053.90 613.13,522.18 614.87,522.18 616.61,522.18 618.36,522.18 620.10,522.18 621.84,522.18 623.59,522.18 625.33,522.18 627.07,522.18 628.81,522.18 630.56,522.18 632.30,522.18 634.04,522.18 635.79,522.18 637.53,522.18 639.27,522.18 641.01,522.18 642.76,522.18 644.50,522.18 646.24,522.18 647.99,522.18 649.73,1053.90 651.47,522.18 653.21,522.18 654.96,522.18 656.70,522.18 658.44,522.18 660.19,522.18 661.93,522.18 663.67,522.18 665.41,522.18 667.16,522.18 668.90,522.18 670.64,1053.90 672.39,522.18 674.13,1053.90 675.87,1053.90 677.61,1053.90 679.36,1053.90 681.10,1053.90 682.84,1053.90 684.59,1053.90 686.33,1053.90 688.07,1053.90 689.81,1053.90 691.56,1053.90 693.30,1053.90 695.04,1053.90 696.79,1053.90 698.53,1053.90 700.27,1053.90 702.01,1053.90 703.76,1053.90 705.50,1053.90 707.24,1053.90 708.99,1053.90 710.73,1053.90 712.47,1053.90 714.21,1053.90 715.96,1053.90 717.70,1053.90 719.44,1053.90 721.19,1053.90 722.93,1053.90 724.67,1053.90 726.41,1053.90 728.16,1053.90 729.90,1053.90 731.64,1053.90 733.39,1053.90 735.13,522.18 736.87,522.18 738.61,522.18 740.36,522.18 742.10,522.18 743.84,522.18 745.59,522.18 747.33,522.18 749.07,522.18 750.81,522.18 752.56,1053.90 754.30,522.18 756.04,522.18 757.79,522.18 759.53,522.18 761.27,522.18 763.01,1053.90 764.76,1053.90 766.50,1053.90 768.24,1053.90 769.99,1053.90 771.73,522.18 773.47,522.18 775.21,522.18 776.96,522.18 778.70,522.18 780.44,522.18 782.19,1053.90 783.93,522.18 785.67,1053.90 787.41,1053.90 789.16,522.18 790.90,1053.90 792.64,1053.90 794.39,522.18 796.13,1053.90 797.87,1053.90 799.61,1053.90 801.36,1053.90 803.10,1053.90 804.84,1053.90 806.59,1053.90 808.33,1053.90 810.07,1053.90 811.81,1053.90 813.56,1053.90 815.30,522.18 817.04,522.18 818.79,522.18 820.53,522.18 822.27,522.18 824.01,522.18 825.76,522.18 827.50,522.18 829.24,522.18 830.99,522.18 832.73,522.18 834.47,522.18 836.21,522.18 837.96,1053.90 839.70,522.18 841.44,1053.90 843.19,522.18 844.93,1053.90 846.67,1053.90 848.41,522.18 850.16,1053.90 851.90,1053.90 853.64,522.18 855.39,522.18 857.13,522.18 858.87,522.18 860.61,1053.90 862.36,1053.90 864.10,1053.90 865.84,1053.90 867.59,1053.90 869.33,1053.90 871.07,1053.90 872.81,1053.90 874.56,1053.90 876.30,1053.90 878.04,1053.90 879.79,1053.90 881.53,1053.90 883.27,1053.90 885.01,1053.90 886.76,1053.90 888.50,1053.90 890.24,1053.90 891.99,1053.90 893.73,1053.90 895.47,1053.90 897.21,1053.90 898.96,1053.90 900.70,1053.90 902.44,1053.90 904.19,1053.90 905.93,1053.90 907.67,1053.90 909.41,1053.90 911.16,1053.90 912.90,1053.90 914.64,1053.90 916.39,1053.90 918.13,1053.90 919.87,1053.90 921.61,1053.90 923.36,1053.90 925.10,1053.90 926.84,1053.90 928.59,1053.90 930.33,1053.90 932.07,1053.90 933.81,1053.90 935.56,1053.90 937.30,1053.90 939.04,1053.90 940.79,1053.90 942.53,1053.90 944.27,1053.90 946.01,1053.90 947.76,1053.90 949.50,1053.90 951.24,1053.90 952.99,1053.90 954.73,1053.90 956.47,1053.90 958.21,1053.90 959.96,1053.90 961.70,1053.90 963.44,1053.90 965.19,1053.90 966.93,1053.90 968.67,1053.90 970.41,1053.90 972.16,1053.90 973.90,1053.90 975.64,1053.90 977.39,1053.90 979.13,1053.90 980.87,1053.90 982.61,1053.90 984.36,1053.90 986.10,1053.90 987.84,1053.90 989.59,1053.90 991.33,1053.90 993.07,1053.90 994.81,1053.90 996.56,1053.90 998.30,1053.90 1000.04,1053.90 1001.79,1053.90 1003.53,1053.90 1005.27,1053.90 1007.01,1053.90 1008.76,1053.90 1010.50,1053.90 1012.24,1053.90 1013.99,1053.90 1015.73,1053.90 1017.47,1053.90 1019.21,1053.90 1020.96,1053.90 1022.70,1053.90 1024.44,1053.90 1026.19,1053.90 1027.93,1053.90 1029.67,1053.90 1031.41,1053.90 1033.16,1053.90 1034.90,1053.90 1036.64,1053.90 1038.39,1053.90 1040.13,1053.90 1041.87,1053.90 1043.61,522.18 1045.36,522.18 1047.10,522.18 1048.84,522.18 1050.59,1053.90 1052.33,1053.90 1054.07,522.18 1055.81,522.18 1057.56,522.18 1059.30,522.18 1061.04,1053.90 1062.79,1053.90 1064.53,1053.90 1066.27,1053.90 1068.01,1053.90 1069.76,1053.90 1071.50,1053.90 1073.24,1053.90 1074.99,1053.90 1076.73,522.18 1078.47,1053.90 1080.21,1053.90 1081.96,1053.90 1083.70,1053.90 1085.44,1053.90 1087.19,1053.90 1088.93,1053.90 1090.67,1053.90 1092.41,522.18 1094.16,1053.90 1095.90,1053.90 1097.64,1053.90 1099.39,1053.90 1101.13,1053.90 1102.87,1053.90 1104.61,1053.90 1106.36,1053.90 1108.10,1053.90 1109.84,522.18 1111.59,1053.90 1113.33,1053.90 1115.07,1053.90 1116.81,1053.90 1118.56,1053.90 1120.30,1053.90 1122.04,1053.90 1123.79,522.18 1125.53,1053.90 1127.27,522.18 1129.01,522.18 1130.76,522.18 1132.50,522.18 1134.24,522.18 1135.99,522.18 1137.73,522.18 1139.47,1053.90 1141.21,522.18 1142.96,522.18 1144.70,522.18 1146.44,522.18 1148.19,1053.90 1149.93,522.18 1151.67,1053.90 1153.41,1053.90 1155.16,1053.90 1156.90,1053.90 1158.64,1053.90 1160.39,1053.90 1162.13,1053.90 1163.87,1053.90 1165.61,1053.90 1167.36,522.18 1169.10,522.18 1170.84,522.18 1172.59,522.18 1174.33,522.18 1176.07,522.18 1177.81,522.18 1179.56,522.18 1181.30,1053.90 1183.04,522.18 1184.79,522.18 1186.53,522.18 1188.27,1053.90 1190.01,1053.90 1191.76,1053.90 1193.50,1053.90 1195.24,1053.90 1196.99,1053.90 1198.73,1053.90 1200.47,1053.90 1202.21,1053.90 1203.96,1053.90 1205.70,1053.90 1207.44,522.18 1209.19,522.18 1210.93,522.18 1212.67,1053.90 1214.41,1053.90 1216.16,522.18 1217.90,522.18 1219.64,522.18 1221.39,522.18 1223.13,1053.90 1224.87,1053.90 1226.61,1053.90 1228.36,1053.90 1230.10,1053.90 1231.84,1053.90 1233.59,1053.90 1235.33,1053.90 1237.07,1053.90 1238.81,1053.90 1240.56,1053.90 1242.30,1053.90 1244.04,1053.90 1245.79,1053.90 1247.53,1053.90 1249.27,1053.90 1251.01,1053.90 1252.76,1053.90 1254.50,1053.90 1256.24,1053.90 1257.99,1053.90 1259.73,1053.90 1261.47,1053.90 1263.21,1053.90 1264.96,1053.90 1266.70,1053.90 1268.44,1053.90 1270.19,1053.90 1271.93,1053.90 1273.67,1053.90 1275.41,1053.90 1277.16,1053.90 1278.90,1053.90 1280.64,1053.90 1282.39,1053.90 1284.13,1053.90 1285.87,1053.90 1287.61,1053.90 1289.36,1053.90 1291.10,1053.90 1292.84,522.18 1294.59,522.18 1296.33,522.18 1298.07,522.18 1299.81,522.18 1301.56,522.18 1303.30,522.18 1305.04,522.18 1306.79,522.18 1308.53,522.18 1310.27,522.18 1312.01,1053.90 1313.76,1053.90 1315.50,1053.90 1317.24,1053.90 1318.99,1053.90 1320.73,1053.90 1322.47,1053.90 1324.21,1053.90 1325.96,1053.90 1327.70,522.18 1329.44,522.18 1331.19,522.18 1332.93,522.18 1334.67,522.18 1336.41,522.18 1338.16,522.18 1339.90,522.18 1341.64,522.18 1343.39,522.18 1345.13,1053.90 1346.87,1053.90 1348.61,522.18 1350.36,522.18 1352.10,522.18 1353.84,522.18 1355.59,522.18 1357.33,522.18 1359.07,522.18 1360.81,522.18 1362.56,522.18 1364.30,522.18 1366.04,522.18 1367.79,522.18 1369.53,522.18 1371.27,522.18 1373.01,522.18 1374.76,522.18 1376.50,1053.90 1378.24,1053.90 1379.99,1053.90 1381.73,1053.90 1383.47,522.18 1385.21,1053.90 1386.96,1053.90 1388.70,1053.90 1390.44,522.18 1392.19,522.18 1393.93,522.18 1395.67,522.18 1397.41,522.18 1399.16,522.18 1400.90,522.18 1402.64,522.18 1404.39,522.18 1406.13,522.18 1407.87,522.18 1409.61,522.18 1411.36,522.18 1413.10,522.18 1414.84,1053.90 1416.59,522.18 1418.33,1053.90 1420.07,1053.90 1421.81,1053.90 1423.56,522.18 1425.30,1053.90 1427.04,1053.90 1428.79,1053.90 1430.53,522.18 1432.27,522.18 1434.01,522.18 1435.76,1053.90 1437.50,522.18 1439.24,522.18 1440.99,522.18 1442.73,522.18 1444.47,522.18 1446.21,522.18 1447.96,1053.90 1449.70,522.18 1451.44,522.18 1453.19,522.18 1454.93,522.18 1456.67,1053.90 1458.41,1053.90 1460.16,522.18 1461.90,1053.90 1463.64,522.18 1465.39,1053.90 1467.13,522.18 1468.87,522.18 1470.61,522.18 1472.36,522.18 1474.10,522.18 1475.84,522.18 1477.59,522.18 1479.33,1053.90 1481.07,1053.90 1482.81,522.18 1484.56,522.18 1486.30,1053.90 1488.04,522.18 1489.79,522.18 1491.53,1053.90 1493.27,522.18 1495.01,522.18 1496.76,522.18 1498.50,522.18 1500.24,522.18 1501.99,522.18 1503.73,522.18 1505.47,522.18 1507.21,522.18 1508.96,522.18 1510.70,522.18 1512.44,522.18 1514.19,522.18 1515.93,522.18 1517.67,522.18 1519.41,522.18 1521.16,522.18 1522.90,522.18 1524.64,522.18 1526.39,522.18 1528.13,1053.90 1529.87,1053.90 1531.61,1053.90 1533.36,522.18 1535.10,522.18 1536.84,522.18 1538.59,522.18 1540.33,522.18 1542.07,522.18 1543.81,522.18 1545.56,522.18 1547.30,522.18" style="stroke-width: 0.75;"/>
</g><g clip-path="url(#c2)">
<g><text x="833.60" y="34.67" text-anchor="middle" style="font-family: Arial;font-size: 14.40px;font-weight: bold;" textLength="184.74px" lengthAdjust="spacingAndGlyphs">Forecasts from ETS(A,N,N)</text></g>
<line x1="148.66" y1="1092.16" x2="1576.06" y2="1092.16" style="stroke-width: 0.75;"/>
<line x1="148.66" y1="1092.16" x2="148.66" y2="1099.36" style="stroke-width: 0.75;"/>
<line x1="386.56" y1="1092.16" x2="386.56" y2="1099.36" style="stroke-width: 0.75;"/>
<line x1="624.46" y1="1092.16" x2="624.46" y2="1099.36" style="stroke-width: 0.75;"/>
<line x1="862.36" y1="1092.16" x2="862.36" y2="1099.36" style="stroke-width: 0.75;"/>
<line x1="1100.26" y1="1092.16" x2="1100.26" y2="1099.36" style="stroke-width: 0.75;"/>
<line x1="1338.16" y1="1092.16" x2="1338.16" y2="1099.36" style="stroke-width: 0.75;"/>
<line x1="1576.06" y1="1092.16" x2="1576.06" y2="1099.36" style="stroke-width: 0.75;"/>
<g><text x="148.66" y="1118.08" text-anchor="middle" style="font-family: Arial;font-size: 12.00px;" textLength="36.71px" lengthAdjust="spacingAndGlyphs">2020.5</text></g>
<g><text x="386.56" y="1118.08" text-anchor="middle" style="font-family: Arial;font-size: 12.00px;" textLength="36.71px" lengthAdjust="spacingAndGlyphs">2021.0</text></g>
<g><text x="624.46" y="1118.08" text-anchor="middle" style="font-family: Arial;font-size: 12.00px;" textLength="36.71px" lengthAdjust="spacingAndGlyphs">2021.5</text></g>
<g><text x="862.36" y="1118.08" text-anchor="middle" style="font-family: Arial;font-size: 12.00px;" textLength="36.71px" lengthAdjust="spacingAndGlyphs">2022.0</text></g>
<g><text x="1100.26" y="1118.08" text-anchor="middle" style="font-family: Arial;font-size: 12.00px;" textLength="36.71px" lengthAdjust="spacingAndGlyphs">2022.5</text></g>
<g><text x="1338.16" y="1118.08" text-anchor="middle" style="font-family: Arial;font-size: 12.00px;" textLength="36.71px" lengthAdjust="spacingAndGlyphs">2023.0</text></g>
<g><text x="1576.06" y="1118.08" text-anchor="middle" style="font-family: Arial;font-size: 12.00px;" textLength="36.71px" lengthAdjust="spacingAndGlyphs">2023.5</text></g>
<line x1="59.04" y1="1053.90" x2="59.04" y2="256.32" style="stroke-width: 0.75;"/>
<line x1="59.04" y1="1053.90" x2="51.84" y2="1053.90" style="stroke-width: 0.75;"/>
<line x1="59.04" y1="788.04" x2="51.84" y2="788.04" style="stroke-width: 0.75;"/>
<line x1="59.04" y1="522.18" x2="51.84" y2="522.18" style="stroke-width: 0.75;"/>
<line x1="59.04" y1="256.32" x2="51.84" y2="256.32" style="stroke-width: 0.75;"/>
<g><text transform="translate(41.76,1053.90) rotate(-90.00)" text-anchor="middle" style="font-family: Arial;font-size: 12.00px;" textLength="16.68px" lengthAdjust="spacingAndGlyphs">0.0</text></g>
<g><text transform="translate(41.76,788.04) rotate(-90.00)" text-anchor="middle" style="font-family: Arial;font-size: 12.00px;" textLength="16.68px" lengthAdjust="spacingAndGlyphs">0.5</text></g>
<g><text transform="translate(41.76,522.18) rotate(-90.00)" text-anchor="middle" style="font-family: Arial;font-size: 12.00px;" textLength="16.68px" lengthAdjust="spacingAndGlyphs">1.0</text></g>
<g><text transform="translate(41.76,256.32) rotate(-90.00)" text-anchor="middle" style="font-family: Arial;font-size: 12.00px;" textLength="16.68px" lengthAdjust="spacingAndGlyphs">1.5</text></g>
<polygon points="59.04,1092.16 1608.16,1092.16 1608.16,59.04 59.04,59.04" style="stroke-width: 0.75;" />
</g><g clip-path="url(#c3)">
<polygon points="1548.17,907.70 1549.91,907.70 1549.91,139.22 1548.17,139.22" style="stroke-width: 0.75;stroke: none;fill: #DBDBDF;" />
<polygon points="1549.91,949.61 1551.66,949.61 1551.66,97.30 1549.91,97.30" style="stroke-width: 0.75;stroke: none;fill: #DBDBDF;" />
<polygon points="1548.17,774.70 1549.91,774.70 1549.91,272.22 1548.17,272.22" style="stroke-width: 0.75;stroke: none;fill: #B1B5CE;" />
<polygon points="1549.91,802.11 1551.66,802.11 1551.66,244.81 1549.91,244.81" style="stroke-width: 0.75;stroke: none;fill: #B1B5CE;" />
<circle cx="1549.04" cy="523.46" r="2.70" style="stroke-width: 0.75;stroke: #2297E6;fill: #2297E6;"/>
<circle cx="1550.79" cy="523.46" r="2.70" style="stroke-width: 0.75;stroke: #2297E6;fill: #2297E6;"/>
</g>
</svg>